<svg width="19" height="14" viewBox="0 0 19 14" fill="none" xmlns="http://www.w3.org/2000/svg">
<path fill-rule="evenodd" clip-rule="evenodd" d="M-2.66972e-07 6.89361C-2.74838e-07 6.71365 0.0714873 6.54107 0.198736 6.41382C0.325985 6.28657 0.498571 6.21508 0.678528 6.21508L16.6823 6.21508L12.4116 1.94578C12.2842 1.81837 12.2126 1.64557 12.2126 1.46538C12.2126 1.2852 12.2842 1.1124 12.4116 0.984986C12.539 0.857577 12.7118 0.786 12.892 0.786C13.0722 0.786 13.245 0.857577 13.3724 0.984986L18.8007 6.41321C18.8638 6.47624 18.914 6.55112 18.9482 6.63355C18.9824 6.71599 19 6.80436 19 6.89361C19 6.98286 18.9824 7.07123 18.9482 7.15367C18.914 7.2361 18.8638 7.31098 18.8007 7.37401L13.3724 12.8022C13.245 12.9296 13.0722 13.0012 12.892 13.0012C12.7119 13.0012 12.539 12.9296 12.4116 12.8022C12.2842 12.6748 12.2126 12.502 12.2126 12.3218C12.2126 12.1417 12.2842 11.9688 12.4116 11.8414L16.6823 7.57214L0.678528 7.57214C0.498571 7.57214 0.325985 7.50065 0.198736 7.3734C0.0714873 7.24615 -2.59106e-07 7.07357 -2.66972e-07 6.89361Z" fill="#1877F2"/>
</svg>
