<svg width="18" height="21" viewBox="0 0 18 21" fill="none" xmlns="http://www.w3.org/2000/svg">
<path d="M12.9739 13.8817C13.5539 13.5701 14.2179 13.3928 14.9249 13.3928H14.9273C14.9992 13.3928 15.0328 13.3065 14.98 13.2585C14.2447 12.5987 13.4048 12.0657 12.4946 11.6815C12.485 11.6767 12.4754 11.6743 12.4658 11.6695C13.9542 10.5885 14.9225 8.83166 14.9225 6.84951C14.9225 3.5659 12.2669 0.905457 8.99044 0.905457C5.71402 0.905457 3.06077 3.5659 3.06077 6.84951C3.06077 8.83166 4.02907 10.5885 5.51988 11.6695C5.51029 11.6743 5.50071 11.6767 5.49112 11.6815C4.41975 12.1344 3.45864 12.784 2.63174 13.6133C1.80962 14.4339 1.15511 15.4067 0.704718 16.4774C0.261582 17.5259 0.0224256 18.6493 5.99343e-05 19.7874C-0.000579783 19.813 0.00390709 19.8384 0.0132563 19.8623C0.0226055 19.8861 0.0366278 19.9078 0.0544969 19.9261C0.0723661 19.9444 0.0937205 19.959 0.117302 19.9689C0.140883 19.9788 0.166215 19.984 0.191804 19.984H1.62748C1.73055 19.984 1.81683 19.9001 1.81923 19.797C1.86716 17.9467 2.60777 16.2138 3.91882 14.9004C5.27301 13.5414 7.0754 12.7936 8.99284 12.7936C10.3518 12.7936 11.6557 13.1699 12.7798 13.8745C12.8087 13.8927 12.8418 13.9029 12.8759 13.9041C12.91 13.9054 12.9438 13.8977 12.9739 13.8817ZM8.99284 10.972C7.89511 10.972 6.86209 10.543 6.08313 9.76402C5.69987 9.38175 5.39603 8.92743 5.18912 8.42722C4.98221 7.92702 4.87632 7.39082 4.87754 6.84951C4.87754 5.74938 5.30657 4.71397 6.08313 3.93501C6.85969 3.15605 7.89271 2.72702 8.99284 2.72702C10.093 2.72702 11.1236 3.15605 11.9025 3.93501C12.2858 4.31727 12.5896 4.7716 12.7966 5.2718C13.0035 5.772 13.1094 6.3082 13.1081 6.84951C13.1081 7.94964 12.6791 8.98506 11.9025 9.76402C11.1236 10.543 10.0906 10.972 8.99284 10.972ZM17.8083 16.6764H15.7949V14.6631C15.7949 14.5576 15.7087 14.4713 15.6032 14.4713H14.261C14.1555 14.4713 14.0693 14.5576 14.0693 14.6631V16.6764H12.0559C11.9505 16.6764 11.8642 16.7627 11.8642 16.8681V18.2103C11.8642 18.3158 11.9505 18.4021 12.0559 18.4021H14.0693V20.4154C14.0693 20.5208 14.1555 20.6071 14.261 20.6071H15.6032C15.7087 20.6071 15.7949 20.5208 15.7949 20.4154V18.4021H17.8083C17.9137 18.4021 18 18.3158 18 18.2103V16.8681C18 16.7627 17.9137 16.6764 17.8083 16.6764Z" fill="#1877F2"/>
</svg>
