<svg width="15" height="24" viewBox="0 0 15 24" fill="none" xmlns="http://www.w3.org/2000/svg">
<path d="M7.38802 0.72229C3.30813 0.72229 0 4.02566 0 8.09968C0 11.6931 2.57428 14.687 5.98105 15.3434V17.7182H2.81252V20.5267H5.98103V23.6892H8.79355V20.5267H11.9621V17.7182H8.79357V15.3434C12.201 14.6875 14.776 11.6935 14.776 8.09966C14.776 4.02566 11.4679 0.72229 7.38802 0.72229ZM7.38802 3.65589C9.84578 3.65589 11.8382 5.64546 11.8382 8.09968C11.8382 10.5539 9.8458 12.5435 7.38802 12.5435C4.93024 12.5435 2.93783 10.5539 2.93783 8.09968C2.93783 5.64546 4.93026 3.65589 7.38802 3.65589Z" fill="#1877F2"/>
</svg>
