<svg width="21" height="21" viewBox="0 0 21 21" fill="none" xmlns="http://www.w3.org/2000/svg">
<path d="M8.83331 4.71367H12.8333C12.8333 4.184 12.6226 3.67602 12.2475 3.30149C11.8725 2.92695 11.3637 2.71654 10.8333 2.71654C10.3029 2.71654 9.79417 2.92695 9.4191 3.30149C9.04403 3.67602 8.83331 4.184 8.83331 4.71367ZM6.83331 4.71367C6.83331 3.65433 7.25474 2.63837 8.00489 1.88931C8.75503 1.14024 9.77245 0.719421 10.8333 0.719421C11.8942 0.719421 12.9116 1.14024 13.6617 1.88931C14.4119 2.63837 14.8333 3.65433 14.8333 4.71367H19.8333C20.0985 4.71367 20.3529 4.81887 20.5404 5.00614C20.728 5.1934 20.8333 5.44739 20.8333 5.71223C20.8333 5.97706 20.728 6.23105 20.5404 6.41832C20.3529 6.60558 20.0985 6.71079 19.8333 6.71079H18.9513L18.0653 17.0359C17.9801 18.0329 17.5233 18.9617 16.7852 19.6385C16.047 20.3153 15.0814 20.6908 14.0793 20.6906H7.58731C6.58522 20.6908 5.61959 20.3153 4.88146 19.6385C4.14334 18.9617 3.68649 18.0329 3.60131 17.0359L2.71531 6.71079H1.83331C1.5681 6.71079 1.31374 6.60558 1.12621 6.41832C0.93867 6.23105 0.833313 5.97706 0.833313 5.71223C0.833313 5.44739 0.93867 5.1934 1.12621 5.00614C1.31374 4.81887 1.5681 4.71367 1.83331 4.71367H6.83331ZM13.8333 10.705C13.8333 10.4402 13.728 10.1862 13.5404 9.99894C13.3529 9.81168 13.0985 9.70647 12.8333 9.70647C12.5681 9.70647 12.3137 9.81168 12.1262 9.99894C11.9387 10.1862 11.8333 10.4402 11.8333 10.705V14.6993C11.8333 14.9641 11.9387 15.2181 12.1262 15.4054C12.3137 15.5926 12.5681 15.6978 12.8333 15.6978C13.0985 15.6978 13.3529 15.5926 13.5404 15.4054C13.728 15.2181 13.8333 14.9641 13.8333 14.6993V10.705ZM8.83331 9.70647C9.09853 9.70647 9.35288 9.81168 9.54042 9.99894C9.72796 10.1862 9.83331 10.4402 9.83331 10.705V14.6993C9.83331 14.9641 9.72796 15.2181 9.54042 15.4054C9.35288 15.5926 9.09853 15.6978 8.83331 15.6978C8.5681 15.6978 8.31374 15.5926 8.12621 15.4054C7.93867 15.2181 7.83331 14.9641 7.83331 14.6993V10.705C7.83331 10.4402 7.93867 10.1862 8.12621 9.99894C8.31374 9.81168 8.5681 9.70647 8.83331 9.70647ZM5.59331 16.8662C5.63592 17.3648 5.86448 17.8294 6.23376 18.1678C6.60303 18.5062 7.08609 18.6938 7.58731 18.6935H14.0793C14.5802 18.6933 15.0628 18.5055 15.4316 18.1671C15.8005 17.8287 16.0287 17.3645 16.0713 16.8662L16.9433 6.71079H4.72331L5.59531 16.8662H5.59331Z" fill="#FF1A1A"/>
</svg>
