<svg width="18" height="15" viewBox="0 0 18 15" fill="none" xmlns="http://www.w3.org/2000/svg">
<path d="M1 2.6C1 2.17565 1.16857 1.76869 1.46863 1.46863C1.76869 1.16857 2.17565 1 2.6 1H15.4C15.8243 1 16.2313 1.16857 16.5314 1.46863C16.8314 1.76869 17 2.17565 17 2.6V12.2C17 12.6243 16.8314 13.0313 16.5314 13.3314C16.2313 13.6314 15.8243 13.8 15.4 13.8H2.6C2.17565 13.8 1.76869 13.6314 1.46863 13.3314C1.16857 13.0313 1 12.6243 1 12.2V2.6Z" stroke="#1877F2" stroke-width="2" stroke-linecap="round" stroke-linejoin="round"/>
<path d="M1 4.20007L7.0008 9.00087C7.56823 9.45488 8.27329 9.70223 9 9.70223C9.72671 9.70223 10.4318 9.45488 10.9992 9.00087L17 4.20007" stroke="#1877F2" stroke-width="2" stroke-linejoin="round"/>
</svg>
