<svg width="207" height="60" viewBox="0 0 207 60" fill="none" xmlns="http://www.w3.org/2000/svg">
<g clip-path="url(#clip0_261_135)">
<path d="M207 26.3194C206.487 27.559 206.091 28.8421 205.649 30.1118C202.813 38.2713 199.986 46.4341 197.166 54.6003C197.155 54.667 197.131 54.7309 197.095 54.7881C197.059 54.8454 197.012 54.8948 196.957 54.9334C196.902 54.9721 196.839 54.9992 196.773 55.0131C196.708 55.0271 196.64 55.0276 196.573 55.0146C196.082 54.9862 195.59 54.9862 195.099 55.0146C194.746 55.0346 194.667 54.9545 194.766 54.6003C195.402 52.6657 196.011 50.721 196.63 48.7831C197.517 45.9942 198.412 43.2097 199.312 40.4298C199.399 40.1655 199.389 39.8791 199.286 39.6212C197.706 35.3064 196.131 30.9928 194.56 26.6803C194.397 26.2292 194.394 26.2292 194.866 26.2292C195.339 26.2292 195.865 26.2559 196.34 26.2292C196.673 26.2058 196.8 26.3394 196.903 26.6335C198.128 30.1107 199.36 33.5856 200.6 37.0584C200.623 37.2133 200.695 37.3565 200.807 37.466L202.347 33.2259C203.148 31.0139 203.949 28.7986 204.75 26.58C204.84 26.3294 204.943 26.2158 205.226 26.2459C205.812 26.276 206.398 26.2659 206.983 26.276L207 26.3194Z" fill="white"/>
<path d="M36.7375 0.000129091C42.2487 0.0502488 47.5668 1.46697 52.2925 4.8016C55.2291 6.85481 57.6483 9.56742 59.3578 12.7239C60.1286 14.0656 60.6898 15.5182 61.0218 17.0308C61.0557 17.2418 61.0713 17.4553 61.0684 17.669C61.0684 17.8728 61.0284 18.08 60.7921 18.1468C60.5558 18.2136 60.4127 18.0599 60.2963 17.8895C60.1062 17.6003 59.953 17.2882 59.8403 16.9606C59.4133 15.7407 58.8984 14.5536 58.2995 13.4088C55.962 9.2606 52.3546 5.9797 48.0127 4.05314C44.4307 2.44204 40.5308 1.66967 36.6077 1.79442C30.0217 1.94477 24.0313 4.00971 18.5701 7.62501C12.1804 11.8585 7.48464 17.5186 4.65919 24.6958C3.67099 27.2588 3.03722 29.9457 2.77556 32.6815C2.71107 33.3973 2.52537 34.0968 2.22644 34.7498C2.12661 34.9837 1.9857 35.1976 1.81044 35.3813C1.74743 35.466 1.66533 35.5344 1.57087 35.581C1.47641 35.6276 1.37229 35.651 1.26706 35.6494C1.16183 35.6478 1.05848 35.6211 0.965503 35.5716C0.872523 35.5221 0.792561 35.4512 0.732179 35.3646C0.335493 34.8589 0.103145 34.243 0.0665846 33.6004C-0.126438 32.2371 0.153112 30.9273 0.426006 29.5908C1.9602 22.2299 5.62763 16.0384 10.9823 10.8394C16.0351 5.85225 22.3744 2.3806 29.2862 0.81541C31.7321 0.26663 34.2313 -0.00681771 36.7375 0.000129091Z" fill="white"/>
<path d="M26.4274 59.9998C21.1626 59.9564 16.134 58.7001 11.578 55.7831C8.10864 53.5801 5.28358 50.4924 3.39119 46.835C2.6882 45.5482 2.17373 44.1662 1.86365 42.7319C1.80552 42.444 1.78871 42.1492 1.81373 41.8565C1.8337 41.6727 1.8936 41.5224 2.08995 41.4589C2.17576 41.4402 2.26527 41.45 2.34507 41.4868C2.42487 41.5235 2.49066 41.5852 2.53257 41.6627C2.74292 41.9714 2.9077 42.309 3.02178 42.6651C3.42484 43.8932 3.91875 45.0894 4.4994 46.2436C6.69293 50.2826 10.0863 53.5343 14.2071 55.5459C17.144 57.0057 20.3364 57.8762 23.6053 58.1086C29.7055 58.5798 35.4462 57.2466 40.8708 54.51C47.6621 51.1476 53.2351 45.7357 56.8085 39.0331C58.6467 35.671 59.824 31.9855 60.2763 28.1771C60.3467 27.3764 60.5586 26.5946 60.9019 25.8683C61.1216 25.4306 61.3346 24.906 61.9269 24.9427C62.5193 24.9795 62.719 25.5275 62.8721 26.0086C63.1796 27.1318 63.207 28.3138 62.9519 29.4502C61.491 37.613 57.4541 44.3224 51.4338 49.889C46.5775 54.4174 40.6269 57.5929 34.1716 59.101C31.633 59.6975 29.0346 59.9991 26.4274 59.9998Z" fill="white"/>
<path d="M134.82 28.6253C136.097 28.6253 137.375 28.6253 138.65 28.6253C138.933 28.6253 139.016 28.6921 138.983 28.9794C138.796 30.904 138.627 32.8286 138.454 34.7566C138.394 35.4048 138.327 36.0563 138.267 36.7046C138.158 38.2329 137.55 39.6826 136.539 40.8299C135.527 41.9773 134.167 42.7585 132.67 43.0531C128.134 44.0287 123.684 41.8301 121.491 37.5098C120.326 35.1537 119.877 32.5055 120.2 29.895C120.481 26.7708 121.635 23.7898 123.528 21.2944C125.564 18.6214 128.187 16.8872 131.538 16.356C133.651 16.0286 135.811 16.2189 137.835 16.9106C138.068 16.9875 138.464 17.0443 138.41 17.335C138.374 17.5488 137.978 17.502 137.745 17.5054C135.542 17.5421 133.352 17.7125 131.289 18.5579C126.962 20.3254 123.93 23.3527 122.762 27.9369C121.791 31.7494 122.652 35.2878 125.182 38.3117C127.112 40.6106 129.691 41.2822 132.58 40.5304C133.275 40.3519 133.912 39.9945 134.428 39.4936C134.944 38.9926 135.321 38.3653 135.522 37.6735C136.304 35.5259 136.644 33.241 136.52 30.9575C136.504 30.6902 136.42 30.6234 136.171 30.6234C134.427 30.6668 132.686 30.6902 130.942 30.737C130.636 30.737 130.513 30.6802 130.533 30.3494C130.56 29.9232 130.56 29.4958 130.533 29.0697C130.516 28.7756 130.596 28.6754 130.903 28.6787C132.207 28.6787 133.512 28.6787 134.813 28.6787L134.82 28.6253Z" fill="white"/>
<path d="M181.95 17.7088C180.05 17.7088 178.146 17.7088 176.243 17.7088C175.91 17.7088 175.787 17.7756 175.734 18.1197C175.29 21.0445 174.822 23.9648 174.329 26.8807C174.273 27.2148 174.386 27.2415 174.662 27.2382C177.241 27.2382 179.824 27.2382 182.403 27.2382C182.769 27.2382 182.856 27.3451 182.839 27.6859C182.809 28.2606 182.812 28.8353 182.839 29.4067C182.839 29.7141 182.772 29.8143 182.45 29.8077C179.817 29.7475 177.181 29.7074 174.549 29.664C173.614 29.664 173.61 29.6439 173.454 30.5728C172.822 34.3151 172.186 38.0574 171.57 41.8063C171.524 42.0903 171.414 42.1404 171.161 42.1404C170.495 42.1404 169.83 42.1204 169.164 42.1404C168.865 42.1404 168.782 42.087 168.831 41.7729C169.074 40.3796 169.294 38.9862 169.52 37.5929C170.062 34.2115 170.605 30.8312 171.151 27.452C171.723 23.8991 172.298 20.3484 172.875 16.7999C172.932 16.4457 173.018 16.0916 173.041 15.734C173.061 15.4433 173.198 15.3999 173.451 15.3999C178.212 15.3999 182.974 15.3999 187.738 15.3999C188.07 15.3999 188.144 15.5001 188.134 15.8075C188.11 16.3254 188.11 16.85 188.134 17.3679C188.134 17.6486 188.054 17.7255 187.774 17.7255C185.834 17.7255 183.891 17.7255 181.947 17.7255L181.95 17.7088Z" fill="white"/>
<path d="M73.5482 30.2721C73.7179 24.9761 75.7314 20.6424 80.2042 17.6386C82.1223 16.2859 84.3969 15.5348 86.7403 15.4801C89.4892 15.4567 92.0152 16.0982 94.0286 18.1231C94.7463 18.8587 95.3119 19.7297 95.6926 20.6859C95.7724 20.8797 95.829 21.0868 95.8922 21.2907C95.9289 21.4043 95.9788 21.558 95.8922 21.6248C95.8057 21.6916 95.6759 21.568 95.5927 21.4978C95.4296 21.3575 95.2799 21.2071 95.1235 21.0601C93.8672 19.8212 92.3662 18.8605 90.7172 18.24C88.4309 17.4582 86.1313 17.6787 83.9215 18.5174C79.5619 20.168 77.0393 23.399 76.1474 27.9432C75.7278 29.8163 75.754 31.7624 76.2239 33.6234C76.7941 35.7758 78.0873 37.6643 79.8847 38.9695C81.8482 40.423 83.9914 40.5934 86.2078 39.6378C88.1728 38.7845 89.9713 37.5876 91.5193 36.1027C91.8288 35.8087 92.1549 35.5347 92.4844 35.264C92.5676 35.1905 92.6841 35.0803 92.8006 35.1772C92.917 35.2741 92.8671 35.4044 92.8305 35.5113C92.7423 35.7761 92.6401 36.036 92.5243 36.2898C90.644 40.2058 87.5324 42.3576 83.206 42.6016C80.2374 42.7686 77.9045 41.4254 76.1341 39.0497C74.657 37.0747 73.7986 34.7031 73.668 32.2368C73.6214 31.5886 73.5815 30.937 73.5482 30.2721Z" fill="white"/>
<path d="M14.1739 29.9982C14.104 23.6497 17.9045 17.9695 23.6652 15.8879C26.8834 14.7217 30.045 14.8855 33.0568 16.5561C34.6528 17.48 35.8549 18.9604 36.4347 20.7161C36.5012 20.8998 36.671 21.1738 36.4779 21.3008C36.2849 21.4278 36.1451 21.1371 36.012 21.0068C35.274 20.3147 34.4852 19.6792 33.6525 19.1055C31.2763 17.4349 28.6605 17.1308 25.9216 17.769C23.5813 18.3092 21.4557 19.5406 19.8186 21.3045C18.1815 23.0684 17.108 25.284 16.7364 27.666C16.4036 29.7476 16.3104 31.8059 16.996 33.8307C17.6046 35.6878 18.7562 37.3179 20.3007 38.5086C21.1669 39.2345 22.2181 39.7027 23.3355 39.8603C24.4528 40.018 25.5918 39.8588 26.6238 39.4007C28.6197 38.5748 30.4456 37.3841 32.0085 35.889C32.3413 35.5883 32.6741 35.2976 33.0069 35.0135C33.1134 34.9233 33.2432 34.7696 33.3863 34.8598C33.5294 34.9501 33.4661 35.1439 33.4129 35.2909C33.0852 36.2378 32.6137 37.1282 32.0151 37.9305C29.9518 40.6303 27.2362 42.1372 23.8682 42.2976C20.8464 42.4413 18.4869 41.1181 16.6965 38.699C15.2459 36.7391 14.4011 34.3943 14.267 31.9562C14.2205 31.3013 14.1838 30.6498 14.1739 29.9982Z" fill="white"/>
<path d="M93.5626 37.122C94.3081 37.7001 94.9937 38.228 95.6792 38.7526C96.8863 39.6866 98.3783 40.1721 99.9016 40.1266C101.425 40.0812 102.886 39.5076 104.035 38.5032C105.185 37.4989 105.953 36.1259 106.208 34.6175C106.464 33.109 106.191 31.5583 105.437 30.2289C104.745 28.9592 103.59 28.4212 102.185 28.321C101.188 28.2399 100.185 28.3748 99.2437 28.7167C98.3027 29.0585 97.4458 29.5993 96.7309 30.3024C95.95 31.0325 95.21 31.8055 94.5144 32.6179C94.3656 32.8058 94.2068 32.9853 94.0385 33.1559C93.8688 33.3196 93.7057 33.6704 93.4595 33.5267C93.2132 33.3831 93.3596 33.0523 93.4029 32.815C93.5937 31.7199 94.0638 30.6931 94.7674 29.8346C96.2783 28.0303 98.0953 26.6938 100.445 26.2327C104.162 25.5076 107.117 27.3353 108.063 31.0274C108.811 33.9578 107.969 36.544 106.096 38.8094C105.308 39.8192 104.289 40.6223 103.124 41.1495C101.96 41.6768 100.685 41.9125 99.4099 41.8366C98.2551 41.7898 97.1003 41.6562 96.0819 41.0347C94.8472 40.2862 93.8688 38.786 93.5626 37.122Z" fill="white"/>
<path d="M34.1251 36.8245C34.9637 37.3725 35.6326 37.9873 36.3681 38.4951C40.8809 41.6727 46.179 38.719 46.828 34.1982C47.0288 32.7872 46.7868 31.3483 46.1357 30.0817C45.4435 28.6884 44.2488 28.0936 42.7479 27.99C41.7504 27.915 40.7485 28.0551 39.8095 28.4009C38.8704 28.7466 38.0159 29.2901 37.3033 29.9948C36.5377 30.7172 35.8122 31.4813 35.1301 32.2836C34.9737 32.4641 34.8273 32.6579 34.6542 32.8216C34.4812 32.9853 34.3214 33.3361 34.0752 33.1958C33.8289 33.0555 33.972 32.7213 34.0186 32.4841C34.1431 31.6773 34.4369 30.9063 34.8805 30.222C36.3881 28.0201 38.3616 26.4564 41.0206 25.9084C44.7413 25.1399 47.7265 26.991 48.675 30.6965C49.4204 33.5968 48.5951 36.1629 46.7581 38.4183C45.9688 39.4443 44.9422 40.2617 43.7674 40.7997C42.5925 41.3377 41.3047 41.58 40.0156 41.5057C39.3426 41.4832 38.6736 41.3925 38.0188 41.235C37.3641 41.0756 36.7503 40.7788 36.218 40.3642C35.6857 39.9495 35.2469 39.4264 34.9304 38.8293C34.5857 38.1945 34.3155 37.5217 34.1251 36.8245Z" fill="white"/>
<path d="M140.707 37.4662C141.539 38.0108 142.198 38.6123 142.923 39.1368C147.403 42.3378 152.697 39.4409 153.406 34.9535C153.637 33.4779 153.379 31.967 152.671 30.6532C151.962 29.29 150.744 28.7487 149.266 28.6485C147.077 28.5115 145.273 29.3167 143.722 30.817C142.86 31.6356 142.088 32.5344 141.306 33.4232C141.126 33.627 140.936 33.9946 140.674 33.8676C140.411 33.7406 140.567 33.3564 140.617 33.0924C140.838 31.9202 141.372 30.8302 142.161 29.9382C143.699 28.1874 145.529 26.9611 147.862 26.52C151.004 25.9253 153.782 27.3988 154.941 30.406C156.169 33.5736 155.44 36.4404 153.41 39.0132C152.611 40.0823 151.557 40.9324 150.345 41.4853C149.133 42.0383 147.802 42.2763 146.474 42.1774C145.836 42.1487 145.202 42.0592 144.581 41.9101C143.888 41.7368 143.242 41.4113 142.689 40.9571C142.137 40.503 141.692 39.9315 141.386 39.2839C141.105 38.6999 140.878 38.0915 140.707 37.4662Z" fill="white"/>
<path d="M186.253 42.1004C186.586 40.2827 186.919 38.5051 187.232 36.7242C188.044 32.2892 188.857 27.8441 189.671 23.389C190.004 21.6482 190.314 19.9074 190.623 18.1665C190.656 17.9694 190.716 17.8892 190.923 17.8959C191.332 17.8959 191.745 17.8959 192.157 17.8959C192.364 17.8959 192.4 17.9661 192.374 18.1532C191.961 20.7995 191.554 23.4447 191.152 26.0888L189.754 35.254C189.422 37.4125 189.089 39.571 188.773 41.7295C188.733 42.0068 188.64 42.1004 188.35 42.0904C187.661 42.077 186.969 42.1004 186.253 42.1004Z" fill="white"/>
</g>
<defs>
<clipPath id="clip0_261_135">
<rect width="207" height="60" fill="white"/>
</clipPath>
</defs>
</svg>
