<svg width="16" height="17" viewBox="0 0 16 17" fill="none" xmlns="http://www.w3.org/2000/svg">
<path d="M0.799847 9.44067H1.59986V15.0326C1.59986 15.9137 2.31748 16.6302 3.1999 16.6302H12.8001C13.6825 16.6302 14.4001 15.9137 14.4001 15.0326V9.44067H15.2002C15.3584 9.44064 15.513 9.39377 15.6445 9.30599C15.7761 9.21821 15.8786 9.09346 15.9391 8.94751C15.9996 8.80156 16.0155 8.64097 15.9846 8.48603C15.9538 8.33109 15.8776 8.18877 15.7658 8.07705L8.56561 0.88748C8.49138 0.813231 8.40322 0.754327 8.30616 0.714136C8.20911 0.673946 8.10507 0.653259 8 0.653259C7.89493 0.653259 7.79089 0.673946 7.69384 0.714136C7.59679 0.754327 7.50862 0.813231 7.43439 0.88748L0.234235 8.07705C0.122385 8.18877 0.0462178 8.33109 0.0153631 8.48603C-0.0154916 8.64097 0.000351168 8.80156 0.0608885 8.94751C0.121426 9.09346 0.22394 9.21821 0.35547 9.30599C0.487001 9.39377 0.641643 9.44064 0.799847 9.44067ZM6.39997 15.0326V11.0384H9.60004V15.0326H6.39997ZM8 2.58182L12.8001 7.37487V11.0384L12.8009 15.0326H11.2001V11.0384C11.2001 10.1572 10.4825 9.44067 9.60004 9.44067H6.39997C5.51755 9.44067 4.79993 10.1572 4.79993 11.0384V15.0326H3.1999V7.37487L8 2.58182Z" fill="#1877F2"/>
</svg>
