<svg width="38" height="38" viewBox="0 0 38 38" fill="none" xmlns="http://www.w3.org/2000/svg">
<g clip-path="url(#clip0_13_389)">
<path d="M35.7737 37.9999C35.2048 37.8463 34.7825 37.4785 34.3791 37.0701C31.2376 33.9159 28.0919 30.7667 24.9418 27.6224C24.8649 27.535 24.7934 27.443 24.7277 27.3468C20.6449 30.3295 16.1944 31.3119 11.3325 30.0391C7.70268 29.0865 4.80438 27.0187 2.68616 23.921C-1.57604 17.688 -0.702782 9.31778 4.85691 4.14439C10.4384 -1.04883 18.8706 -1.38784 24.7326 3.28298C28.0036 5.89297 29.9335 9.28804 30.448 13.4454C30.9624 17.6027 29.8651 21.3229 27.3326 24.7269C27.4579 24.81 27.5774 24.9014 27.6904 25.0005C30.7777 28.084 33.8653 31.1685 36.9533 34.2539C37.3835 34.6822 37.7988 35.1104 38 35.6992V36.4417C37.769 37.2485 37.2457 37.765 36.4418 37.9999H35.7737ZM3.7983 15.2653C3.77649 21.5787 8.92087 26.7491 15.2646 26.7858C21.5786 26.8215 26.7626 21.6669 26.7874 15.3268C26.8122 9.00156 21.6658 3.82817 15.3261 3.80736C9.00909 3.78555 3.8211 8.9411 3.7983 15.2653Z" fill="#1877F1"/>
</g>
<defs>
<clipPath id="clip0_13_389">
<rect width="38" height="38" fill="white"/>
</clipPath>
</defs>
</svg>
