<svg width="46" height="41" viewBox="0 0 46 41" fill="none" xmlns="http://www.w3.org/2000/svg">
<g clip-path="url(#clip0_13_392)">
<path d="M45.9997 13.0923C45.8365 13.9013 45.7213 14.7237 45.4992 15.5109C44.9328 17.5269 43.8574 19.2466 42.3849 20.7195C41.4248 21.6749 40.4791 22.6351 39.4913 23.6292C39.813 23.9666 40.1274 24.2786 40.4251 24.6075C42.6717 27.0951 41.5352 31.0738 38.3236 31.9591C37.9804 32.0546 37.6215 32.0897 37.2435 32.1586C36.9435 34.7829 35.4889 36.2861 32.8486 36.5932C32.5846 40.8864 27.5296 42.4863 24.8425 39.3638C23.5535 40.7558 21.9802 41.2927 20.162 40.734C18.1541 40.1148 17.1496 38.6237 16.96 36.5521C14.3773 36.3465 12.7595 34.5482 12.5483 32.1151C12.1389 32.0552 11.7327 31.9745 11.3314 31.8732C10.7644 31.7011 10.2377 31.4158 9.78243 31.0343C9.32718 30.6528 8.95275 30.1829 8.68144 29.6526C8.41012 29.1222 8.24746 28.5423 8.20314 27.9474C8.15881 27.3524 8.23374 26.7545 8.42344 26.1893C8.55185 25.8084 8.47624 25.604 8.20861 25.3428C6.54763 23.6897 4.86744 22.0534 3.26405 20.3446C-2.77623 13.9001 -0.0615215 3.24951 8.33703 0.618005C12.7775 -0.772727 16.7932 0.198366 20.2316 3.38375C21.1761 4.26051 22.0474 5.2171 23.0855 6.27284C23.2247 6.05879 23.3111 5.85321 23.4587 5.71292C24.6733 4.55196 25.7906 3.25193 27.1384 2.27479C34.3032 -2.92534 44.4059 1.35328 45.8353 10.1355C45.8881 10.4583 45.9457 10.7812 45.9997 11.1029V13.0923ZM20.9781 16.6888C20.8052 16.8485 20.7476 16.8968 20.696 16.9488C17.6685 19.9988 14.6413 23.0491 11.6146 26.0999C11.4864 26.2269 11.3662 26.3618 11.2546 26.5038C11.0707 26.7386 10.9491 27.0167 10.9012 27.3119C10.8534 27.6072 10.8809 27.9098 10.9811 28.1914C11.0813 28.4729 11.251 28.7242 11.4741 28.9215C11.6973 29.1188 11.9666 29.2556 12.2567 29.3191C12.9539 29.4775 13.5132 29.232 14.0005 28.7386C15.4406 27.2874 16.8712 25.8302 18.321 24.385C19.1202 23.5905 20.3612 23.917 20.6252 24.9788C20.762 25.5303 20.5532 25.9765 20.1656 26.3647C18.7134 27.8231 17.2576 29.2792 15.8187 30.7509C15.0986 31.4911 15.0986 32.5649 15.7875 33.2688C16.4763 33.9726 17.5637 33.9811 18.3198 33.2446C18.771 32.8056 19.2043 32.3448 19.6567 31.9046C20.0115 31.5855 20.2904 31.1899 20.4728 30.7473C20.7428 30.0459 21.2397 29.4981 21.835 29.0422C22.597 28.4593 23.4743 28.2029 24.4056 28.1352C24.6277 25.5242 26.4183 23.8251 28.8185 23.6739C28.8281 23.6195 28.8437 23.5615 28.8485 23.5034C29.043 21.5818 30.0031 20.2056 31.8033 19.5549C33.6035 18.9043 35.1901 19.3445 36.539 20.6869C36.8787 21.0243 37.1955 21.3835 37.5303 21.7426C38.6273 20.6458 39.6906 19.6299 40.6987 18.5609C42.7029 16.4373 43.5586 13.8965 43.225 10.982C42.4965 4.56768 35.6197 0.846569 29.8831 3.72962C27.8548 4.74908 26.5383 6.56429 24.9109 8.06024C25.0105 8.17391 25.0753 8.25494 25.1509 8.32871C26.0666 9.2611 27.0183 10.1608 27.892 11.1319C28.6397 11.994 29.031 13.112 28.9854 14.256C28.9398 15.3999 28.4608 16.4828 27.647 17.2816C26.8331 18.0805 25.7463 18.5346 24.6103 18.5505C23.4742 18.5665 22.3753 18.143 21.5397 17.3673C21.3381 17.1537 21.1505 16.927 20.9781 16.6888ZM10.4049 23.5336C10.4874 23.4228 10.576 23.3167 10.6701 23.2156C13.696 20.1632 16.7228 17.1125 19.7503 14.0634C20.5568 13.2519 21.2529 13.2567 22.0654 14.0755C22.4674 14.4818 22.8635 14.8918 23.2655 15.2945C24.036 16.06 25.0729 16.0987 25.7918 15.396C26.5107 14.6934 26.5119 13.582 25.7594 12.8093C23.3039 10.3132 20.8616 7.80386 18.3642 5.35133C16.3419 3.36319 13.8517 2.50094 11.0565 2.81173C7.42853 3.20598 4.79303 5.14937 3.41167 8.55727C2.01711 11.999 2.51037 15.3078 4.94064 18.111C6.60043 20.0254 8.53505 21.693 10.4049 23.5276V23.5336ZM37.0683 29.5283L37.1295 29.4074C37.4759 29.4169 37.8171 29.3201 38.1077 29.1298C38.3983 28.9395 38.6247 28.6648 38.7569 28.342C39.0557 27.6164 38.9249 26.9403 38.3812 26.384C37.1235 25.0941 35.8549 23.8146 34.5756 22.5456C33.8435 21.82 32.7754 21.8079 32.0769 22.4936C31.3784 23.1793 31.3424 24.2871 32.0769 25.0417C33.3347 26.3333 34.5972 27.6212 35.8933 28.8692C36.2066 29.1703 36.6722 29.3094 37.0683 29.5223V29.5283ZM32.5078 33.8626C33.5051 33.8239 34.0535 33.478 34.3524 32.7959C34.6692 32.0703 34.5408 31.3943 33.9923 30.8356C32.725 29.5344 31.4448 28.2444 30.1519 26.9657C29.9905 26.7966 29.7971 26.6618 29.583 26.5693C29.369 26.4769 29.1388 26.4286 28.9059 26.4273C28.6731 26.4261 28.4424 26.4719 28.2274 26.5621C28.0124 26.6523 27.8176 26.785 27.6544 26.9524C26.9595 27.6538 26.9463 28.7289 27.6652 29.4678C28.9326 30.7703 30.2035 32.0703 31.514 33.328C31.8285 33.6195 32.3001 33.7501 32.5042 33.8613L32.5078 33.8626ZM28.2629 38.3891L28.3253 38.2682C28.6716 38.2789 29.0131 38.1833 29.3043 37.9941C29.5956 37.8049 29.8229 37.5311 29.9563 37.2088C30.2539 36.4832 30.1315 35.8072 29.5866 35.2497C28.3169 33.95 27.0367 32.6601 25.7462 31.3798C25.5839 31.2115 25.3898 31.0778 25.1753 30.9865C24.9608 30.8951 24.7303 30.8481 24.4975 30.8481C24.2646 30.8481 24.0341 30.8951 23.8196 30.9865C23.6051 31.0778 23.411 31.2115 23.2487 31.3798C22.5574 32.0836 22.5538 33.1563 23.2739 33.894C24.5329 35.1831 25.7942 36.4735 27.0903 37.7215C27.4048 38.0311 27.868 38.1738 28.2629 38.3891ZM22.9535 37.4748L20.5292 34.8857C19.5631 35.7322 19.3975 36.7867 20.1128 37.6187C20.8448 38.4701 21.8734 38.423 22.9535 37.4748Z" fill="#1877F1"/>
</g>
<defs>
<clipPath id="clip0_13_392">
<rect width="46" height="41" fill="white"/>
</clipPath>
</defs>
</svg>
