<svg width="46" height="46" viewBox="0 0 46 46" fill="none" xmlns="http://www.w3.org/2000/svg">
<g clip-path="url(#clip0_13_381)">
<path d="M0 34.3239C0.0899984 33.9639 0.171597 33.6038 0.272395 33.2438C0.700284 31.7646 1.62229 30.4769 2.88464 29.5954C4.14699 28.7138 5.67337 28.2918 7.20922 28.3996C8.74506 28.5074 10.1975 29.1386 11.3244 30.1879C12.4512 31.2371 13.1843 32.6411 13.4014 34.1655C13.9078 37.8259 11.3998 41.2619 7.83586 41.7768C4.06193 42.3216 0.681588 39.8818 0.0839985 36.1841C0.0628648 36.0999 0.0347685 36.0176 0 35.9381L0 34.3239ZM6.74508 31.0836C5.94742 31.0824 5.16727 31.3174 4.50294 31.759C3.83861 32.2006 3.31983 32.8289 3.01198 33.5649C2.70413 34.3008 2.62098 35.1115 2.77302 35.8946C2.92505 36.6778 3.30547 37.3984 3.86632 37.9656C4.42718 38.5329 5.14337 38.9214 5.92465 39.0823C6.70593 39.2431 7.51734 39.1691 8.25662 38.8695C8.99589 38.5699 9.62996 38.0581 10.0789 37.3987C10.5279 36.7393 10.7716 35.9617 10.7794 35.164C10.7842 34.6307 10.6834 34.1017 10.4829 33.6074C10.2824 33.1132 9.98613 32.6635 9.61116 32.2843C9.23619 31.905 8.78992 31.6037 8.29803 31.3976C7.80615 31.1915 7.27837 31.0848 6.74508 31.0836Z" fill="#1877F1"/>
<path d="M21.6536 46C20.828 45.88 19.9977 45.7852 19.1781 45.64C17.3395 45.2979 15.5607 44.689 13.8982 43.8325C14.3026 43.0333 14.6961 42.2556 15.0981 41.4551C20.3661 43.9334 25.6124 43.9406 30.9031 41.4611C31.1011 41.8439 31.3063 42.2376 31.5031 42.6336C31.6999 43.0297 31.8906 43.4053 32.127 43.877C31.2667 44.2274 30.4471 44.603 29.5903 44.9043C28.0107 45.4635 26.3632 45.8086 24.692 45.9304C24.5755 45.9469 24.4604 45.9717 24.3476 46.0048L21.6536 46Z" fill="#1877F1"/>
<path d="M46 35.1484C45.9962 36.4811 45.5973 37.7828 44.8539 38.8888C44.1104 39.9949 43.0557 40.8556 41.8231 41.3622C40.5906 41.8687 39.2355 41.9984 37.9293 41.7347C36.623 41.4711 35.4243 40.826 34.4846 39.881C33.5449 38.936 32.9066 37.7336 32.6502 36.4257C32.3938 35.1179 32.5309 33.7634 33.0442 32.5334C33.5575 31.3035 34.4239 30.2535 35.5339 29.516C36.6439 28.7786 37.9476 28.3868 39.2801 28.3904C41.0672 28.3955 42.7791 29.1103 44.0393 30.3776C45.2995 31.645 46.0048 33.361 46 35.1484ZM43.3036 35.1268C43.3036 34.3263 43.066 33.5438 42.6207 32.8785C42.1755 32.2133 41.5428 31.6952 40.8029 31.39C40.0629 31.0849 39.249 31.0063 38.4643 31.1643C37.6797 31.3223 36.9596 31.7098 36.3954 32.2776C35.8312 32.8454 35.4483 33.568 35.2952 34.3538C35.1421 35.1395 35.2258 35.953 35.5355 36.6911C35.8453 37.4293 36.3672 38.0588 37.0351 38.4999C37.7031 38.941 38.4869 39.1738 39.2873 39.1688C40.3544 39.1609 41.3752 38.7317 42.1274 37.9747C42.8797 37.2176 43.3024 36.1941 43.3036 35.1268Z" fill="#1877F1"/>
<path d="M22.9808 13.4763C21.6483 13.4722 20.3469 13.0731 19.2411 12.3294C18.1354 11.5857 17.275 10.5308 16.7687 9.29804C16.2624 8.0653 16.1329 6.71008 16.3966 5.40375C16.6604 4.09742 17.3055 2.89863 18.2504 1.95896C19.1953 1.01929 20.3976 0.380937 21.7053 0.124606C23.0129 -0.131725 24.3672 0.00548131 25.5969 0.518876C26.8265 1.03227 27.8764 1.8988 28.6137 3.0089C29.351 4.119 29.7426 5.42282 29.7391 6.75552C29.7302 8.54189 29.0141 10.252 27.7475 11.5116C26.4809 12.7711 24.767 13.4776 22.9808 13.4763ZM27.0427 6.73871C27.0432 5.9399 26.8071 5.15886 26.3641 4.49414C25.9212 3.82941 25.2913 3.3108 24.554 3.00375C23.8166 2.6967 23.0049 2.61497 22.2211 2.76887C21.4374 2.92277 20.7168 3.3054 20.1503 3.86849C19.5837 4.43157 19.1967 5.14987 19.0379 5.93274C18.8792 6.71562 18.9559 7.52798 19.2583 8.26731C19.5607 9.00664 20.0753 9.63982 20.7372 10.0869C21.399 10.534 22.1785 10.7751 22.9772 10.7796C23.5095 10.7815 24.037 10.6784 24.5294 10.4763C25.0219 10.2742 25.4697 9.97706 25.8473 9.60178C26.2248 9.22651 26.5248 8.78049 26.7299 8.28923C26.935 7.79797 27.0413 7.27109 27.0427 6.73871Z" fill="#1877F1"/>
<path d="M5.4827 24.7121L2.86554 24.5669C2.52715 19.3547 6.82548 11.8814 11.9362 8.7959L13.393 11.0125C8.62784 14.3345 5.98189 18.8782 5.4827 24.7121Z" fill="#1877F1"/>
<path d="M43.1321 24.568L40.5209 24.7228C40.0265 18.913 37.395 14.3621 32.6094 11.0185L34.0494 8.81982C38.6933 11.1157 43.5292 19.4938 43.1321 24.568Z" fill="#1877F1"/>
</g>
<defs>
<clipPath id="clip0_13_381">
<rect width="46" height="46" fill="white"/>
</clipPath>
</defs>
</svg>
