<svg width="174" height="51" viewBox="0 0 174 51" fill="none" xmlns="http://www.w3.org/2000/svg">
<path d="M173.992 22.0347C173.562 23.0726 173.229 24.1467 172.857 25.2097C170.473 32.0408 168.097 38.8747 165.726 45.7114C165.717 45.7673 165.697 45.8208 165.667 45.8687C165.637 45.9166 165.597 45.958 165.551 45.9903C165.504 46.0227 165.452 46.0454 165.396 46.057C165.341 46.0687 165.284 46.0691 165.228 46.0583C164.816 46.0345 164.402 46.0345 163.989 46.0583C163.693 46.0751 163.625 46.0079 163.709 45.7114C164.244 44.0918 164.756 42.4637 165.276 40.8413C166.022 38.5064 166.773 36.1753 167.531 33.8479C167.603 33.6267 167.595 33.3869 167.508 33.171C166.18 29.5587 164.856 25.9473 163.536 22.3369C163.399 21.9592 163.396 21.9592 163.793 21.9592C164.191 21.9592 164.632 21.9816 165.033 21.9592C165.312 21.9396 165.419 22.0515 165.505 22.2977C166.535 25.2088 167.571 28.118 168.613 31.0254C168.632 31.1551 168.693 31.275 168.787 31.3667L170.082 27.8168C170.755 25.965 171.428 24.1104 172.101 22.2529C172.177 22.0431 172.264 21.948 172.501 21.9732C172.994 21.9984 173.486 21.99 173.978 21.9984L173.992 22.0347Z" fill="#1877F1"/>
<path d="M30.8777 0.000108074C35.5101 0.0420682 39.9802 1.22814 43.9525 4.01988C46.4209 5.73883 48.4543 8.00982 49.8912 10.6524C50.5391 11.7757 51.0109 12.9917 51.2899 14.2581C51.3184 14.4348 51.3315 14.6135 51.329 14.7924C51.329 14.9631 51.2955 15.1365 51.0969 15.1925C50.8983 15.2484 50.778 15.1197 50.6801 14.9771C50.5203 14.7349 50.3915 14.4736 50.2968 14.1994C49.9379 13.1781 49.5051 12.1842 49.0017 11.2258C47.0369 7.75295 44.0047 5.00619 40.3551 3.39328C37.3442 2.04447 34.0661 1.39784 30.7686 1.50228C25.2327 1.62816 20.1975 3.35692 15.607 6.38364C10.2361 9.92787 6.28908 14.6666 3.91414 20.6752C3.08351 22.821 2.55079 25.0705 2.33085 27.3609C2.27665 27.9601 2.12055 28.5457 1.86929 29.0924C1.78537 29.2882 1.66693 29.4673 1.51962 29.6211C1.46665 29.692 1.39764 29.7493 1.31824 29.7883C1.23885 29.8273 1.15133 29.8469 1.06288 29.8456C0.974425 29.8442 0.887557 29.8219 0.809402 29.7804C0.731247 29.739 0.664035 29.6796 0.613281 29.6071C0.279845 29.1838 0.0845437 28.6682 0.0538131 28.1302C-0.108433 26.9888 0.126544 25.8923 0.355926 24.7733C1.6455 18.6108 4.72817 13.4273 9.22909 9.07468C13.4762 4.89949 18.8047 1.99303 24.6145 0.682659C26.6704 0.223221 28.7711 -0.00570777 30.8777 0.000108074Z" fill="#1877F1"/>
<path d="M22.2115 50.2319C17.7861 50.1956 13.5593 49.1438 9.72978 46.7017C6.81359 44.8574 4.43898 42.2723 2.84832 39.2104C2.25743 38.133 1.82499 36.9761 1.56435 35.7753C1.51548 35.5342 1.50135 35.2874 1.52239 35.0424C1.53917 34.8885 1.58952 34.7626 1.75456 34.7095C1.82669 34.6939 1.90193 34.7021 1.96901 34.7328C2.03608 34.7636 2.09138 34.8153 2.12661 34.8801C2.30342 35.1386 2.44192 35.4212 2.53782 35.7193C2.87661 36.7475 3.29177 37.749 3.77984 38.7153C5.62362 42.0967 8.47596 44.819 11.9397 46.5031C14.4083 47.7253 17.0917 48.4541 19.8394 48.6486C24.9669 49.0431 29.7923 47.9269 34.352 45.6359C40.0604 42.8209 44.7447 38.2901 47.7484 32.6786C49.2935 29.8639 50.2831 26.7784 50.6632 23.5901C50.7225 22.9196 50.9006 22.2651 51.1891 21.6571C51.3738 21.2906 51.5528 20.8515 52.0507 20.8822C52.5487 20.913 52.7165 21.3718 52.8452 21.7746C53.1037 22.7149 53.1267 23.7045 52.9123 24.6558C51.6843 31.4897 48.2911 37.1068 43.2307 41.7672C39.1487 45.5583 34.1469 48.2169 28.7209 49.4794C26.5871 49.9788 24.403 50.2313 22.2115 50.2319Z" fill="#1877F1"/>
<path d="M113.321 23.9649C114.395 23.9649 115.469 23.9649 116.541 23.9649C116.778 23.9649 116.848 24.0209 116.82 24.2614C116.664 25.8727 116.521 27.484 116.376 29.098C116.325 29.6407 116.269 30.1862 116.219 30.7289C116.127 32.0084 115.616 33.2221 114.766 34.1826C113.915 35.1432 112.773 35.7972 111.514 36.0438C107.701 36.8606 103.961 35.02 102.118 31.403C101.138 29.4305 100.761 27.2134 101.032 25.0279C101.269 22.4124 102.238 19.9167 103.83 17.8275C105.541 15.5897 107.746 14.1379 110.563 13.6931C112.339 13.4191 114.154 13.5784 115.855 14.1574C116.051 14.2218 116.384 14.2693 116.339 14.5127C116.308 14.6917 115.976 14.6526 115.78 14.6554C113.928 14.6861 112.087 14.8288 110.353 15.5365C106.716 17.0163 104.168 19.5507 103.186 23.3887C102.369 26.5804 103.094 29.5428 105.22 32.0744C106.842 33.999 109.01 34.5612 111.438 33.9318C112.023 33.7824 112.558 33.4832 112.992 33.0638C113.425 32.6444 113.742 32.1193 113.911 31.5401C114.569 29.7421 114.854 27.8292 114.75 25.9175C114.736 25.6937 114.666 25.6377 114.457 25.6377C112.991 25.6741 111.528 25.6937 110.062 25.7328C109.805 25.7328 109.701 25.6853 109.718 25.4083C109.74 25.0516 109.74 24.6937 109.718 24.337C109.704 24.0908 109.771 24.0069 110.028 24.0097C111.125 24.0097 112.222 24.0097 113.315 24.0097L113.321 23.9649Z" fill="#1877F1"/>
<path d="M152.937 14.826C151.34 14.826 149.739 14.826 148.139 14.826C147.86 14.826 147.756 14.8819 147.711 15.1701C147.338 17.6187 146.945 20.0635 146.531 22.5047C146.483 22.7844 146.578 22.8068 146.811 22.804C148.979 22.804 151.149 22.804 153.317 22.804C153.625 22.804 153.698 22.8935 153.684 23.1789C153.659 23.66 153.661 24.1411 153.684 24.6195C153.684 24.8768 153.628 24.9608 153.356 24.9552C151.144 24.9048 148.928 24.8712 146.716 24.8349C145.929 24.8349 145.927 24.8181 145.795 25.5958C145.264 28.7288 144.729 31.8618 144.212 35.0004C144.173 35.2382 144.08 35.2801 143.868 35.2801C143.308 35.2801 142.749 35.2634 142.189 35.2801C141.938 35.2801 141.868 35.2354 141.91 34.9724C142.114 33.8059 142.299 32.6395 142.489 31.473C142.944 28.6421 143.401 25.8121 143.859 22.983C144.341 20.0085 144.824 17.0359 145.308 14.0651C145.356 13.7686 145.429 13.4721 145.448 13.1728C145.465 12.9294 145.58 12.893 145.792 12.893C149.794 12.893 153.797 12.893 157.801 12.893C158.081 12.893 158.143 12.977 158.134 13.2343C158.115 13.6679 158.115 14.1071 158.134 14.5407C158.134 14.7756 158.067 14.84 157.832 14.84C156.201 14.84 154.568 14.84 152.934 14.84L152.937 14.826Z" fill="#1877F1"/>
<path d="M61.8191 25.344C61.9618 20.9102 63.6541 17.2821 67.4138 14.7673C69.0261 13.6348 70.938 13.006 72.9077 12.9602C75.2184 12.9406 77.3415 13.4777 79.0339 15.1729C79.6372 15.7887 80.1126 16.5179 80.4326 17.3184C80.4997 17.4807 80.5473 17.6541 80.6004 17.8248C80.6312 17.9199 80.6732 18.0485 80.6004 18.1045C80.5277 18.1604 80.4186 18.0569 80.3487 17.9982C80.2116 17.8807 80.0857 17.7548 79.9542 17.6317C78.8983 16.5945 77.6366 15.7902 76.2506 15.2708C74.3288 14.6162 72.3958 14.8008 70.5384 15.503C66.8739 16.8849 64.7535 19.5899 64.0038 23.3943C63.6512 24.9624 63.6732 26.5917 64.0682 28.1497C64.5474 29.9517 65.6344 31.5328 67.1452 32.6255C68.7957 33.8423 70.5971 33.985 72.4602 33.1849C74.1119 32.4706 75.6235 31.4685 76.9247 30.2254C77.1849 29.9792 77.459 29.7498 77.736 29.5232C77.8059 29.4617 77.9038 29.3694 78.0017 29.4505C78.0996 29.5316 78.0576 29.6407 78.0269 29.7302C77.9527 29.9519 77.8668 30.1695 77.7695 30.382C76.189 33.6605 73.5735 35.462 69.937 35.6662C67.4417 35.8061 65.4808 34.6815 63.9926 32.6926C62.7511 31.0391 62.0295 29.0536 61.9198 26.9888C61.8806 26.4462 61.8471 25.9007 61.8191 25.344Z" fill="#1877F1"/>
<path d="M11.9117 25.1146C11.853 19.7997 15.0476 15.0442 19.8898 13.3015C22.5948 12.3252 25.2523 12.4622 27.7839 13.8609C29.1253 14.6343 30.1358 15.8738 30.6231 17.3436C30.6791 17.4975 30.8218 17.7268 30.6595 17.8331C30.4973 17.9394 30.3798 17.6961 30.2679 17.587C29.6475 17.0076 28.9845 16.4755 28.2846 15.9953C26.2873 14.5966 24.0886 14.3421 21.7864 14.8764C19.8192 15.3286 18.0325 16.3595 16.6565 17.8362C15.2804 19.313 14.3781 21.1679 14.0657 23.1621C13.786 24.9048 13.7076 26.628 14.2839 28.3232C14.7955 29.8779 15.7634 31.2426 17.0616 32.2394C17.7898 32.8472 18.6734 33.2391 19.6126 33.3711C20.5518 33.5031 21.5092 33.3698 22.3766 32.9863C24.0543 32.2949 25.589 31.298 26.9027 30.0463C27.1824 29.7946 27.4622 29.5512 27.7419 29.3134C27.8314 29.2379 27.9405 29.1092 28.0608 29.1847C28.1811 29.2603 28.1279 29.4225 28.0832 29.5456C27.8077 30.3384 27.4114 31.0838 26.9083 31.7555C25.1739 34.0157 22.8913 35.2773 20.0604 35.4116C17.5204 35.5319 15.5371 34.4242 14.0321 32.3989C12.8129 30.758 12.1028 28.795 11.9901 26.7539C11.9509 26.2056 11.9201 25.6601 11.9117 25.1146Z" fill="#1877F1"/>
<path d="M78.6423 31.0785C79.2689 31.5625 79.8451 32.0045 80.4214 32.4436C81.436 33.2256 82.6901 33.6321 83.9705 33.594C85.2509 33.556 86.4786 33.0757 87.445 32.2349C88.4114 31.3941 89.0568 30.2446 89.2716 28.9817C89.4864 27.7189 89.2573 26.4206 88.6232 25.3076C88.0413 24.2446 87.0707 23.7943 85.8902 23.7103C85.0517 23.6425 84.2085 23.7554 83.4175 24.0416C82.6265 24.3278 81.9062 24.7805 81.3053 25.3692C80.649 25.9804 80.027 26.6276 79.4423 27.3077C79.3172 27.465 79.1837 27.6153 79.0423 27.7581C78.8996 27.8952 78.7626 28.1889 78.5555 28.0686C78.3485 27.9483 78.4716 27.6714 78.508 27.4728C78.6683 26.5559 79.0635 25.6962 79.6549 24.9775C80.9249 23.467 82.4522 22.348 84.4272 21.962C87.5518 21.355 90.0358 22.8851 90.8303 25.9762C91.4597 28.4295 90.7519 30.5946 89.177 32.4912C88.5151 33.3367 87.658 34.0089 86.6792 34.4504C85.7004 34.8918 84.6291 35.0892 83.5572 35.0256C82.5865 34.9864 81.6158 34.8745 80.7599 34.3542C79.722 33.7276 78.8996 32.4716 78.6423 31.0785Z" fill="#1877F1"/>
<path d="M28.6818 30.8296C29.3867 31.2883 29.949 31.8031 30.5672 32.2283C34.3604 34.8885 38.8137 32.4157 39.3592 28.6309C39.528 27.4496 39.3247 26.245 38.7774 25.1846C38.1955 24.0181 37.1913 23.5201 35.9297 23.4334C35.0913 23.3706 34.2492 23.4879 33.4598 23.7774C32.6705 24.0668 31.9522 24.5218 31.3532 25.1118C30.7097 25.7166 30.0999 26.3563 29.5266 27.028C29.3951 27.1791 29.272 27.3413 29.1266 27.4784C28.9811 27.6154 28.8468 27.9092 28.6398 27.7917C28.4328 27.6742 28.5531 27.3945 28.5923 27.1958C28.6969 26.5204 28.9439 25.8749 29.3168 25.302C30.584 23.4586 32.2428 22.1494 34.4779 21.6907C37.6053 21.0473 40.1145 22.597 40.9117 25.6993C41.5383 28.1274 40.8446 30.2757 39.3005 32.1639C38.637 33.0229 37.7742 33.7073 36.7866 34.1576C35.7991 34.608 34.7167 34.8109 33.6331 34.7487C33.0674 34.7298 32.5051 34.6539 31.9547 34.5221C31.4043 34.3886 30.8885 34.1401 30.441 33.793C29.9936 33.4459 29.6247 33.0079 29.3587 32.508C29.069 31.9766 28.8418 31.4133 28.6818 30.8296Z" fill="#1877F1"/>
<path d="M118.269 31.3667C118.969 31.8226 119.523 32.3262 120.132 32.7653C123.898 35.4452 128.348 33.0199 128.944 29.2631C129.138 28.0277 128.921 26.7628 128.326 25.6629C127.73 24.5216 126.706 24.0684 125.464 23.9845C123.623 23.8698 122.107 24.544 120.804 25.8C120.079 26.4853 119.43 27.2378 118.773 27.9819C118.622 28.1525 118.462 28.4602 118.241 28.3539C118.02 28.2476 118.152 27.926 118.194 27.705C118.38 26.7236 118.829 25.8111 119.492 25.0643C120.784 23.5985 122.323 22.5718 124.284 22.2026C126.924 21.7047 129.26 22.9383 130.234 25.4559C131.266 28.1078 130.653 30.5079 128.947 32.6618C128.275 33.5569 127.389 34.2686 126.371 34.7315C125.352 35.1944 124.233 35.3937 123.117 35.3109C122.581 35.2868 122.048 35.2119 121.525 35.0871C120.943 34.942 120.4 34.6695 119.936 34.2893C119.472 33.9091 119.097 33.4307 118.84 32.8884C118.604 32.3995 118.413 31.8902 118.269 31.3667Z" fill="#1877F1"/>
<path d="M156.554 35.2466C156.834 33.7248 157.113 32.2366 157.376 30.7457C158.059 27.0327 158.742 23.3113 159.427 19.5815C159.706 18.1241 159.967 16.6666 160.227 15.2092C160.255 15.0442 160.305 14.9771 160.478 14.9827C160.823 14.9827 161.169 14.9827 161.516 14.9827C161.69 14.9827 161.72 15.0414 161.698 15.198C161.351 17.4135 161.009 19.6281 160.671 21.8417L159.497 29.5148C159.217 31.3219 158.937 33.129 158.671 34.9361C158.638 35.1683 158.559 35.2466 158.316 35.2382C157.737 35.227 157.155 35.2466 156.554 35.2466Z" fill="#1877F1"/>
</svg>
