<svg width="16" height="17" viewBox="0 0 16 17" fill="none" xmlns="http://www.w3.org/2000/svg">
<path d="M5.5 7.38129C7.43 7.38129 9 8.94903 9 10.8762C9 12.8035 7.43 14.3712 5.5 14.3712C3.57 14.3712 2 12.8035 2 10.8762C2 8.94903 3.57 7.38129 5.5 7.38129ZM5.5 5.38416C2.46 5.38416 0 7.84062 0 10.8762C0 13.9119 2.46 16.3683 5.5 16.3683C8.54 16.3683 11 13.9119 11 10.8762C11 9.71792 10.64 8.64946 10.03 7.76074L14 3.80644V6.38272H16V0.391357H10V2.38848H12.58L8.61 6.35277C7.73 5.74365 6.66 5.38416 5.5 5.38416Z" fill="#1877F2"/>
</svg>
