<svg width="15" height="17" viewBox="0 0 15 17" fill="none" xmlns="http://www.w3.org/2000/svg">
<path d="M8.70904 16.5151C8.80079 16.5151 8.89253 16.5015 8.98427 16.4745C9.07602 16.4474 9.15465 16.4 9.22018 16.3324C11.1599 14.5594 12.6081 12.9218 13.5649 11.4195C14.5216 9.9172 15 8.50966 15 7.19685C15 5.16674 14.3675 3.54942 13.1025 2.34489C11.838 1.14035 10.3735 0.538086 8.70904 0.538086C7.04456 0.538086 5.58008 1.14035 4.3156 2.34489C3.05059 3.54942 2.41809 5.16674 2.41809 7.19685L1.31717 6.05999C1.173 5.91112 0.989515 5.83668 0.76671 5.83668C0.543906 5.83668 0.36042 5.91112 0.216253 6.05999C0.0720854 6.20886 0 6.39834 0 6.62842C0 6.8585 0.0720854 7.04798 0.216253 7.19685L2.654 9.71419C2.73263 9.7954 2.81783 9.85278 2.90957 9.88634C3.00131 9.92045 3.09961 9.9375 3.20446 9.9375C3.30931 9.9375 3.4076 9.92045 3.49934 9.88634C3.59109 9.85278 3.67628 9.7954 3.75492 9.71419L6.19266 7.19685C6.33683 7.04798 6.40891 6.8585 6.40891 6.62842C6.40891 6.39834 6.33683 6.20886 6.19266 6.05999C6.04849 5.91112 5.86501 5.83668 5.6422 5.83668C5.4194 5.83668 5.23591 5.91112 5.09174 6.05999L3.99083 7.19685C3.99083 5.72164 4.4464 4.51359 5.35754 3.5727C6.26815 2.63235 7.38532 2.16218 8.70904 2.16218C10.0328 2.16218 11.1502 2.63235 12.0613 3.5727C12.972 4.51359 13.4273 5.72164 13.4273 7.19685C13.4273 8.15777 13.0406 9.25728 12.2674 10.4954C11.4941 11.734 10.308 13.1112 8.70904 14.6271C8.44692 14.3834 8.20446 14.1466 7.98165 13.9165L7.31324 13.2263C7.37877 13.0909 7.43119 12.9453 7.47051 12.7894C7.50983 12.634 7.52949 12.4751 7.52949 12.3127C7.52949 11.7443 7.33945 11.2638 6.95937 10.8714C6.57929 10.4789 6.11402 10.2826 5.56357 10.2826C5.01311 10.2826 4.54784 10.4789 4.16776 10.8714C3.78768 11.2638 3.59764 11.7443 3.59764 12.3127C3.59764 12.8812 3.78768 13.3616 4.16776 13.7541C4.54784 14.1466 5.01311 14.3428 5.56357 14.3428C5.66841 14.3428 5.7633 14.3361 5.84823 14.3225C5.93368 14.309 6.02228 14.2887 6.11402 14.2616C6.41547 14.6 6.73997 14.9419 7.08755 15.2873C7.4346 15.6321 7.80472 15.9805 8.1979 16.3324C8.26343 16.4 8.33866 16.4474 8.42359 16.4745C8.50904 16.5015 8.60419 16.5151 8.70904 16.5151Z" fill="#1877F2"/>
</svg>
