<svg id="Layer_1" data-name="Layer 1" xmlns="http://www.w3.org/2000/svg" viewBox="0 0 409.02 409.02"><defs><style>.cls-1{fill:#1877f1;}.cls-2{fill:#797979;}.cls-3{fill:#fff;}</style></defs><path class="cls-1" d="M409,193.52v4a6.13,6.13,0,0,0,0,4.79v4.79a6.13,6.13,0,0,0,0,4.79v4a1,1,0,0,0,0,1.6v4c-1.13,6.25-.92,12.62-2,18.9a202.33,202.33,0,0,1-44.6,95.83A205.47,205.47,0,0,1,299.49,387a199.45,199.45,0,0,1-66.62,21.06c-4.3.57-8.7.2-13,.94h-2.39a1,1,0,0,0-1.6,0h-4.79a4.33,4.33,0,0,0-4,0h-4.78a6.13,6.13,0,0,0-4.79,0h-4a1,1,0,0,0-1.6,0h-4c-10-.92-20-2-29.85-4.27A206.53,206.53,0,0,1,22.43,299.53C9.49,274.31,1.28,247.66.35,219.05c-.55-16.88-.82-33.73,2.17-50.44A206.27,206.27,0,0,1,109.9,22.41C135.12,9.46,161.78,1.28,190.39.34c16.88-.55,33.72-.8,50.44,2.19a201.67,201.67,0,0,1,95.1,44.25A205.62,205.62,0,0,1,387,109.92a198.9,198.9,0,0,1,21,66.61c.53,4,.15,8.17.94,12.2v3.2A1,1,0,0,0,409,193.52Z"/><path class="cls-1" d="M409,202.3a3.6,3.6,0,0,1,0-4.79Z"/><path class="cls-1" d="M409,211.88a3.6,3.6,0,0,1,0-4.79Z"/><path class="cls-1" d="M197.52,409a3.59,3.59,0,0,1,4.79,0Z"/><path class="cls-1" d="M207.09,409a2.71,2.71,0,0,1,4,0Z"/><path class="cls-2" d="M409,193.52c-1-.53-1.19-1.06,0-1.59Z"/><path class="cls-2" d="M409,217.47c-1.19-.53-1-1.07,0-1.6Z"/><path class="cls-2" d="M191.93,409c.53-1.19,1.06-1,1.6,0Z"/><path class="cls-2" d="M215.87,409c.54-1,1.07-1.19,1.6,0Z"/><path class="cls-1" d="M384.34,204.55c.13,99.1-80.43,179.75-179.6,179.79S25,303.77,25.06,204.64,105.37,25.27,204.46,25.05,384.22,105.36,384.34,204.55Z"/><path class="cls-3" d="M204.24,216.94q-54.44,0-108.87,0a26.4,26.4,0,0,1-6.72-.55c-5.64-1.5-9.13-7.15-8.49-13.23a11.93,11.93,0,0,1,10.75-10.52,47.71,47.71,0,0,1,4.78-.16q109.07,0,218.14,0c2.51,0,5.05-.16,7.49.73a12.24,12.24,0,0,1,7.91,13.26,12,12,0,0,1-10.94,10.34c-1.59.15-3.19.15-4.78.15Z"/><path class="cls-3" d="M204.74,149.36q-46.89,0-93.76,0c-8.25,0-13.09-3.55-14.36-10.34a12.24,12.24,0,0,1,10.3-14.12,30.61,30.61,0,0,1,3.59-.13q94.16,0,188.31,0c7.75,0,12.51,3.42,13.87,9.84a12,12,0,0,1-9.44,14.31,32.91,32.91,0,0,1-5.95.43Q251,149.37,204.74,149.36Z"/><path class="cls-3" d="M204.7,284.64q-47.28,0-94.55,0c-7.39,0-12.12-3.54-13.45-9.87a12,12,0,0,1,9.48-14.29,28.74,28.74,0,0,1,5.16-.41q93.36,0,186.71,0c8.44,0,13.25,3.31,14.65,10a12.14,12.14,0,0,1-10.65,14.5c-1.59.15-3.19.11-4.79.11Z"/></svg>