<svg width="32" height="21" viewBox="0 0 32 21" fill="none" xmlns="http://www.w3.org/2000/svg">
<path d="M1.75 12.25C2.7165 12.25 3.5 11.4665 3.5 10.5C3.5 9.5335 2.7165 8.75 1.75 8.75C0.783502 8.75 0 9.5335 0 10.5C0 11.4665 0.783502 12.25 1.75 12.25Z" fill="#1877F1"/>
<path d="M29.855 8.75H8.645C7.73649 8.75 7 9.48649 7 10.395V10.605C7 11.5135 7.73649 12.25 8.645 12.25H29.855C30.7635 12.25 31.5 11.5135 31.5 10.605V10.395C31.5 9.48649 30.7635 8.75 29.855 8.75Z" fill="#1877F1"/>
<path d="M29.855 17.5H1.645C0.736492 17.5 0 18.2365 0 19.145V19.355C0 20.2635 0.736492 21 1.645 21H29.855C30.7635 21 31.5 20.2635 31.5 19.355V19.145C31.5 18.2365 30.7635 17.5 29.855 17.5Z" fill="#1877F1"/>
<path d="M29.855 0H1.645C0.736492 0 0 0.736492 0 1.645V1.855C0 2.76351 0.736492 3.5 1.645 3.5H29.855C30.7635 3.5 31.5 2.76351 31.5 1.855V1.645C31.5 0.736492 30.7635 0 29.855 0Z" fill="#1877F1"/>
</svg>
