<svg width="20" height="19" viewBox="0 0 20 19" fill="none" xmlns="http://www.w3.org/2000/svg">
<path d="M11.233 15.1722C14.4487 15.1722 16.057 15.1722 17.0555 14.1742C18.0549 13.1771 18.0549 11.5711 18.0549 8.36001C18.0549 5.14893 18.0549 3.54296 17.0555 2.54583C16.057 1.54785 14.4487 1.54785 11.233 1.54785H7.82198C4.60627 1.54785 2.99799 1.54785 1.99942 2.54583C1 3.54296 1 5.14893 1 8.36001C1 11.5711 1 13.1771 1.99942 14.1742C2.55626 14.7311 3.30242 14.9772 4.41099 15.0853" stroke="#52DD4F" stroke-width="2" stroke-linecap="round" stroke-linejoin="round"/>
<path d="M9.5275 8.35999V8.3685M6.11651 8.35999V8.3685M12.9385 8.35999V8.3685M11.233 15.1721C10.179 15.1721 9.01755 15.5979 7.95759 16.1471C6.2538 17.0302 5.4019 17.4721 4.98235 17.1903C4.5628 16.9092 4.64211 16.0364 4.80157 14.2917L4.83739 13.8949" stroke="#52DD4F" stroke-width="2" stroke-linecap="round"/>
</svg>
