<svg width="26" height="26" viewBox="0 0 26 26" fill="none" xmlns="http://www.w3.org/2000/svg">
<circle cx="12.5605" cy="12.5605" r="12.5605" fill="white"/>
<g clip-path="url(#clip0_192_166)">
<path d="M5.23352 12.5605C5.23352 15.5608 7.03767 18.1382 9.61934 19.2715C9.59873 18.7598 9.61567 18.1456 9.74687 17.589C9.88775 16.9942 10.6896 13.5964 10.6896 13.5964C10.6896 13.5964 10.4556 13.1286 10.4556 12.4372C10.4556 11.3514 11.0849 10.5404 11.8687 10.5404C12.5351 10.5404 12.8571 11.041 12.8571 11.6404C12.8571 12.3104 12.4298 13.3125 12.21 14.2407C12.0265 15.0179 12.5998 15.6519 13.3665 15.6519C14.7547 15.6519 15.6897 13.8689 15.6897 11.7563C15.6897 10.1504 14.6081 8.94846 12.6409 8.94846C10.4183 8.94846 9.0337 10.606 9.0337 12.4574C9.0337 13.0957 9.22191 13.5459 9.5167 13.8945C9.65225 14.0546 9.67108 14.119 9.62203 14.3029C9.58688 14.4377 9.50617 14.7622 9.47274 14.8909C9.42397 15.0764 9.2736 15.1428 9.10588 15.0743C8.08216 14.6563 7.6054 13.5352 7.6054 12.275C7.6054 10.1936 9.36078 7.69789 12.842 7.69789C15.6394 7.69789 17.4806 9.72219 17.4806 11.8952C17.4806 14.7694 15.8826 16.9168 13.5271 16.9168C12.7361 16.9168 11.992 16.4892 11.7371 16.0035C11.7371 16.0035 11.3118 17.6916 11.2217 18.0176C11.0663 18.5826 10.7622 19.1472 10.4842 19.5873C11.1584 19.7866 11.8577 19.8878 12.5608 19.8877C16.6069 19.8877 19.8875 16.6073 19.8875 12.5605C19.8875 8.51388 16.6069 5.2334 12.5608 5.2334C8.51428 5.2334 5.23352 8.51388 5.23352 12.5605Z" fill="#CB1F27"/>
</g>
<defs>
<clipPath id="clip0_192_166">
<rect width="14.6539" height="14.6539" fill="white" transform="translate(5.23352 5.2334)"/>
</clipPath>
</defs>
</svg>
