<svg width="15" height="17" viewBox="0 0 15 17" fill="none" xmlns="http://www.w3.org/2000/svg">
<path d="M6.29096 16.5525C6.19921 16.5525 6.10747 16.539 6.01573 16.5119C5.92398 16.4849 5.84535 16.4375 5.77982 16.3698C3.84011 14.5969 2.39187 12.9592 1.43512 11.457C0.478375 9.95468 0 8.54713 0 7.23433C0 5.20422 0.632503 3.58689 1.89751 2.38236C3.16199 1.17783 4.62647 0.575562 6.29096 0.575562C7.95544 0.575562 9.41992 1.17783 10.6844 2.38236C11.9494 3.58689 12.5819 5.20422 12.5819 7.23433L13.6828 6.09747C13.827 5.94859 14.0105 5.87415 14.2333 5.87415C14.4561 5.87415 14.6396 5.94859 14.7837 6.09747C14.9279 6.24634 15 6.43582 15 6.6659C15 6.89598 14.9279 7.08545 14.7837 7.23433L12.346 9.75167C12.2674 9.83287 12.1822 9.89025 12.0904 9.92382C11.9987 9.95793 11.9004 9.97498 11.7955 9.97498C11.6907 9.97498 11.5924 9.95793 11.5007 9.92382C11.4089 9.89025 11.3237 9.83287 11.2451 9.75167L8.80734 7.23433C8.66317 7.08545 8.59109 6.89598 8.59109 6.6659C8.59109 6.43582 8.66317 6.24634 8.80734 6.09747C8.95151 5.94859 9.13499 5.87415 9.3578 5.87415C9.5806 5.87415 9.76409 5.94859 9.90826 6.09747L11.0092 7.23433C11.0092 5.75911 10.5536 4.55106 9.64246 3.61017C8.73185 2.66982 7.61468 2.19965 6.29096 2.19965C4.96723 2.19965 3.8498 2.66982 2.93866 3.61017C2.02805 4.55106 1.57274 5.75911 1.57274 7.23433C1.57274 8.19525 1.95937 9.29476 2.73263 10.5329C3.5059 11.7715 4.69201 13.1487 6.29096 14.6645C6.55308 14.4209 6.79554 14.1841 7.01835 13.954L7.68676 13.2638C7.62123 13.1284 7.56881 12.9828 7.52949 12.8269C7.49017 12.6715 7.47051 12.5126 7.47051 12.3502C7.47051 11.7818 7.66055 11.3013 8.04063 10.9088C8.42071 10.5163 8.88598 10.3201 9.43643 10.3201C9.98689 10.3201 10.4522 10.5163 10.8322 10.9088C11.2123 11.3013 11.4024 11.7818 11.4024 12.3502C11.4024 12.9186 11.2123 13.3991 10.8322 13.7916C10.4522 14.1841 9.98689 14.3803 9.43643 14.3803C9.33159 14.3803 9.2367 14.3736 9.15177 14.36C9.06632 14.3465 8.97772 14.3262 8.88598 14.2991C8.58453 14.6375 8.26003 14.9793 7.91245 15.3247C7.5654 15.6696 7.19528 16.0179 6.8021 16.3698C6.73657 16.4375 6.66134 16.4849 6.57641 16.5119C6.49096 16.539 6.39581 16.5525 6.29096 16.5525Z" fill="#1877F2"/>
</svg>
