<svg width="21" height="22" viewBox="0 0 21 22" fill="none" xmlns="http://www.w3.org/2000/svg">
<path d="M3.70999 14.2196C4.63511 14.2143 5.5249 13.8642 6.2049 13.2378L12.8227 17.017C12.7384 17.3087 12.6957 17.6107 12.6959 17.9143C12.6891 18.771 12.9781 19.6039 13.5143 20.2727C14.0505 20.9415 14.8011 21.4054 15.6397 21.5862C16.4784 21.7671 17.3538 21.6539 18.1186 21.2657C18.8834 20.8774 19.4909 20.2379 19.8388 19.4548C20.1867 18.6717 20.2537 17.7927 20.0286 16.966C19.8035 16.1393 19.2999 15.4153 18.6028 14.9159C17.9057 14.4165 17.0575 14.1723 16.2011 14.2243C15.3448 14.2762 14.5325 14.6213 13.901 15.2013L7.2832 11.4221C7.36307 11.162 7.40577 10.8919 7.41006 10.6198L13.9116 6.90396C14.5396 7.47067 15.3437 7.80451 16.189 7.8495C17.0342 7.89448 17.8693 7.64787 18.5541 7.15103C19.2388 6.65419 19.7317 5.93733 19.95 5.12068C20.1683 4.30403 20.0988 3.43726 19.753 2.66574C19.4073 1.89422 18.8064 1.26486 18.0511 0.883234C17.2959 0.501604 16.4322 0.390906 15.6049 0.569706C14.7776 0.748506 14.037 1.20593 13.5073 1.86526C12.9777 2.52459 12.6912 3.34573 12.6959 4.19096C12.6995 4.49425 12.7421 4.79582 12.8227 5.08825L6.80748 8.51909C6.45894 7.98067 5.97609 7.54207 5.4064 7.24641C4.83671 6.95075 4.19978 6.80821 3.55821 6.83279C2.91664 6.85737 2.29252 7.04823 1.74719 7.38661C1.20186 7.72499 0.754088 8.19924 0.447891 8.76275C0.141694 9.32626 -0.0123919 9.95963 0.000778779 10.6006C0.0139495 11.2416 0.193923 11.8681 0.52301 12.4186C0.852098 12.9691 1.31897 13.4246 1.87774 13.7404C2.43651 14.0561 3.06795 14.2213 3.70999 14.2196ZM16.396 16.3308C16.7096 16.3308 17.0162 16.4237 17.2769 16.5977C17.5377 16.7717 17.741 17.019 17.861 17.3083C17.981 17.5977 18.0124 17.9161 17.9512 18.2232C17.89 18.5304 17.739 18.8125 17.5172 19.034C17.2955 19.2554 17.0129 19.4062 16.7053 19.4673C16.3977 19.5284 16.0789 19.4971 15.7891 19.3772C15.4994 19.2574 15.2517 19.0544 15.0775 18.794C14.9032 18.5336 14.8102 18.2275 14.8102 17.9143C14.8102 17.4943 14.9773 17.0916 15.2747 16.7946C15.572 16.4977 15.9754 16.3308 16.396 16.3308ZM16.396 2.60749C16.7096 2.60749 17.0162 2.70036 17.2769 2.87435C17.5377 3.04835 17.741 3.29565 17.861 3.58499C17.981 3.87433 18.0124 4.19271 17.9512 4.49987C17.89 4.80704 17.739 5.08918 17.5172 5.31063C17.2955 5.53208 17.0129 5.6829 16.7053 5.74399C16.3977 5.80509 16.0789 5.77373 15.7891 5.65389C15.4994 5.53404 15.2517 5.33108 15.0775 5.07068C14.9032 4.81028 14.8102 4.50414 14.8102 4.19096C14.8102 3.77099 14.9773 3.36823 15.2747 3.07128C15.572 2.77432 15.9754 2.60749 16.396 2.60749ZM3.70999 8.94135C4.02362 8.94135 4.33021 9.03421 4.59098 9.20821C4.85176 9.3822 5.05501 9.6295 5.17503 9.91884C5.29505 10.2082 5.32645 10.5266 5.26526 10.8337C5.20408 11.1409 5.05305 11.423 4.83128 11.6445C4.60951 11.8659 4.32696 12.0167 4.01935 12.0778C3.71175 12.1389 3.39291 12.1076 3.10315 11.9877C2.81339 11.8679 2.56573 11.6649 2.39149 11.4045C2.21725 11.1441 2.12424 10.838 2.12424 10.5248C2.12424 10.1048 2.29131 9.70209 2.5887 9.40513C2.88608 9.10817 3.28942 8.94135 3.70999 8.94135Z" fill="#1877F2"/>
</svg>
