<svg width="26" height="26" viewBox="0 0 26 26" fill="none" xmlns="http://www.w3.org/2000/svg">
<circle cx="12.5605" cy="12.5605" r="12.5605" fill="white"/>
<path d="M20.9341 17.1955V17.4224C20.8964 17.7001 20.7024 17.8495 20.4735 17.9668C20.033 18.1929 19.5564 18.3049 19.0733 18.391C18.7368 18.451 18.7348 18.4441 18.6521 18.7754C18.6234 18.8902 18.5988 19.0067 18.5632 19.12C18.4752 19.4001 18.2738 19.534 17.9839 19.5097C17.8201 19.4959 17.6596 19.4715 17.4987 19.4439C17.1129 19.3775 16.7196 19.3651 16.3303 19.407C15.9233 19.4496 15.5786 19.6416 15.2458 19.8649C14.8409 20.1364 14.4576 20.4453 13.9999 20.6321C12.8618 21.0968 11.7592 21.0286 10.6984 20.4011C10.3382 20.1884 10.0065 19.9322 9.65199 19.711C9.34575 19.5194 9.01535 19.4269 8.65384 19.3936C8.19571 19.3497 7.75314 19.4305 7.31179 19.5085C6.88887 19.5819 6.66206 19.4407 6.54783 19.0266C6.50935 18.8862 6.47373 18.7445 6.44016 18.6029C6.41396 18.4916 6.34968 18.4445 6.23955 18.4251C5.77282 18.3439 5.30937 18.2469 4.87007 18.063C4.70271 17.9975 4.54599 17.9079 4.40498 17.7971C4.21583 17.6433 4.17489 17.4403 4.18963 17.2158C4.20437 16.9913 4.35339 16.8964 4.54582 16.8505C4.79965 16.7888 5.05308 16.7287 5.29586 16.6301C6.00659 16.3342 6.58059 15.8686 7.05264 15.2706C7.34161 14.912 7.58499 14.5195 7.77729 14.102C7.94106 13.7391 7.86777 13.524 7.51445 13.3417C7.20862 13.1846 6.8684 13.1152 6.55602 12.9727C6.32962 12.8696 6.1241 12.7442 5.97139 12.5449C5.87671 12.4283 5.82833 12.2813 5.83534 12.1318C5.84235 11.9823 5.90428 11.8404 6.00946 11.733C6.1434 11.5859 6.31967 11.4831 6.51443 11.4386C6.7092 11.394 6.91307 11.4098 7.09849 11.4838C7.3122 11.565 7.52346 11.6535 7.75764 11.6551C7.97136 11.6551 7.98855 11.634 7.96767 11.4225C7.94679 11.211 7.94597 10.9914 7.93451 10.7767C7.89889 10.1203 7.87473 9.46353 7.95825 8.80716C8.04014 8.16742 8.29602 7.604 8.67308 7.09011C9.18682 6.37735 9.90662 5.83594 10.7373 5.53746C11.2035 5.36907 11.6924 5.27043 12.1879 5.24479C12.8212 5.20907 13.4497 5.25372 14.0634 5.4307C15.2695 5.77858 16.1694 6.4999 16.7741 7.59223C17.0697 8.12643 17.177 8.69756 17.2171 9.2971C17.2662 10.0278 17.1851 10.7503 17.1528 11.4761C17.1475 11.5954 17.1917 11.6486 17.3076 11.6502C17.422 11.6489 17.5354 11.6281 17.6429 11.5889C17.7718 11.5455 17.8979 11.4944 18.0265 11.4505C18.3425 11.3429 18.6406 11.3949 18.9206 11.5597C19.3935 11.8382 19.4303 12.3716 19.0058 12.7158C18.8052 12.8745 18.5777 12.9964 18.3339 13.0758C18.0973 13.157 17.8553 13.2236 17.6314 13.3372C17.2695 13.5203 17.1896 13.7407 17.3636 14.1065C17.8222 15.0701 18.4629 15.8763 19.4078 16.4182C19.7188 16.5976 20.0561 16.7278 20.4076 16.8042C20.4555 16.8148 20.5026 16.8278 20.5505 16.8371C20.7552 16.8773 20.9026 16.9751 20.9341 17.1955Z" fill="#FFFC00"/>
</svg>
