<svg width="20" height="18" viewBox="0 0 20 18" fill="none" xmlns="http://www.w3.org/2000/svg">
<path d="M9.25933 1.50638C9.51532 0.831208 10.4841 0.831208 10.7409 1.50638L12.3968 6.09337C12.4546 6.2428 12.5563 6.37119 12.6885 6.46159C12.8208 6.552 12.9774 6.60017 13.1376 6.59975H17.207C17.9589 6.59975 18.2869 7.53571 17.6958 7.99409L14.7999 10.5996C14.6702 10.6993 14.5754 10.8375 14.5291 10.9945C14.4828 11.1514 14.4874 11.319 14.5423 11.4731L15.5998 15.9553C15.8574 16.6753 15.0239 17.2937 14.3935 16.8505L10.4601 14.3546C10.3254 14.2599 10.1647 14.2091 10.0001 14.2091C9.83545 14.2091 9.67482 14.2599 9.54012 14.3546L5.60669 16.8505C4.97712 17.2937 4.14276 16.6745 4.40035 15.9553L5.4579 11.4731C5.51276 11.319 5.51738 11.1514 5.47111 10.9945C5.42483 10.8375 5.33003 10.6993 5.20031 10.5996L2.30444 7.99409C1.71246 7.53571 2.04205 6.59975 2.79242 6.59975H6.86184C7.02206 6.60029 7.17868 6.55216 7.31095 6.46174C7.44323 6.37131 7.54493 6.24286 7.6026 6.09337L9.25853 1.50638H9.25933Z" stroke="#E1E603" stroke-width="2" stroke-linecap="round" stroke-linejoin="round"/>
</svg>
