<svg width="21" height="29" viewBox="0 0 21 29" fill="none" xmlns="http://www.w3.org/2000/svg">
<path d="M19.358 6.56322C17.8295 2.46204 14.3065 -0.0301826 9.80476 0.000823462C7.10053 -0.0335346 4.58149 1.00643 2.65073 3.27993C0.454332 5.86684 -0.40462 8.87107 0.176953 12.2457C0.476958 13.9846 1.19094 15.5751 2.0281 17.1061C4.0393 20.7933 6.46281 24.1864 9.06732 27.4638C9.21248 27.6559 9.38531 27.8253 9.58017 27.9666C9.90029 28.1879 10.1215 28.1912 10.4458 27.9775C10.669 27.8206 10.8651 27.6284 11.0266 27.4085C12.5098 25.5163 13.9671 23.6057 15.2878 21.5928C16.6688 19.4886 18.0155 17.3651 19.0144 15.0413C20.2094 12.2608 20.4289 9.44092 19.358 6.56322ZM15.2333 8.59956C15.0791 8.59202 15.0423 8.64817 15.0423 8.79565C15.0462 10.6594 15.0462 12.5234 15.0423 14.3876C15.0423 14.541 15.0892 14.6038 15.2367 14.5745C15.5116 14.5209 15.5551 14.6508 15.5484 14.898C15.5317 15.581 15.5434 15.581 14.878 15.581C11.526 15.581 8.17177 15.5826 4.81529 15.586C4.58568 15.586 4.46249 15.5508 4.50691 15.2893C4.51991 15.185 4.51991 15.0794 4.50691 14.9751C4.48428 14.7136 4.49266 14.4899 4.86222 14.5737C4.99965 14.6047 5.00636 14.5075 5.00636 14.4019C5.00636 12.5281 5.00636 10.6538 5.00636 8.77889C5.00636 8.64314 4.96865 8.59453 4.83038 8.59956C4.58401 8.60878 4.33763 8.59956 4.01081 8.59956C4.22785 8.41939 4.38288 8.28866 4.54043 8.16129C6.30694 6.72439 8.07345 5.2861 9.83995 3.84641C9.95057 3.75675 10.0218 3.68803 10.1752 3.81373C12.0746 5.37186 13.9783 6.92384 15.8861 8.46967C15.9095 8.48315 15.929 8.5024 15.9428 8.52559C15.9566 8.54877 15.9642 8.57511 15.9649 8.60208C15.7202 8.60208 15.4764 8.61129 15.2325 8.59956H15.2333Z" fill="#1877F2"/>
<path d="M8.51255 11.2451C8.51255 10.5555 8.51255 9.86495 8.51255 9.17527C8.51255 8.80571 8.68601 8.60124 8.98267 8.60375C9.27932 8.60627 9.45195 8.81409 9.45195 9.18281C9.45195 10.5728 9.45195 11.9633 9.45195 13.3544C9.45195 13.7223 9.27848 13.941 8.99021 13.946C8.70194 13.951 8.51255 13.7306 8.51171 13.3468C8.51087 12.6463 8.51255 11.9457 8.51255 11.2451Z" fill="#1877F2"/>
<path d="M6.31533 11.2812C6.31533 10.5814 6.31533 9.88087 6.31533 9.1803C6.31533 8.80572 6.48293 8.60376 6.77958 8.60376C7.07623 8.60376 7.25473 8.81075 7.25473 9.17779C7.25808 10.5789 7.25808 11.9798 7.25473 13.3804C7.25473 13.739 7.05947 13.9544 6.76617 13.9452C6.48795 13.9368 6.317 13.729 6.31533 13.3829C6.31281 12.6823 6.31533 11.9843 6.31533 11.2812Z" fill="#1877F2"/>
<path d="M10.7097 11.2527C10.7097 10.5521 10.7097 9.85155 10.7097 9.15098C10.7097 8.8074 10.8882 8.6046 11.174 8.60376C11.4597 8.60292 11.6483 8.80656 11.6491 9.14427C11.6525 10.5666 11.6525 11.9887 11.6491 13.4105C11.6491 13.7457 11.4472 13.9527 11.1656 13.9452C10.884 13.9376 10.7131 13.7332 10.7114 13.4172C10.7072 12.6957 10.7097 11.9742 10.7097 11.2527Z" fill="#1877F2"/>
<path d="M13.8472 11.2795C13.8472 11.97 13.8472 12.6597 13.8472 13.3502C13.8472 13.7315 13.6603 13.9544 13.3612 13.9452C13.062 13.936 12.9078 13.7223 12.907 13.3519C12.907 11.9619 12.907 10.5714 12.907 9.18029C12.907 8.81073 13.0796 8.60375 13.3746 8.60291C13.6696 8.60207 13.8455 8.81241 13.8472 9.17778C13.8489 9.87835 13.8472 10.5789 13.8472 11.2795Z" fill="#1877F2"/>
</svg>
