<svg width="26" height="26" viewBox="0 0 26 26" fill="none" xmlns="http://www.w3.org/2000/svg">
<circle cx="12.5605" cy="12.5605" r="12.5605" fill="white"/>
<path d="M21.4816 6.90241C20.8456 7.17676 20.1535 7.37421 19.4405 7.45112C20.1807 7.01139 20.735 6.3167 20.9994 5.49737C20.3048 5.91054 19.544 6.20027 18.7505 6.35369C18.4189 5.99916 18.0178 5.71673 17.5722 5.52399C17.1267 5.33125 16.6462 5.23233 16.1607 5.23341C14.1966 5.23341 12.617 6.8255 12.617 8.77925C12.617 9.05361 12.6502 9.32796 12.7043 9.59193C9.76326 9.43812 7.14025 8.03308 5.39643 5.88188C5.07868 6.4246 4.91218 7.04255 4.91423 7.67143C4.91423 8.90188 5.53984 9.98683 6.49385 10.6249C5.93164 10.6028 5.38259 10.4482 4.89136 10.1739V10.2175C4.89136 11.9406 6.10934 13.3685 7.73261 13.6969C7.42782 13.776 7.11428 13.8165 6.79938 13.8174C6.56868 13.8174 6.35044 13.7946 6.13012 13.7634C6.57907 15.1684 7.88642 16.1889 9.44318 16.2222C8.2252 17.1762 6.69962 17.7374 5.04309 17.7374C4.74587 17.7374 4.47152 17.727 4.18677 17.6937C5.75808 18.7018 7.62245 19.2838 9.63024 19.2838C16.1483 19.2838 19.7149 13.8839 19.7149 9.19702C19.7149 9.04321 19.7149 8.88941 19.7045 8.7356C20.3946 8.23054 20.9994 7.60492 21.4816 6.90241Z" fill="#1C9CEA"/>
</svg>
