<svg width="26" height="26" viewBox="0 0 26 26" fill="none" xmlns="http://www.w3.org/2000/svg">
<circle cx="12.5605" cy="12.5605" r="12.5605" fill="white"/>
<path d="M18.829 8.622C16.6309 5.23329 12.1432 4.22583 8.66285 6.33233C5.27414 8.43883 4.17509 13.0182 6.37318 16.4069L6.55635 16.6817L5.82366 19.4293L8.57127 18.6966L8.84603 18.8797C10.0367 19.5209 11.3189 19.8872 12.6011 19.8872C13.9749 19.8872 15.3487 19.5209 16.5393 18.7882C19.928 16.5901 20.9355 12.1023 18.829 8.622ZM16.9057 15.6742C16.5393 16.2237 16.0814 16.5901 15.4403 16.6817C15.0739 16.6817 14.616 16.8648 12.7843 16.1321C11.2273 15.3994 9.94507 14.2088 9.0292 12.835C8.47968 12.1939 8.20492 11.3696 8.11333 10.5453C8.11333 9.81263 8.38809 9.17153 8.84603 8.71359C9.0292 8.53042 9.21237 8.43883 9.39555 8.43883H9.85348C10.0367 8.43883 10.2198 8.43883 10.3114 8.80518C10.4946 9.26311 10.9525 10.3622 10.9525 10.4537C11.0441 10.5453 11.0441 10.7285 10.9525 10.8201C11.0441 11.0033 10.9525 11.1864 10.8609 11.278C10.7694 11.3696 10.6778 11.5528 10.5862 11.6444C10.403 11.736 10.3114 11.9191 10.403 12.1023C10.7694 12.6518 11.2273 13.2014 11.6852 13.6593C12.2347 14.1172 12.7843 14.4836 13.4254 14.7583C13.6085 14.8499 13.7917 14.8499 13.8833 14.6667C13.9749 14.4836 14.4328 14.0256 14.616 13.8425C14.7992 13.6593 14.8908 13.6593 15.0739 13.7509L16.5393 14.4836C16.7225 14.5752 16.9057 14.6667 16.9973 14.7583C17.0889 15.0331 17.0889 15.3994 16.9057 15.6742Z" fill="#4ECB71"/>
</svg>
