<svg width="26" height="26" viewBox="0 0 26 26" fill="none" xmlns="http://www.w3.org/2000/svg">
<circle cx="12.5605" cy="12.5605" r="12.5605" fill="white"/>
<path d="M20.5847 9.12572C20.4894 8.77744 20.3025 8.45984 20.0427 8.20468C19.7829 7.94953 19.4593 7.76578 19.1044 7.67183C17.7978 7.32715 12.5606 7.32715 12.5606 7.32715C12.5606 7.32715 7.32328 7.32715 6.01676 7.67C5.66167 7.76364 5.33794 7.94729 5.0781 8.20249C4.81826 8.45769 4.63144 8.77546 4.53642 9.12389C4.18689 10.4073 4.18689 13.084 4.18689 13.084C4.18689 13.084 4.18689 15.7608 4.53642 17.0424C4.72894 17.7501 5.29715 18.3074 6.01676 18.4963C7.32328 18.8409 12.5606 18.8409 12.5606 18.8409C12.5606 18.8409 17.7978 18.8409 19.1044 18.4963C19.8258 18.3074 20.3922 17.7501 20.5847 17.0424C20.9342 15.7608 20.9342 13.084 20.9342 13.084C20.9342 13.084 20.9342 10.4073 20.5847 9.12572ZM10.897 15.5408V10.6273L15.2334 13.0657L10.897 15.5408Z" fill="#F70000"/>
</svg>
