<?xml version="1.0" encoding="UTF-8" standalone="no"?>
<svg
   xmlns:dc="http://purl.org/dc/elements/1.1/"
   xmlns:cc="http://creativecommons.org/ns#"
   xmlns:rdf="http://www.w3.org/1999/02/22-rdf-syntax-ns#"
   xmlns:svg="http://www.w3.org/2000/svg"
   xmlns="http://www.w3.org/2000/svg"
   xmlns:sodipodi="http://sodipodi.sourceforge.net/DTD/sodipodi-0.dtd"
   xmlns:inkscape="http://www.inkscape.org/namespaces/inkscape"
   inkscape:version="1.0 (4035a4fb49, 2020-05-01)"
   sodipodi:docname="add-sent.svg"
   id="svg90"
   version="1.1"
   width="512pt"
   viewBox="0 -24 512 511"
   height="512pt">
  <metadata
     id="metadata96">
    <rdf:RDF>
      <cc:Work
         rdf:about="">
        <dc:format>image/svg+xml</dc:format>
        <dc:type
           rdf:resource="http://purl.org/dc/dcmitype/StillImage" />
        <dc:title></dc:title>
      </cc:Work>
    </rdf:RDF>
  </metadata>
  <defs
     id="defs94" />
  <sodipodi:namedview
     inkscape:current-layer="svg90"
     inkscape:window-maximized="1"
     inkscape:window-y="28"
     inkscape:window-x="0"
     inkscape:cy="341.33333"
     inkscape:cx="210.56277"
     inkscape:zoom="1.1279297"
     showgrid="false"
     id="namedview92"
     inkscape:window-height="1026"
     inkscape:window-width="1920"
     inkscape:pageshadow="2"
     inkscape:pageopacity="0"
     guidetolerance="10"
     gridtolerance="10"
     objecttolerance="10"
     borderopacity="1"
     bordercolor="#666666"
     pagecolor="#ffffff" />
  <path
     id="path72"
     fill="#0065a3"
     d="m159.601562 193.300781c-88.003906 0-159.601562 71.59375-159.601562 159.597657v56.234374c0 30.421876 24.746094 55.167969 55.164062 55.167969h208.867188c30.421875 0 55.167969-24.746093 55.167969-55.167969v-56.234374c0-88.003907-71.59375-159.597657-159.597657-159.597657zm0 0" />
  <path
     id="path74"
     fill="#005183"
     d="m159.601562 193.300781v271h104.433594c30.417969 0 55.167969-24.746093 55.167969-55.167969v-56.234374c-.003906-88.003907-71.597656-159.597657-159.601563-159.597657zm0 0" />
  <path
     id="path82"
     fill="#e7f0ef"
     d="m159.601562.5c-61.425781 0-111.402343 49.972656-111.402343 111.398438 0 61.429687 49.976562 111.402343 111.402343 111.402343 61.425782 0 111.398438-49.976562 111.398438-111.402343 0-61.425782-49.972656-111.398438-111.398438-111.398438zm0 0" />
  <path
     d="M 159.60156,0.5 V 223.30078 C 221.02734,223.30078 271,173.32812 271,111.89844 271,50.472656 221.02734,0.5 159.60156,0.5 Z m 0,0"
     id="path84"
     style="fill:#c5e1e6" />
  <g
     transform="matrix(-0.53671134,0,0,-0.51429604,511.96579,458.18789)"
     id="g279">
    <path
       style="fill:#4dbbeb"
       d="M 493.52,211.306 C 481.582,199.37 465.713,192.797 448.792,192.797 L 215.79,192.794 244.255,164.33 c 11.958,-11.941 18.542,-27.823 18.542,-44.722 0,-34.849 -28.354,-63.2 -63.218,-63.2 -16.874,0 -32.741,6.573 -44.681,18.512 L 18.601,211.22 C 9.76,220.026 3.774,231.111 1.286,243.276 0.433,247.441 0,251.722 0,256.001 c 0,16.929 6.607,32.832 18.584,44.761 l 136.288,136.287 c 11.939,11.958 27.822,18.543 44.723,18.543 34.849,0 63.2,-28.353 63.202,-63.201 0.002,-16.879 -6.57,-32.752 -18.512,-44.696 l -28.493,-28.493 h 233.035 c 16.886,0 32.759,-6.574 44.694,-18.513 24.639,-24.643 24.639,-64.74 -0.001,-89.383 z"
       id="path221" />
    <path
       style="fill:#2488ff"
       d="m 18.584,300.76 136.288,136.287 c 11.939,11.958 27.822,18.543 44.723,18.543 34.849,0 63.2,-28.353 63.202,-63.201 0.002,-16.879 -6.57,-32.752 -18.512,-44.696 L 215.792,319.2 h 233.035 c 16.886,0 32.759,-6.574 44.694,-18.513 C 505.84,288.368 512,272.184 512,256.001 H 0 c 0,16.928 6.607,32.832 18.584,44.759 z"
       id="path223" />
    <g
       id="g225">
</g>
    <g
       id="g227">
</g>
    <g
       id="g229">
</g>
    <g
       id="g231">
</g>
    <g
       id="g233">
</g>
    <g
       id="g235">
</g>
    <g
       id="g237">
</g>
    <g
       id="g239">
</g>
    <g
       id="g241">
</g>
    <g
       id="g243">
</g>
    <g
       id="g245">
</g>
    <g
       id="g247">
</g>
    <g
       id="g249">
</g>
    <g
       id="g251">
</g>
    <g
       id="g253">
</g>
  </g>
</svg>
