<?xml version="1.0" encoding="UTF-8" standalone="no"?>
<svg
   xmlns:dc="http://purl.org/dc/elements/1.1/"
   xmlns:cc="http://creativecommons.org/ns#"
   xmlns:rdf="http://www.w3.org/1999/02/22-rdf-syntax-ns#"
   xmlns:svg="http://www.w3.org/2000/svg"
   xmlns="http://www.w3.org/2000/svg"
   xmlns:sodipodi="http://sodipodi.sourceforge.net/DTD/sodipodi-0.dtd"
   xmlns:inkscape="http://www.inkscape.org/namespaces/inkscape"
   width="170.06029mm"
   height="134.6012mm"
   viewBox="0 0 170.06028 134.60119"
   version="1.1"
   id="svg8"
   inkscape:version="1.0.2 (e86c870879, 2021-01-15, custom)"
   sodipodi:docname="add-trip-sent.svg">
  <defs
     id="defs2" />
  <sodipodi:namedview
     id="base"
     pagecolor="#ffffff"
     bordercolor="#666666"
     borderopacity="1.0"
     inkscape:pageopacity="0.0"
     inkscape:pageshadow="2"
     inkscape:zoom="0.35"
     inkscape:cx="259.57036"
     inkscape:cy="251.58605"
     inkscape:document-units="mm"
     inkscape:current-layer="g1243"
     inkscape:document-rotation="0"
     showgrid="false"
     inkscape:window-width="1920"
     inkscape:window-height="1028"
     inkscape:window-x="0"
     inkscape:window-y="28"
     inkscape:window-maximized="1"
     fit-margin-top="0"
     fit-margin-left="0"
     fit-margin-right="0"
     fit-margin-bottom="0" />
  <metadata
     id="metadata5">
    <rdf:RDF>
      <cc:Work
         rdf:about="">
        <dc:format>image/svg+xml</dc:format>
        <dc:type
           rdf:resource="http://purl.org/dc/dcmitype/StillImage" />
        <dc:title></dc:title>
      </cc:Work>
    </rdf:RDF>
  </metadata>
  <g
     inkscape:label="Layer 1"
     inkscape:groupmode="layer"
     id="layer1"
     transform="translate(-37.155337,-81.601191)">
    <g
       id="g986"
       transform="matrix(0.26458333,0,0,0.26458333,37.155337,73.631147)">
      <g
         id="g966">
        <path
           d="m 361.375,135.498 h -30 V 90.69 c 0,-16.855 -13.713,-30.567 -30.567,-30.567 h -89.615 c -16.854,0 -30.567,13.712 -30.567,30.567 v 44.808 h -30 V 90.69 c 0,-33.397 27.171,-60.567 60.567,-60.567 h 89.615 c 33.396,0 60.567,27.17 60.567,60.567 z"
           fill="#464b52"
           id="path964" />
      </g>
      <path
         d="M 300.808,30.123 H 256 v 30 h 44.808 c 16.854,0 30.567,13.712 30.567,30.567 v 44.808 h 30 V 90.69 c 0,-33.397 -27.171,-60.567 -60.567,-60.567 z"
         fill="#292b2f"
         id="path968" />
      <g
         id="g972">
        <path
           d="M 438.12,481.877 H 73.88 C 33.143,481.877 0,448.734 0,407.997 v -272.5 c 0,0 131.383,165.75 256,165.75 124.617,0 256,-165.75 256,-165.75 v 272.5 c 0,40.738 -33.143,73.88 -73.88,73.88 z"
           fill="#b37236"
           id="path970" />
      </g>
      <path
         d="m 438.12,481.877 c 40.737,0 73.88,-33.143 73.88,-73.88 v -272.5 c 0,0 -131.383,165.75 -256,165.75 v 180.63 z"
         fill="#95623a"
         id="path974" />
      <g
         id="g978">
        <path
           d="M 256,331.248 C 188.402,331.248 124.686,311.382 76.588,275.31 27.199,238.269 0,188.616 0,135.498 c 0,-8.284 6.716,-15 15,-15 h 482 c 8.284,0 15,6.716 15,15 0,53.118 -27.199,102.771 -76.588,139.812 C 387.314,311.381 323.598,331.248 256,331.248 Z"
           fill="#c99251"
           id="path976" />
      </g>
      <path
         d="M 497,120.498 H 256 v 210.75 c 67.598,0 131.314,-19.866 179.412,-55.938 C 484.801,238.269 512,188.616 512,135.498 c 0,-8.285 -6.716,-15 -15,-15 z"
         fill="#bd8041"
         id="path980" />
      <path
         d="m 305.035,252.213 h -98.07 c -8.284,0 -15,6.716 -15,15 v 49.035 c 0,35.309 28.726,64.035 64.035,64.035 35.309,0 64.035,-28.726 64.035,-64.035 v -49.035 c 0,-8.284 -6.716,-15 -15,-15 z"
         fill="#faf139"
         id="path982" />
      <path
         d="M 305.035,252.213 H 256 v 128.069 c 35.31,0 64.035,-28.726 64.035,-64.035 v -49.035 c 0,-8.283 -6.716,-14.999 -15,-14.999 z"
         fill="#f5d953"
         id="path984" />
    </g>
    <g
       id="g1243"
       transform="matrix(0.35277779,0,0,0.35277779,15.528253,66.180971)">
      <g
         transform="matrix(-0.48053594,0,0,-0.46046676,543.36577,451.23155)"
         id="g279">
        <path
           style="fill:#4dbbeb"
           d="M 493.52,211.306 C 481.582,199.37 465.713,192.797 448.792,192.797 L 215.79,192.794 244.255,164.33 c 11.958,-11.941 18.542,-27.823 18.542,-44.722 0,-34.849 -28.354,-63.2 -63.218,-63.2 -16.874,0 -32.741,6.573 -44.681,18.512 L 18.601,211.22 C 9.76,220.026 3.774,231.111 1.286,243.276 0.433,247.441 0,251.722 0,256.001 c 0,16.929 6.607,32.832 18.584,44.761 l 136.288,136.287 c 11.939,11.958 27.822,18.543 44.723,18.543 34.849,0 63.2,-28.353 63.202,-63.201 0.002,-16.879 -6.57,-32.752 -18.512,-44.696 l -28.493,-28.493 h 233.035 c 16.886,0 32.759,-6.574 44.694,-18.513 24.639,-24.643 24.639,-64.74 -0.001,-89.383 z"
           id="path221" />
        <path
           style="fill:#2488ff"
           d="m 18.584,300.76 136.288,136.287 c 11.939,11.958 27.822,18.543 44.723,18.543 34.849,0 63.2,-28.353 63.202,-63.201 0.002,-16.879 -6.57,-32.752 -18.512,-44.696 L 215.792,319.2 h 233.035 c 16.886,0 32.759,-6.574 44.694,-18.513 C 505.84,288.368 512,272.184 512,256.001 H 0 c 0,16.928 6.607,32.832 18.584,44.759 z"
           id="path223" />
        <g
           id="g225" />
        <g
           id="g227" />
        <g
           id="g229" />
        <g
           id="g231" />
        <g
           id="g233" />
        <g
           id="g235" />
        <g
           id="g237" />
        <g
           id="g239" />
        <g
           id="g241" />
        <g
           id="g243" />
        <g
           id="g245" />
        <g
           id="g247" />
        <g
           id="g249" />
        <g
           id="g251" />
        <g
           id="g253" />
      </g>
    </g>
  </g>
</svg>
