<?xml version="1.0" encoding="UTF-8" standalone="no"?>
<svg
   xmlns:dc="http://purl.org/dc/elements/1.1/"
   xmlns:cc="http://creativecommons.org/ns#"
   xmlns:rdf="http://www.w3.org/1999/02/22-rdf-syntax-ns#"
   xmlns:svg="http://www.w3.org/2000/svg"
   xmlns="http://www.w3.org/2000/svg"
   xmlns:sodipodi="http://sodipodi.sourceforge.net/DTD/sodipodi-0.dtd"
   xmlns:inkscape="http://www.inkscape.org/namespaces/inkscape"
   height="465.06442pt"
   viewBox="0 -24 413.39642 464.15609"
   width="413.39642pt"
   version="1.1"
   id="svg90"
   sodipodi:docname="cancel-request.svg"
   inkscape:version="1.0.1 (3bc2e813f5, 2020-09-07)">
  <metadata
     id="metadata96">
    <rdf:RDF>
      <cc:Work
         rdf:about="">
        <dc:format>image/svg+xml</dc:format>
        <dc:type
           rdf:resource="http://purl.org/dc/dcmitype/StillImage" />
        <dc:title></dc:title>
      </cc:Work>
    </rdf:RDF>
  </metadata>
  <defs
     id="defs94" />
  <sodipodi:namedview
     inkscape:document-rotation="0"
     pagecolor="#ffffff"
     bordercolor="#666666"
     borderopacity="1"
     objecttolerance="10"
     gridtolerance="10"
     guidetolerance="10"
     inkscape:pageopacity="0"
     inkscape:pageshadow="2"
     inkscape:window-width="1920"
     inkscape:window-height="1030"
     id="namedview92"
     showgrid="false"
     inkscape:zoom="1.1279297"
     inkscape:cx="210.56277"
     inkscape:cy="308.06275"
     inkscape:window-x="0"
     inkscape:window-y="24"
     inkscape:window-maximized="1"
     inkscape:current-layer="svg90"
     fit-margin-top="0"
     fit-margin-left="0"
     fit-margin-right="0"
     fit-margin-bottom="0" />
  <path
     d="M 159.60156,168.34784 C 71.597656,168.34784 0,239.94159 0,327.9455 v 56.23437 c 0,30.42188 24.746094,55.16797 55.164062,55.16797 H 264.03125 c 30.42187,0 55.16797,-24.74609 55.16797,-55.16797 V 327.9455 c 0,-88.00391 -71.59375,-159.59766 -159.59766,-159.59766 z m 0,0"
     fill="#0065a3"
     id="path72" />
  <path
     d="m 159.60156,168.34784 v 271 h 104.4336 c 30.41796,0 55.16796,-24.74609 55.16796,-55.16797 V 327.9455 c -0.004,-88.00391 -71.59765,-159.59766 -159.60156,-159.59766 z m 0,0"
     fill="#005183"
     id="path74" />
  <path
     d="m 159.60156,-24.45294 c -61.425779,0 -111.402341,49.972656 -111.402341,111.39844 0,61.42968 49.976562,111.40234 111.402341,111.40234 C 221.02734,198.34784 271,148.37128 271,86.9455 271,25.519716 221.02734,-24.45294 159.60156,-24.45294 Z m 0,0"
     fill="#e7f0ef"
     id="path82" />
  <path
     style="fill:#c5e1e6"
     id="path84"
     d="M 159.60156,-24.45294 V 198.34784 C 221.02734,198.34784 271,148.37518 271,86.9455 271,25.519716 221.02734,-24.45294 159.60156,-24.45294 Z m 0,0" />
  <g
     id="g1052"
     transform="matrix(0.45993828,0,0,0.45997415,177.90803,205.10473)">
    <path
       style="fill:#fd003a"
       d="M 257,0 C 116.3,0 0,114.3 0,255 0,395.7 116.3,512 257,512 397.7,512 512,395.7 512,255 512,114.3 397.7,0 257,0 Z"
       id="path988" />
    <path
       style="fill:#dd0030"
       d="M 512,255 C 512,395.7 397.7,512 257,512 V 0 c 140.7,0 255,114.3 255,255 z"
       id="path990" />
    <path
       style="fill:#e1e4fb"
       d="m 373.7,329.099 c 11.7,11.7 11.7,30.901 0,42.601 -11.7,11.699 -30.601,11.699 -42.601,0 L 257,297.299 180.901,371.7 c -11.7,11.699 -30.901,11.699 -42.601,0 -11.7,-11.7 -11.7,-30.901 0,-42.601 L 214.701,255 138.3,180.899 C 126.6,169.2 126.6,150 138.3,138.3 c 11.7,-11.7 30.601,-11.7 42.601,0 L 257,212.699 331.099,138.3 c 12.001,-11.7 30.901,-11.7 42.601,0 11.7,11.7 11.7,30.901 0,42.599 L 299.299,255 Z"
       id="path992" />
    <path
       style="fill:#c5c9f7"
       d="m 373.7,329.099 c 11.7,11.7 11.7,30.901 0,42.601 -11.7,11.699 -30.601,11.699 -42.601,0 L 257,297.299 v -84.6 L 331.099,138.3 c 12.001,-11.7 30.901,-11.7 42.601,0 11.7,11.7 11.7,30.901 0,42.599 L 299.299,255 Z"
       id="path994" />
    <g
       id="g996">
</g>
    <g
       id="g998">
</g>
    <g
       id="g1000">
</g>
    <g
       id="g1002">
</g>
    <g
       id="g1004">
</g>
    <g
       id="g1006">
</g>
    <g
       id="g1008">
</g>
    <g
       id="g1010">
</g>
    <g
       id="g1012">
</g>
    <g
       id="g1014">
</g>
    <g
       id="g1016">
</g>
    <g
       id="g1018">
</g>
    <g
       id="g1020">
</g>
    <g
       id="g1022">
</g>
    <g
       id="g1024">
</g>
  </g>
</svg>
