<?xml version="1.0" encoding="UTF-8" standalone="no"?>
<svg
   xmlns:dc="http://purl.org/dc/elements/1.1/"
   xmlns:cc="http://creativecommons.org/ns#"
   xmlns:rdf="http://www.w3.org/1999/02/22-rdf-syntax-ns#"
   xmlns:svg="http://www.w3.org/2000/svg"
   xmlns="http://www.w3.org/2000/svg"
   xmlns:sodipodi="http://sodipodi.sourceforge.net/DTD/sodipodi-0.dtd"
   xmlns:inkscape="http://www.inkscape.org/namespaces/inkscape"
   width="1107.3295mm"
   height="1286.7997mm"
   viewBox="0 0 1107.3294 1286.7997"
   version="1.1"
   id="svg8"
   inkscape:version="1.0.2 (e86c870879, 2021-01-15, custom)"
   sodipodi:docname="cancel-add-trip.svg">
  <defs
     id="defs2" />
  <sodipodi:namedview
     id="base"
     pagecolor="#ffffff"
     bordercolor="#666666"
     borderopacity="1.0"
     inkscape:pageopacity="0.0"
     inkscape:pageshadow="2"
     inkscape:zoom="0.12374369"
     inkscape:cx="3134.1086"
     inkscape:cy="2187.1751"
     inkscape:document-units="mm"
     inkscape:current-layer="layer1"
     inkscape:document-rotation="0"
     showgrid="false"
     inkscape:window-width="1920"
     inkscape:window-height="1028"
     inkscape:window-x="0"
     inkscape:window-y="28"
     inkscape:window-maximized="1"
     fit-margin-top="0"
     fit-margin-left="0"
     fit-margin-right="0"
     fit-margin-bottom="0" />
  <metadata
     id="metadata5">
    <rdf:RDF>
      <cc:Work
         rdf:about="">
        <dc:format>image/svg+xml</dc:format>
        <dc:type
           rdf:resource="http://purl.org/dc/dcmitype/StillImage" />
        <dc:title></dc:title>
      </cc:Work>
    </rdf:RDF>
  </metadata>
  <g
     inkscape:label="Layer 1"
     inkscape:groupmode="layer"
     id="layer1"
     transform="translate(105.20043,18.790905)">
    <g
       id="g986"
       transform="matrix(1.9845291,0,0,2.4051223,-105.20043,-91.240404)">
      <g
         id="g966">
        <path
           d="m 361.375,135.498 h -30 V 90.69 c 0,-16.855 -13.713,-30.567 -30.567,-30.567 h -89.615 c -16.854,0 -30.567,13.712 -30.567,30.567 v 44.808 h -30 V 90.69 c 0,-33.397 27.171,-60.567 60.567,-60.567 h 89.615 c 33.396,0 60.567,27.17 60.567,60.567 z"
           fill="#464b52"
           id="path964" />
      </g>
      <path
         d="M 300.808,30.123 H 256 v 30 h 44.808 c 16.854,0 30.567,13.712 30.567,30.567 v 44.808 h 30 V 90.69 c 0,-33.397 -27.171,-60.567 -60.567,-60.567 z"
         fill="#292b2f"
         id="path968" />
      <g
         id="g972">
        <path
           d="M 438.12,481.877 H 73.88 C 33.143,481.877 0,448.734 0,407.997 v -272.5 c 0,0 131.383,165.75 256,165.75 124.617,0 256,-165.75 256,-165.75 v 272.5 c 0,40.738 -33.143,73.88 -73.88,73.88 z"
           fill="#b37236"
           id="path970" />
      </g>
      <path
         d="m 438.12,481.877 c 40.737,0 73.88,-33.143 73.88,-73.88 v -272.5 c 0,0 -131.383,165.75 -256,165.75 v 180.63 z"
         fill="#95623a"
         id="path974" />
      <g
         id="g978">
        <path
           d="M 256,331.248 C 188.402,331.248 124.686,311.382 76.588,275.31 27.199,238.269 0,188.616 0,135.498 c 0,-8.284 6.716,-15 15,-15 h 482 c 8.284,0 15,6.716 15,15 0,53.118 -27.199,102.771 -76.588,139.812 C 387.314,311.381 323.598,331.248 256,331.248 Z"
           fill="#c99251"
           id="path976" />
      </g>
      <path
         d="M 497,120.498 H 256 v 210.75 c 67.598,0 131.314,-19.866 179.412,-55.938 C 484.801,238.269 512,188.616 512,135.498 c 0,-8.285 -6.716,-15 -15,-15 z"
         fill="#bd8041"
         id="path980" />
      <path
         d="m 305.035,252.213 h -98.07 c -8.284,0 -15,6.716 -15,15 v 49.035 c 0,35.309 28.726,64.035 64.035,64.035 35.309,0 64.035,-28.726 64.035,-64.035 v -49.035 c 0,-8.284 -6.716,-15 -15,-15 z"
         fill="#faf139"
         id="path982" />
      <path
         d="M 305.035,252.213 H 256 v 128.069 c 35.31,0 64.035,-28.726 64.035,-64.035 v -49.035 c 0,-8.283 -6.716,-14.999 -15,-14.999 z"
         fill="#f5d953"
         id="path984" />
    </g>
    <g
       id="g2817"
       transform="matrix(0.93281399,0,0,0.93281399,524.52826,790.40805)">
      <path
         style="fill:#fd003a"
         d="M 257,0 C 116.3,0 0,114.3 0,255 0,395.7 116.3,512 257,512 397.7,512 512,395.7 512,255 512,114.3 397.7,0 257,0 Z"
         id="path2753" />
      <path
         style="fill:#dd0030"
         d="M 512,255 C 512,395.7 397.7,512 257,512 V 0 c 140.7,0 255,114.3 255,255 z"
         id="path2755" />
      <path
         style="fill:#e1e4fb"
         d="m 373.7,329.099 c 11.7,11.7 11.7,30.901 0,42.601 -11.7,11.699 -30.601,11.699 -42.601,0 L 257,297.299 180.901,371.7 c -11.7,11.699 -30.901,11.699 -42.601,0 -11.7,-11.7 -11.7,-30.901 0,-42.601 L 214.701,255 138.3,180.899 C 126.6,169.2 126.6,150 138.3,138.3 c 11.7,-11.7 30.601,-11.7 42.601,0 L 257,212.699 331.099,138.3 c 12.001,-11.7 30.901,-11.7 42.601,0 11.7,11.7 11.7,30.901 0,42.599 L 299.299,255 Z"
         id="path2757" />
      <path
         style="fill:#c5c9f7"
         d="m 373.7,329.099 c 11.7,11.7 11.7,30.901 0,42.601 -11.7,11.699 -30.601,11.699 -42.601,0 L 257,297.299 v -84.6 L 331.099,138.3 c 12.001,-11.7 30.901,-11.7 42.601,0 11.7,11.7 11.7,30.901 0,42.599 L 299.299,255 Z"
         id="path2759" />
      <g
         id="g2761">
</g>
      <g
         id="g2763">
</g>
      <g
         id="g2765">
</g>
      <g
         id="g2767">
</g>
      <g
         id="g2769">
</g>
      <g
         id="g2771">
</g>
      <g
         id="g2773">
</g>
      <g
         id="g2775">
</g>
      <g
         id="g2777">
</g>
      <g
         id="g2779">
</g>
      <g
         id="g2781">
</g>
      <g
         id="g2783">
</g>
      <g
         id="g2785">
</g>
      <g
         id="g2787">
</g>
      <g
         id="g2789">
</g>
    </g>
  </g>
</svg>
