<svg height="512pt" viewBox="0 -66 512 512" width="512pt" xmlns="http://www.w3.org/2000/svg"><path d="m466.574219 380.171875h-421.148438c-25.046875 0-45.425781-20.378906-45.425781-45.425781v-289.320313c0-25.046875 20.378906-45.425781 45.425781-45.425781h421.148438c25.046875 0 45.425781 20.378906 45.425781 45.425781v289.320313c0 25.046875-20.378906 45.425781-45.425781 45.425781zm0 0" fill="#f4f4f5"/><path d="m466.574219 0c25.046875 0 45.425781 20.378906 45.425781 45.425781v289.320313c0 25.046875-20.378906 45.425781-45.425781 45.425781h-210.574219v-380.171875zm0 0" fill="#ededee"/><g fill="#fbb300"><path d="m428.308594 152.433594h-127.351563c-8.398437 0-15.203125-6.808594-15.203125-15.203125 0-8.398438 6.804688-15.207031 15.203125-15.207031h127.351563c8.398437 0 15.207031 6.808593 15.207031 15.207031 0 8.394531-6.808594 15.203125-15.207031 15.203125zm0 0"/><path d="m428.308594 205.289062h-127.351563c-8.398437 0-15.203125-6.808593-15.203125-15.203124 0-8.398438 6.804688-15.203126 15.203125-15.203126h127.351563c8.398437 0 15.207031 6.804688 15.207031 15.203126 0 8.398437-6.808594 15.203124-15.207031 15.203124zm0 0"/><path d="m428.308594 258.148438h-127.351563c-8.398437 0-15.203125-6.808594-15.203125-15.203126 0-8.398437 6.804688-15.207031 15.203125-15.207031h127.351563c8.398437 0 15.207031 6.808594 15.207031 15.207031 0 8.394532-6.808594 15.203126-15.207031 15.203126zm0 0"/></g><path d="m229.53125 274.347656h-153.039062c-8.398438 0-15.207032-6.808594-15.207032-15.203125v-138.117187c0-8.394532 6.808594-15.203125 15.207032-15.203125h153.039062c8.398438 0 15.207031 6.808593 15.207031 15.203125v138.117187c0 8.394531-6.808593 15.203125-15.207031 15.203125zm0 0" fill="#2fa1c7"/><path d="m177.753906 212.046875c5.839844-6.136719 9.4375-14.425781 9.4375-23.546875 0-18.847656-15.335937-34.179688-34.179687-34.179688-18.847657 0-34.183594 15.332032-34.183594 34.179688 0 9.121094 3.597656 17.410156 9.441406 23.546875-9.050781 5.515625-15.105469 15.476563-15.105469 26.828125v27.871094c0 4.199218 3.402344 7.601562 7.601563 7.601562h64.492187c4.199219 0 7.601563-3.402344 7.601563-7.601562v-27.871094c0-11.351562-6.054687-21.3125-15.105469-26.828125zm0 0" fill="#ffe333"/><path d="m0 306.117188v28.628906c0 25.046875 20.378906 45.425781 45.425781 45.425781h421.148438c25.046875 0 45.425781-20.375 45.425781-45.425781v-28.625h-512zm0 0" fill="#5b6aa5"/><path d="m512 334.746094c0 25.046875-20.378906 45.425781-45.425781 45.425781h-210.574219v-74.054687h256zm0 0" fill="#32458f"/><path d="m512 74.054688v-28.628907c0-25.046875-20.378906-45.425781-45.425781-45.425781h-421.148438c-25.046875 0-45.425781 20.378906-45.425781 45.425781v28.628907zm0 0" fill="#5b6aa5"/><path d="m466.574219 0c25.046875 0 45.425781 20.378906 45.425781 45.425781v28.628907h-256v-74.054688zm0 0" fill="#32458f"/></svg>