<svg id="Capa_1" enable-background="new 0 0 512 512" height="512" viewBox="0 0 512 512" width="512" xmlns="http://www.w3.org/2000/svg"><g><path d="m337.12 158.59h36v171.38h-36z" fill="#918291"/><g><g><path d="m373.12 158.59v33.52c-2.63.26-5.3.39-8 .39-9.83 0-19.26-1.72-28-4.87v-29.04z" fill="#7a6d79"/></g><g><circle cx="355.121" cy="90" fill="#98d5b9" r="82.5"/></g><g><path d="m341.075 127.612c-4.036 0-8.072-1.537-11.146-4.609l-17.81-17.81c-2.929-2.929-2.929-7.678 0-10.606 2.93-2.929 7.678-2.929 10.607 0l17.81 17.81c.295.296.781.296 1.076 0l45.901-45.901c2.93-2.929 7.678-2.929 10.607 0s2.929 7.678 0 10.606l-45.901 45.901c-3.072 3.073-7.108 4.609-11.144 4.609z" fill="#fff"/></g></g><path d="m138.879 158.593h36v171.375h-36z" fill="#918291"/><g><path d="m174.879 158.59v33.52c-2.63.26-5.3.39-8 .39-9.83 0-19.26-1.72-28-4.87v-29.04z" fill="#7a6d79"/></g><g><path d="m222.258 423.017h-29c-9.941 0-18-8.059-18-18 0-9.941 8.059-18 18-18h29c9.941 0 18 8.059 18 18 0 9.942-8.059 18-18 18z" fill="#ffcebf"/><path d="m222.258 387.017h-44c-9.941 0-18-8.059-18-18 0-9.941 8.059-18 18-18h44c9.941 0 18 8.059 18 18 0 9.942-8.059 18-18 18z" fill="#ffcebf"/><path d="m223.258 372.017c-9.941 0-18-8.059-18-18 0-1.024.105-2.022.27-3h-27.27c-9.941 0-18 8.059-18 18s8.059 18 18 18h44c8.917 0 16.299-6.49 17.73-15z" fill="#ffb09e"/><path d="m223.258 408.017c-9.941 0-18-8.059-18-18 0-1.024.105-2.022.27-3h-27.27c-9.941 0-18 8.059-18 18s8.059 18 18 18h44c8.917 0 16.299-6.49 17.73-15z" fill="#ffb09e"/><path d="m152.878 358.085v43.742c0 11.703 9.487 21.19 21.19 21.19 11.703 0 21.19-9.487 21.19-21.19v-51.86c0-16.569-13.431-30-30-30h-38.607c-8.891 0-17.418 3.532-23.705 9.819l-51.845 51.845c-5.626 5.626-8.787 13.257-8.787 21.213v77.173c0 8.284 6.716 15 15 15h120.944l51.313-20-48.498-43.451z" fill="#ffcebf"/><path d="m144.321 351.528c-1.524.423-3.725 1.27-6.095 2.963-10.074 7.026-10.582 21.163-11.851 28.358-1.608 8.888-6.772 20.74-22.348 33.946-2.032 1.693-.254 4.91 2.286 4.148 2.878-.931 5.841-2.116 8.973-3.725 18.708-9.396 27.427-25.48 30.559-32.083 8.127 12.783 16.253 25.565 24.38 38.347 5.418 0 9.735-4.317 9.735-9.65v-62.812z" fill="#ffb09e"/><path d="m208.5 405.017c0-9.941-8.059-18-18-18 10.159 0 18.352-8.416 17.988-18.656-.347-9.754-8.659-17.344-18.42-17.344h-43.568c-9.941 0-18 8.059-18 18 0 1.74.551 3.422 1.461 5.013 3.971 6.947 4.504 15.397.697 22.435-1.376 2.544-2.158 5.457-2.158 8.552 0 1.74.551 3.422 1.461 5.013 3.971 6.947 4.504 15.397.697 22.435-1.376 2.544-2.158 5.457-2.158 8.552 0 2.84.658 5.527 1.83 7.916 3.108 6.338 3.066 13.869-.023 20.216-1.247 2.561-1.904 5.461-1.795 8.525.347 9.754 8.66 17.343 18.42 17.343h43.137c9.76 0 18.073-7.589 18.42-17.343.364-10.24-7.829-18.657-17.988-18.657 9.941 0 18-8.059 18-18s-8.059-18-18-18c9.94 0 17.999-8.059 17.999-18z" fill="#ffb09e"/><path d="m152.878 351.092v50.735c0 11.703 9.487 21.19 21.19 21.19 11.703 0 21.19-9.487 21.19-21.19v-51.86c0-16.569-13.431-30-30-30z" fill="#ffcebf"/><path d="m10 377.535h21.854c5.777 0 10.46 4.683 10.46 10.46v106.045c0 5.777-4.683 10.46-10.46 10.46h-21.854c-5.523 0-10-4.477-10-10v-106.965c0-5.523 4.477-10 10-10z" fill="#fd9468"/><path d="m222.258 459.017h-44c-9.941 0-18-8.059-18-18 0-9.941 8.059-18 18-18h44c9.941 0 18 8.059 18 18 0 9.942-8.059 18-18 18z" fill="#ffcebf"/><path d="m222.258 495.017h-44c-9.941 0-18-8.059-18-18 0-9.941 8.059-18 18-18h44c9.941 0 18 8.059 18 18 0 9.942-8.059 18-18 18z" fill="#ffcebf"/><g fill="#ffb09e"><path d="m223.258 444.017c-9.941 0-18-8.059-18-18 0-1.024.105-2.022.27-3h-27.27c-9.941 0-18 8.059-18 18s8.059 18 18 18h44c8.917 0 16.299-6.49 17.73-15z"/><path d="m223.258 480.018c-9.941 0-18-8.059-18-18 0-1.024.105-2.022.27-3h-27.27c-9.941 0-18 8.059-18 18s8.059 18 18 18h44c8.917 0 16.299-6.49 17.73-15z"/></g></g><g><path d="m289.742 423.017h29c9.941 0 18-8.059 18-18 0-9.941-8.059-18-18-18h-29c-9.941 0-18 8.059-18 18 0 9.942 8.059 18 18 18z" fill="#ffcebf"/><path d="m289.742 387.017h44c9.941 0 18-8.059 18-18 0-9.941-8.059-18-18-18h-44c-9.941 0-18 8.059-18 18 0 9.942 8.059 18 18 18z" fill="#ffcebf"/><path d="m288.742 372.017c9.941 0 18-8.059 18-18 0-1.024-.105-2.022-.27-3h27.27c9.941 0 18 8.059 18 18s-8.059 18-18 18h-44c-8.917 0-16.299-6.49-17.73-15z" fill="#ffb09e"/><path d="m288.742 408.017c9.941 0 18-8.059 18-18 0-1.024-.105-2.022-.27-3h27.27c9.941 0 18 8.059 18 18s-8.059 18-18 18h-44c-8.917 0-16.299-6.49-17.73-15z" fill="#ffb09e"/><path d="m359.122 358.085v43.742c0 11.703-9.487 21.19-21.19 21.19-11.703 0-21.19-9.487-21.19-21.19v-51.86c0-16.569 13.431-30 30-30h38.607c8.891 0 17.418 3.532 23.705 9.819l51.845 51.845c5.626 5.626 8.787 13.257 8.787 21.213v77.173c0 8.284-6.716 15-15 15h-120.944l-51.313-20 48.498-43.451z" fill="#ffcebf"/><path d="m367.679 351.528c1.524.423 3.725 1.27 6.095 2.963 10.074 7.026 10.582 21.163 11.851 28.358 1.608 8.888 6.772 20.74 22.348 33.946 2.032 1.693.254 4.91-2.286 4.148-2.878-.931-5.841-2.116-8.973-3.725-18.708-9.396-27.427-25.48-30.559-32.083-8.127 12.783-16.253 25.565-24.38 38.347-5.418 0-9.735-4.317-9.735-9.65v-62.812z" fill="#ffb09e"/><path d="m303.5 405.017c0-9.941 8.059-18 18-18-10.159 0-18.352-8.416-17.988-18.656.347-9.754 8.659-17.344 18.42-17.344h43.568c9.941 0 18 8.059 18 18 0 1.74-.551 3.422-1.461 5.013-3.971 6.947-4.504 15.397-.697 22.435 1.376 2.544 2.158 5.457 2.158 8.552 0 1.74-.551 3.422-1.461 5.013-3.971 6.947-4.504 15.397-.697 22.435 1.376 2.544 2.158 5.457 2.158 8.552 0 2.84-.658 5.527-1.83 7.916-3.108 6.338-3.066 13.869.023 20.216 1.247 2.561 1.904 5.461 1.795 8.525-.347 9.754-8.66 17.343-18.42 17.343h-43.137c-9.76 0-18.073-7.589-18.42-17.343-.364-10.24 7.829-18.657 17.988-18.657-9.941 0-18-8.059-18-18s8.059-18 18-18c-9.94 0-17.999-8.059-17.999-18z" fill="#ffb09e"/><path d="m359.122 351.092v50.735c0 11.703-9.487 21.19-21.19 21.19-11.703 0-21.19-9.487-21.19-21.19v-51.86c0-16.569 13.431-30 30-30z" fill="#ffcebf"/><path d="m502 377.535h-21.854c-5.777 0-10.46 4.683-10.46 10.46v106.045c0 5.777 4.683 10.46 10.46 10.46h21.854c5.523 0 10-4.477 10-10v-106.965c0-5.523-4.477-10-10-10z" fill="#98d5b9"/><path d="m289.742 459.017h44c9.941 0 18-8.059 18-18 0-9.941-8.059-18-18-18h-44c-9.941 0-18 8.059-18 18 0 9.942 8.059 18 18 18z" fill="#ffcebf"/><path d="m289.742 495.017h44c9.941 0 18-8.059 18-18 0-9.941-8.059-18-18-18h-44c-9.941 0-18 8.059-18 18 0 9.942 8.059 18 18 18z" fill="#ffcebf"/><g fill="#ffb09e"><path d="m288.742 444.017c9.941 0 18-8.059 18-18 0-1.024-.105-2.022-.27-3h27.27c9.941 0 18 8.059 18 18s-8.059 18-18 18h-44c-8.917 0-16.299-6.49-17.73-15z"/><path d="m288.742 480.018c9.941 0 18-8.059 18-18 0-1.024-.105-2.022-.27-3h27.27c9.941 0 18 8.059 18 18s-8.059 18-18 18h-44c-8.917 0-16.299-6.49-17.73-15z"/></g></g><g><g><circle cx="156.879" cy="90" fill="#fe646f" r="82.5"/></g><path d="m167.486 90 27.468-27.468c2.929-2.929 2.929-7.678 0-10.606-2.93-2.929-7.678-2.929-10.607 0l-27.467 27.467-27.467-27.467c-2.93-2.929-7.678-2.929-10.607 0s-2.929 7.678 0 10.606l27.466 27.468-27.468 27.468c-2.929 2.929-2.929 7.678 0 10.606 1.465 1.464 3.385 2.197 5.304 2.197s3.839-.732 5.304-2.197l27.467-27.467 27.467 27.467c1.465 1.464 3.385 2.197 5.304 2.197s3.839-.732 5.304-2.197c2.929-2.929 2.929-7.678 0-10.606z" fill="#fff"/></g></g></svg>