<?xml version="1.0" encoding="UTF-8" standalone="no"?>
<svg
   xmlns:dc="http://purl.org/dc/elements/1.1/"
   xmlns:cc="http://creativecommons.org/ns#"
   xmlns:rdf="http://www.w3.org/1999/02/22-rdf-syntax-ns#"
   xmlns:svg="http://www.w3.org/2000/svg"
   xmlns="http://www.w3.org/2000/svg"
   xmlns:sodipodi="http://sodipodi.sourceforge.net/DTD/sodipodi-0.dtd"
   xmlns:inkscape="http://www.inkscape.org/namespaces/inkscape"
   height="463.80078pt"
   viewBox="0 -24 319.20312 462.89492"
   width="319.20312pt"
   version="1.1"
   id="svg90"
   sodipodi:docname="person-base.svg"
   inkscape:version="1.0 (4035a4fb49, 2020-05-01)">
  <metadata
     id="metadata96">
    <rdf:RDF>
      <cc:Work
         rdf:about="">
        <dc:format>image/svg+xml</dc:format>
        <dc:type
           rdf:resource="http://purl.org/dc/dcmitype/StillImage" />
        <dc:title></dc:title>
      </cc:Work>
    </rdf:RDF>
  </metadata>
  <defs
     id="defs94" />
  <sodipodi:namedview
     inkscape:document-rotation="0"
     pagecolor="#ffffff"
     bordercolor="#666666"
     borderopacity="1"
     objecttolerance="10"
     gridtolerance="10"
     guidetolerance="10"
     inkscape:pageopacity="0"
     inkscape:pageshadow="2"
     inkscape:window-width="1920"
     inkscape:window-height="1026"
     id="namedview92"
     showgrid="false"
     inkscape:zoom="1.1279297"
     inkscape:cx="210.56277"
     inkscape:cy="308"
     inkscape:window-x="0"
     inkscape:window-y="28"
     inkscape:window-maximized="1"
     inkscape:current-layer="svg90" />
  <path
     d="M 159.60156,168.30078 C 71.597656,168.30078 0,239.89453 0,327.89844 v 56.23437 c 0,30.42188 24.746094,55.16797 55.164062,55.16797 H 264.03125 c 30.42187,0 55.16797,-24.74609 55.16797,-55.16797 v -56.23437 c 0,-88.00391 -71.59375,-159.59766 -159.59766,-159.59766 z m 0,0"
     fill="#0065a3"
     id="path72" />
  <path
     d="m 159.60156,168.30078 v 271 h 104.4336 c 30.41796,0 55.16796,-24.74609 55.16796,-55.16797 v -56.23437 c -0.004,-88.00391 -71.59765,-159.59766 -159.60156,-159.59766 z m 0,0"
     fill="#005183"
     id="path74" />
  <path
     d="m 159.60156,-24.5 c -61.425779,0 -111.402341,49.972656 -111.402341,111.39844 0,61.42968 49.976562,111.40234 111.402341,111.40234 C 221.02734,198.30078 271,148.32422 271,86.89844 271,25.472656 221.02734,-24.5 159.60156,-24.5 Z m 0,0"
     fill="#e7f0ef"
     id="path82" />
  <path
     style="fill:#c5e1e6"
     id="path84"
     d="M 159.60156,-24.5 V 198.30078 C 221.02734,198.30078 271,148.32812 271,86.89844 271,25.472656 221.02734,-24.5 159.60156,-24.5 Z m 0,0" />
</svg>
