<svg id="Capa_1" enable-background="new 0 0 512 512" height="512" viewBox="0 0 512 512" width="512" xmlns="http://www.w3.org/2000/svg"><g><path d="m99.048 82.471c-1.786-6.578-7.784-11.423-14.927-11.423h-35.315c-7.144 0-13.141 4.844-14.928 11.423l32.585 9z" fill="#bed8fb"/><path d="m33.878 82.472c-.352 1.296-.556 2.654-.556 4.061v14.519l33.141 9 33.141-9v-14.519c0-1.408-.204-2.765-.556-4.061z" fill="#a3caf7"/><path d="m491.355 101.052h-470.71c-11.402 0-20.645 9.243-20.645 20.645v66.509h512v-66.509c0-11.402-9.243-20.645-20.645-20.645z" fill="#a6aec4"/><path d="m199.546 82.471c-1.786-6.578-7.784-11.423-14.928-11.423h-35.315c-7.144 0-13.141 4.844-14.927 11.423l32.585 9z" fill="#bed8fb"/><path d="m134.376 82.472c-.352 1.296-.557 2.654-.557 4.061v14.519l33.141 9 33.141-9v-14.519c0-1.408-.204-2.765-.557-4.061z" fill="#a3caf7"/><path d="m512 169.626v-47.929c0-11.402-9.243-20.645-20.645-20.645h-470.71c-11.402 0-20.645 9.243-20.645 20.645v47.929l256 9z" fill="#a6aec4"/><path d="m0 188.207 260.367 9 251.633-9v-18.581h-512z" fill="#959db0"/><path d="m465.734 158.526h-29.061c-7.675 0-13.897-6.222-13.897-13.897 0-7.675 6.222-13.897 13.897-13.897h29.061c7.675 0 13.897 6.222 13.897 13.897 0 7.675-6.222 13.897-13.897 13.897z" fill="#edc963"/><path d="m465.734 158.526h-29.061c-7.675 0-13.897-6.222-13.897-13.897 0-7.675 6.222-13.897 13.897-13.897h29.061c7.675 0 13.897 6.222 13.897 13.897 0 7.675-6.222 13.897-13.897 13.897z" fill="#edc963"/><path d="m465.734 139.946h-29.061c-4.098 0-7.771-1.785-10.314-4.607-2.22 2.463-3.583 5.714-3.583 9.29 0 7.675 6.222 13.897 13.897 13.897h29.061c7.675 0 13.897-6.222 13.897-13.897 0-3.577-1.363-6.827-3.583-9.29-2.543 2.822-6.216 4.607-10.314 4.607z" fill="#e7b93e"/><path d="m0 188.207h512v193.461h-512z" fill="#434d59"/><path d="m512 381.667v-193.46h-512v193.46l260.367 9z" fill="#434d59"/><path d="m20.645 440.951h470.71c11.402 0 20.645-9.243 20.645-20.645v-38.638h-512v38.638c0 11.402 9.243 20.645 20.645 20.645z" fill="#a6aec4"/><path d="m20.645 431.37h470.71c17.426 0 20.645-18.243 20.645-29.645v-20.058h-512v20.058c0 11.402 0 29.645 20.645 29.645z" fill="#a6aec4"/><path d="m47.275 314.521c0 7.762 10.314 20.267 18.321 20.267s18.321-12.829 18.321-20.267c-3.395-6.68-10.315-11.267-18.321-11.267s-14.927 4.587-18.321 11.267z" fill="#df667c"/><path d="m152.524 287.991 4.804-9.223v.001l8.833-13.665-6.845-17.769c-1.95-.48-3.98-.756-6.078-.756-10.798 0-20.02 6.727-23.719 16.217 0 17.347 12.164 25.195 23.005 25.195z" fill="#eceaec"/><path d="m153.325 279.083c-10.841 0-20.098-6.757-23.805-16.287-1.117 2.865-1.736 5.979-1.736 9.239 0 14.059 11.397 25.455 25.455 25.455 2.098 0 4.128-.276 6.078-.755l4.005-10.346-5.993-7.62c-1.306.204-2.642.314-4.004.314z" fill="#dad8db"/><path d="m157.477 262.744c0 73.339 56.46 141.378 141.357 141.378 80.39 0 141.357-67.68 141.357-141.377-4.786-73.91-66.238-132.379-141.357-132.379s-136.571 58.469-141.357 132.378z" fill="#dad8db"/><path d="m193.795 262.744c4.705 53.887 33.085 105.161 105.04 105.161 71.467 0 100.334-51.274 105.039-105.161-4.705-53.887-49.931-96.161-105.039-96.161s-100.336 42.275-105.04 96.161c0 .001 0 .001 0 0z" fill="#454d58"/><path d="m261.504 262.744c0 17.399 9.717 38.177 37.33 38.177 25.398 0 37.33-20.778 37.33-38.176-4.156-16.755-19.29-29.177-37.33-29.177s-33.174 12.422-37.33 29.176c0 .001 0 .001 0 0z" fill="#a6aec4"/><path d="m337.301 272.035c0-3.204-.398-6.314-1.136-9.29-4.157 16.755-19.29 29.177-37.33 29.177-18.041 0-33.174-12.421-37.33-29.177-.738 2.976-1.137 6.086-1.137 9.29 0 21.245 17.222 38.467 38.467 38.467 21.244 0 38.466-17.223 38.466-38.467z" fill="#959db0"/><path d="m404.286 272.035c0-3.131-.145-6.228-.412-9.29-4.705 53.887-49.932 96.161-105.039 96.161-55.108 0-100.335-42.274-105.04-96.161-.267 3.062-.412 6.159-.412 9.29 0 58.239 47.212 105.452 105.452 105.452 58.239-.001 105.451-47.213 105.451-105.452z" fill="#3c434c"/><path d="m440.503 272.035c0-3.122-.112-6.218-.311-9.29-4.786 73.909-66.238 132.378-141.357 132.378s-136.571-58.469-141.357-132.378c-.199 3.072-.311 6.168-.311 9.29 0 78.241 63.427 141.668 141.668 141.668s141.668-63.427 141.668-141.668z" fill="#c8c5c9"/><path d="m491.355 422.37h-470.71c-11.402 0-20.645-9.243-20.645-20.645v18.581c0 11.402 9.243 20.645 20.645 20.645h470.71c11.402 0 20.645-9.243 20.645-20.645v-18.581c0 11.402-9.243 20.645-20.645 20.645z" fill="#959db0"/><path d="m86.153 323.811c0-3.347-.817-6.498-2.236-9.29-3.395 6.68-10.315 11.267-18.321 11.267s-14.926-4.587-18.321-11.267c-1.419 2.793-2.236 5.943-2.236 9.29 0 11.353 9.204 20.557 20.557 20.557s20.557-9.203 20.557-20.557z" fill="#dc4857"/></g></svg>