<?xml version="1.0" encoding="UTF-8" standalone="no"?>
<svg
   xmlns:dc="http://purl.org/dc/elements/1.1/"
   xmlns:cc="http://creativecommons.org/ns#"
   xmlns:rdf="http://www.w3.org/1999/02/22-rdf-syntax-ns#"
   xmlns:svg="http://www.w3.org/2000/svg"
   xmlns="http://www.w3.org/2000/svg"
   xmlns:sodipodi="http://sodipodi.sourceforge.net/DTD/sodipodi-0.dtd"
   xmlns:inkscape="http://www.inkscape.org/namespaces/inkscape"
   inkscape:version="1.0 (4035a4fb49, 2020-05-01)"
   sodipodi:docname="add (1).svg"
   id="svg16"
   version="1.1"
   width="512pt"
   viewBox="0 0 512 512"
   height="512pt">
  <metadata
     id="metadata22">
    <rdf:RDF>
      <cc:Work
         rdf:about="">
        <dc:format>image/svg+xml</dc:format>
        <dc:type
           rdf:resource="http://purl.org/dc/dcmitype/StillImage" />
      </cc:Work>
    </rdf:RDF>
  </metadata>
  <defs
     id="defs20" />
  <sodipodi:namedview
     inkscape:current-layer="svg16"
     inkscape:window-maximized="1"
     inkscape:window-y="22"
     inkscape:window-x="0"
     inkscape:cy="341.33333"
     inkscape:cx="341.33333"
     inkscape:zoom="1.1279297"
     showgrid="false"
     id="namedview18"
     inkscape:window-height="1032"
     inkscape:window-width="1920"
     inkscape:pageshadow="2"
     inkscape:pageopacity="0"
     guidetolerance="10"
     gridtolerance="10"
     objecttolerance="10"
     borderopacity="1"
     bordercolor="#666666"
     pagecolor="#ffffff" />
  <path
     id="path2"
     fill="#eceff1"
     d="m341.332031 48v157.652344c-10.238281 1.921875-20.265625 4.90625-29.652343 8.746094-63.785157 24.75-109.011719 86.613281-109.011719 158.933593 0 18.5625 2.984375 36.695313 8.746093 53.335938h-163.414062c-26.390625 0-48-21.613281-48-48v-330.667969c0-26.390625 21.609375-48 48-48h245.332031c26.519531 0 48 21.484375 48 48zm0 0" />
  <path
     id="path4"
     fill="#ffc107"
     d="m128 138.667969c0 17.671875-14.328125 32-32 32s-32-14.328125-32-32c0-17.675781 14.328125-32 32-32s32 14.324219 32 32zm0 0" />
  <path
     id="path6"
     fill="#4caf50"
     d="m202.667969 373.332031c0 18.5625 2.984375 36.695313 8.746093 53.335938h-163.414062c-26.453125 0-48-21.546875-48-48v-70.613281l48.214844-48.214844c14.503906-14.507813 38.398437-14.507813 52.90625 0l26.878906 26.878906 101.546875-101.546875c14.507813-14.503906 38.398437-14.503906 52.90625 0l29.226563 29.226563c-63.785157 24.75-109.011719 86.613281-109.011719 158.933593zm0 0" />
  <path
     id="path8"
     fill="#4caf50"
     d="m512 373.332031c0 76.585938-62.082031 138.667969-138.667969 138.667969-76.582031 0-138.664062-62.082031-138.664062-138.667969 0-76.582031 62.082031-138.664062 138.664062-138.664062 76.585938 0 138.667969 62.082031 138.667969 138.664062zm0 0" />
  <g
     id="g14"
     fill="#fff">
    <path
       id="path10"
       d="m373.332031 448c-8.832031 0-16-7.167969-16-16v-117.332031c0-8.832031 7.167969-16 16-16s16 7.167969 16 16v117.332031c0 8.832031-7.167969 16-16 16zm0 0" />
    <path
       id="path12"
       d="m432 389.332031h-117.332031c-8.832031 0-16-7.167969-16-16s7.167969-16 16-16h117.332031c8.832031 0 16 7.167969 16 16s-7.167969 16-16 16zm0 0" />
  </g>
  <path
     transform="scale(0.74999998)"
     id="path847"
     d="M 54.999641,567.75458 C 34.842871,564.81819 16.205687,551.24831 7.1789005,532.93591 0.81679373,520.02928 0.98074606,521.7688 0.65574238,463.72576 L 0.36309834,411.4619 34.314883,377.46862 c 18.673481,-18.6963 35.98992,-35.35677 38.480974,-37.02327 14.410557,-9.64056 34.201613,-10.40439 50.438773,-1.94664 4.09317,2.13208 10.17861,7.57325 26.39745,23.60279 l 21.07797,20.83194 70.68307,-70.57908 70.68307,-70.57908 7.63162,-3.6524 c 14.73202,-7.05056 28.58432,-7.03438 43.32037,0.0506 7.20002,3.46172 8.61762,4.68462 29.59172,25.52751 l 22.02942,21.89161 -8.73072,3.80102 c -25.43253,11.07238 -48.51296,26.93279 -69.07334,47.46585 -35.38121,35.3342 -56.6815,77.48968 -64.73486,128.11705 -1.9334,12.15431 -2.62879,40.74385 -1.30576,53.68437 1.49156,14.5891 3.91552,27.57929 7.42348,39.78313 l 2.95988,10.29711 -110.45028,-0.10811 c -60.74765,-0.0595 -112.829787,-0.45476 -115.738079,-0.87844 z"
     style="fill:#0a5ac9;stroke-width:0.88658" />
  <path
     transform="scale(0.74999998)"
     id="path849"
     d="m 478.75325,681.25001 c -34.47366,-3.58466 -70.59932,-18.63834 -97.33596,-40.56023 -7.48701,-6.13875 -21.79605,-20.54467 -27.69397,-27.88147 -25.66647,-31.92818 -40.39918,-74.20829 -40.28961,-115.62359 0.18485,-69.86618 40.40193,-134.04162 103.25893,-164.77297 51.83687,-25.34351 110.44561,-25.34175 162.24416,0.005 36.72597,17.97114 65.95189,47.20884 84.24206,84.27603 44.80258,90.79773 7.6682,200.25204 -83.4946,246.10198 -30.49887,15.33926 -66.89558,21.99446 -100.93101,18.45537 z m 28.72082,-85.88139 c 4.21563,-2.17356 8.4932,-6.72265 10.44906,-11.11234 1.39551,-3.13205 1.61609,-7.14535 1.88826,-34.35498 l 0.30818,-30.80866 30.73848,-0.0195 c 27.91202,-0.0177 31.06458,-0.16907 34.28481,-1.64628 7.79027,-3.57362 12.28838,-10.75256 12.28838,-19.61218 0,-8.94804 -3.97171,-15.35325 -12.28838,-19.81757 -3.39922,-1.82467 -4.82135,-1.91537 -34.28448,-2.18633 l -30.73816,-0.2827 -0.33038,-30.30432 c -0.23716,-21.75399 -0.64626,-31.05476 -1.44992,-32.96406 -2.15216,-5.113 -5.56022,-9.08545 -9.75183,-11.36681 -11.27672,-6.13756 -23.76931,-2.60995 -29.89115,8.44054 l -2.60343,4.69947 -0.28276,30.74755 -0.28275,30.74755 -30.74755,0.28275 -30.74755,0.28276 -4.69943,2.60343 c -12.99442,7.19875 -15.38404,23.97796 -4.92043,34.5498 5.62654,5.68474 6.45947,5.80496 40.36772,5.82643 l 30.74785,0.0195 0.28245,31.25194 c 0.27111,29.99724 0.35896,31.3948 2.18812,34.8099 6.00801,11.21707 18.87898,15.67734 29.47489,10.21413 z"
     style="fill:#1168d8;stroke-width:0.88658;fill-opacity:1" />
  <path
     transform="scale(0.74999998)"
     id="path851"
     d="m 152.04848,567.87276 -99.740255,-0.4615 -7.092641,-2.50333 C 27.148975,558.5314 14.908877,547.5267 6.4767401,530.07901 1.8059643,520.41428 1.487119,516.19063 1.078473,458.56963 L 0.74670364,411.78861 36.313439,376.48746 c 31.079372,-30.8473 36.289572,-35.65624 41.295912,-38.11558 15.406385,-7.5683 34.133419,-6.71259 47.676939,2.17855 2.59127,1.70113 13.88361,12.12566 25.09408,23.16561 l 20.38267,20.07264 71.09986,-71.01659 c 47.83507,-47.77904 72.31075,-71.61802 74.80047,-72.85462 8.31143,-4.12813 16.74736,-6.30362 24.44373,-6.30362 8.53697,0 14.3629,1.49679 23.25437,5.97445 5.31205,2.67511 9.23731,6.13944 27.78223,24.51989 l 21.59618,21.40463 -8.7193,3.85583 c -26.76067,11.83408 -49.61948,28.01593 -71.6802,50.74274 -32.15221,33.12298 -52.02219,72.22551 -60.76485,119.58038 -2.40924,13.04973 -3.43316,49.21031 -1.77369,62.63936 1.83821,14.8755 4.94827,29.62194 9.46075,44.85848 0.42609,1.43871 -0.59236,1.53673 -14.00717,1.34808 -7.95668,-0.11189 -59.34979,-0.41111 -114.20694,-0.66493 z"
     style="fill:#1168d8;fill-opacity:1;stroke-width:0.88658" />
</svg>
