<?xml version="1.0" encoding="UTF-8" standalone="no"?>
<svg
   xmlns:dc="http://purl.org/dc/elements/1.1/"
   xmlns:cc="http://creativecommons.org/ns#"
   xmlns:rdf="http://www.w3.org/1999/02/22-rdf-syntax-ns#"
   xmlns:svg="http://www.w3.org/2000/svg"
   xmlns="http://www.w3.org/2000/svg"
   xmlns:sodipodi="http://sodipodi.sourceforge.net/DTD/sodipodi-0.dtd"
   xmlns:inkscape="http://www.inkscape.org/namespaces/inkscape"
   inkscape:version="1.0 (4035a4fb49, 2020-05-01)"
   sodipodi:docname="add-accepted.svg"
   id="svg90"
   version="1.1"
   width="512pt"
   viewBox="0 -24 512 511"
   height="512pt">
  <metadata
     id="metadata96">
    <rdf:RDF>
      <cc:Work
         rdf:about="">
        <dc:format>image/svg+xml</dc:format>
        <dc:type
           rdf:resource="http://purl.org/dc/dcmitype/StillImage" />
        <dc:title></dc:title>
      </cc:Work>
    </rdf:RDF>
  </metadata>
  <defs
     id="defs94" />
  <sodipodi:namedview
     inkscape:current-layer="svg90"
     inkscape:window-maximized="1"
     inkscape:window-y="28"
     inkscape:window-x="0"
     inkscape:cy="341.33333"
     inkscape:cx="210.56277"
     inkscape:zoom="1.1279297"
     showgrid="false"
     id="namedview92"
     inkscape:window-height="1026"
     inkscape:window-width="1920"
     inkscape:pageshadow="2"
     inkscape:pageopacity="0"
     guidetolerance="10"
     gridtolerance="10"
     objecttolerance="10"
     borderopacity="1"
     bordercolor="#666666"
     pagecolor="#ffffff" />
  <path
     id="path72"
     fill="#0065a3"
     d="m159.601562 193.300781c-88.003906 0-159.601562 71.59375-159.601562 159.597657v56.234374c0 30.421876 24.746094 55.167969 55.164062 55.167969h208.867188c30.421875 0 55.167969-24.746093 55.167969-55.167969v-56.234374c0-88.003907-71.59375-159.597657-159.597657-159.597657zm0 0" />
  <path
     id="path74"
     fill="#005183"
     d="m159.601562 193.300781v271h104.433594c30.417969 0 55.167969-24.746093 55.167969-55.167969v-56.234374c-.003906-88.003907-71.597656-159.597657-159.601563-159.597657zm0 0" />
  <path
     id="path82"
     fill="#e7f0ef"
     d="m159.601562.5c-61.425781 0-111.402343 49.972656-111.402343 111.398438 0 61.429687 49.976562 111.402343 111.402343 111.402343 61.425782 0 111.398438-49.976562 111.398438-111.402343 0-61.425782-49.972656-111.398438-111.398438-111.398438zm0 0" />
  <path
     d="M 159.60156,0.5 V 223.30078 C 221.02734,223.30078 271,173.32812 271,111.89844 271,50.472656 221.02734,0.5 159.60156,0.5 Z m 0,0"
     id="path84"
     style="fill:#c5e1e6" />
  <g
     transform="matrix(0.58096146,0,0,0.5543836,214.08636,202.70984)"
     id="g416">
    <path
       style="fill:#c2fb3b"
       d="M 505.182,113.795 439.346,47.961 c -9.089,-9.09 -23.827,-9.089 -32.917,0 L 256,198.392 171.406,282.986 105.567,217.147 c -4.365,-4.365 -10.285,-6.817 -16.459,-6.817 -6.173,0 -12.094,2.452 -16.458,6.818 l -65.832,65.84 c -9.09,9.09 -9.09,23.827 0,32.917 l 148.124,148.133 c 4.363,4.365 10.285,6.817 16.458,6.817 6.174,0 12.094,-2.453 16.458,-6.817 l 68.141,-68.141 249.184,-249.184 c 4.365,-4.365 6.818,-10.285 6.818,-16.458 -0.002,-6.174 -2.454,-12.095 -6.819,-16.46 z"
       id="path358" />
    <path
       style="fill:#9cdd05"
       d="m 154.942,464.039 c 4.363,4.365 10.285,6.818 16.458,6.818 6.174,0 12.094,-2.453 16.458,-6.818 l 68.141,-68.141 V 198.394 l -84.594,84.594 -65.839,-65.839 c -4.365,-4.365 -10.285,-6.817 -16.458,-6.817 -6.173,0 -12.094,2.452 -16.458,6.818 L 6.818,282.988 c -9.09,9.09 -9.09,23.827 0,32.917 z"
       id="path360" />
    <g
       id="g362">
</g>
    <g
       id="g364">
</g>
    <g
       id="g366">
</g>
    <g
       id="g368">
</g>
    <g
       id="g370">
</g>
    <g
       id="g372">
</g>
    <g
       id="g374">
</g>
    <g
       id="g376">
</g>
    <g
       id="g378">
</g>
    <g
       id="g380">
</g>
    <g
       id="g382">
</g>
    <g
       id="g384">
</g>
    <g
       id="g386">
</g>
    <g
       id="g388">
</g>
    <g
       id="g390">
</g>
  </g>
</svg>
