<?xml version="1.0" encoding="UTF-8" standalone="no"?>
<svg
   xmlns:dc="http://purl.org/dc/elements/1.1/"
   xmlns:cc="http://creativecommons.org/ns#"
   xmlns:rdf="http://www.w3.org/1999/02/22-rdf-syntax-ns#"
   xmlns:svg="http://www.w3.org/2000/svg"
   xmlns="http://www.w3.org/2000/svg"
   xmlns:sodipodi="http://sodipodi.sourceforge.net/DTD/sodipodi-0.dtd"
   xmlns:inkscape="http://www.inkscape.org/namespaces/inkscape"
   height="466.66168pt"
   viewBox="0 -24 397.10919 465.75023"
   width="397.10919pt"
   version="1.1"
   id="svg90"
   sodipodi:docname="answer-request.svg"
   inkscape:version="1.0.1 (3bc2e813f5, 2020-09-07)">
  <metadata
     id="metadata96">
    <rdf:RDF>
      <cc:Work
         rdf:about="">
        <dc:format>image/svg+xml</dc:format>
        <dc:type
           rdf:resource="http://purl.org/dc/dcmitype/StillImage" />
        <dc:title></dc:title>
      </cc:Work>
    </rdf:RDF>
  </metadata>
  <defs
     id="defs94" />
  <sodipodi:namedview
     inkscape:document-rotation="0"
     pagecolor="#ffffff"
     bordercolor="#666666"
     borderopacity="1"
     objecttolerance="10"
     gridtolerance="10"
     guidetolerance="10"
     inkscape:pageopacity="0"
     inkscape:pageshadow="2"
     inkscape:window-width="1920"
     inkscape:window-height="1030"
     id="namedview92"
     showgrid="false"
     inkscape:zoom="1.1279297"
     inkscape:cx="210.56277"
     inkscape:cy="308.06275"
     inkscape:window-x="0"
     inkscape:window-y="24"
     inkscape:window-maximized="1"
     inkscape:current-layer="svg90"
     fit-margin-top="0"
     fit-margin-left="0"
     fit-margin-right="0"
     fit-margin-bottom="0" />
  <path
     d="M 159.60156,168.34784 C 71.597656,168.34784 0,239.94159 0,327.9455 v 56.23437 c 0,30.42188 24.746094,55.16797 55.164062,55.16797 H 264.03125 c 30.42187,0 55.16797,-24.74609 55.16797,-55.16797 V 327.9455 c 0,-88.00391 -71.59375,-159.59766 -159.59766,-159.59766 z m 0,0"
     fill="#0065a3"
     id="path72" />
  <path
     d="m 159.60156,168.34784 v 271 h 104.4336 c 30.41796,0 55.16796,-24.74609 55.16796,-55.16797 V 327.9455 c -0.004,-88.00391 -71.59765,-159.59766 -159.60156,-159.59766 z m 0,0"
     fill="#005183"
     id="path74" />
  <path
     d="m 159.60156,-24.45294 c -61.425779,0 -111.402341,49.972656 -111.402341,111.39844 0,61.42968 49.976562,111.40234 111.402341,111.40234 C 221.02734,198.34784 271,148.37128 271,86.9455 271,25.519716 221.02734,-24.45294 159.60156,-24.45294 Z m 0,0"
     fill="#e7f0ef"
     id="path82" />
  <path
     style="fill:#c5e1e6"
     id="path84"
     d="M 159.60156,-24.45294 V 198.34784 C 221.02734,198.34784 271,148.37518 271,86.9455 271,25.519716 221.02734,-24.45294 159.60156,-24.45294 Z m 0,0" />
  <g
     id="g2582"
     transform="matrix(0.48221954,0,0,0.46402125,150.21297,204.62895)">
    <path
       style="fill:#feeb70"
       d="m 475.61,512.001 c -3.988,0 -8.02,-0.659 -11.954,-2.011 L 361.363,474.841 c -34.175,16.906 -72.266,25.847 -110.594,25.907 -0.128,0 -0.265,0 -0.394,0 C 184.515,500.749 122.267,475.221 75.043,428.837 27.718,382.355 1.08,320.416 0.035,254.431 -0.512,219.877 5.851,186.314 18.948,154.674 31.58,124.157 49.879,96.79 73.336,73.334 96.792,49.878 124.159,31.579 154.676,18.946 186.316,5.849 219.863,-0.52 254.433,0.034 c 65.985,1.046 127.924,27.685 174.405,75.01 46.473,47.316 72.011,109.724 71.909,175.727 -0.06,38.328 -9.001,76.419 -25.907,110.593 l 35.149,102.293 v 0 c 4.564,13.283 1.229,27.703 -8.701,37.634 -6.987,6.988 -16.204,10.71 -25.678,10.71 z"
       id="path2506" />
    <path
       style="fill:#fcb629"
       d="M 474.841,361.363 C 491.747,327.19 500.688,289.098 500.748,250.771 500.85,184.769 475.313,122.361 428.839,75.044 382.357,27.719 320.418,1.081 254.433,0.034 253.078,0.013 251.727,0.02 250.374,0.02 v 500.729 c 0.129,0 0.265,0 0.394,0 38.328,-0.059 76.419,-9 110.594,-25.907 l 102.293,35.149 c 3.934,1.352 7.966,2.011 11.954,2.011 9.475,0 18.69,-3.723 25.679,-10.712 9.931,-9.931 13.265,-24.351 8.701,-37.634 z"
       id="path2508" />
    <g
       id="g2514">
	<path
   style="fill:#ff52a8"
   d="m 247.911,393.104 c 7.939,0 15.545,-6.981 15.178,-15.178 -0.368,-8.223 -6.669,-15.178 -15.178,-15.178 -7.939,0 -15.545,6.981 -15.178,15.178 0.368,8.223 6.669,15.178 15.178,15.178 z"
   id="path2510" />

	<path
   style="fill:#ff52a8"
   d="m 247.911,340.609 c -8.382,0 -15.178,-6.796 -15.178,-15.178 v -61.905 c 0,-8.382 6.796,-15.178 15.178,-15.178 24.9,0 45.159,-20.259 45.159,-45.159 0,-24.9 -20.259,-45.159 -45.159,-45.159 -24.9,0 -45.159,20.259 -45.159,45.159 0,8.382 -6.796,15.178 -15.178,15.178 -8.382,0 -15.178,-6.796 -15.178,-15.178 0,-41.639 33.876,-75.515 75.515,-75.515 41.639,0 75.515,33.876 75.515,75.515 0,36.442 -25.947,66.937 -60.337,73.982 v 48.259 c 0,8.384 -6.796,15.179 -15.178,15.179 z"
   id="path2512" />

</g>
    <g
       id="g2520">
	<path
   style="fill:#e53045"
   d="m 293.07,203.19 c 0,24.9 -20.259,45.159 -45.159,45.159 v 92.261 c 8.382,0 15.178,-6.796 15.178,-15.178 v -48.259 c 34.389,-7.045 60.337,-37.54 60.337,-73.982 0,-41.639 -33.876,-75.515 -75.515,-75.515 v 30.356 c 24.9,-0.001 45.159,20.257 45.159,45.158 z"
   id="path2516" />

	<path
   style="fill:#e53045"
   d="m 263.089,377.926 c -0.368,-8.223 -6.669,-15.178 -15.178,-15.178 v 30.356 c 7.939,0 15.545,-6.982 15.178,-15.178 z"
   id="path2518" />

</g>
    <g
       id="g2522">
</g>
    <g
       id="g2524">
</g>
    <g
       id="g2526">
</g>
    <g
       id="g2528">
</g>
    <g
       id="g2530">
</g>
    <g
       id="g2532">
</g>
    <g
       id="g2534">
</g>
    <g
       id="g2536">
</g>
    <g
       id="g2538">
</g>
    <g
       id="g2540">
</g>
    <g
       id="g2542">
</g>
    <g
       id="g2544">
</g>
    <g
       id="g2546">
</g>
    <g
       id="g2548">
</g>
    <g
       id="g2550">
</g>
  </g>
</svg>
