<svg id="Capa_1" enable-background="new 0 0 512.074 512.074" height="512" viewBox="0 0 512.074 512.074" width="512" xmlns="http://www.w3.org/2000/svg"><g><g><path d="m195.784 99.723h-118.5l-77.284 128.406 85.595 10 64.959-10z" fill="#96c8ef"/><path d="m0 228.129 255.106 223.407-104.552-223.407z" fill="#69b1e9"/><path d="m512.074 228.129-77.283-128.406h-118.5l45.23 128.406 52.661 10z" fill="#69b1e9"/><path d="m361.521 228.129-104.553 223.407 255.106-223.407z" fill="#3d9ae2"/><g><path d="m195.784 99.723-55.23 128.406 115.483 10 10-61.76-10-76.646z" fill="#69b1e9"/><path d="m316.291 99.723h-60.254v138.406l115.484-10z" fill="#3d9ae2"/></g><g><path d="m140.554 228.129 114.552 223.407.931.815 10-166.314-10-57.908z" fill="#3d9ae2"/><path d="m256.037 228.129v224.222l.931-.815 114.553-223.407z" fill="#1c78bf"/></g></g><g><path d="m241.037.037v59.867h15l10-29.933-10-29.934z" fill="#ffe477"/><path d="m256.037.037h15v59.867h-15z" fill="#ffb655"/></g><g><path d="m297.27 23.738h59.868v30h-59.868z" fill="#ffb655" transform="matrix(.707 -.707 .707 .707 68.444 242.714)"/></g><g><path d="m169.871 8.804h30v59.867h-30z" fill="#ffe477" transform="matrix(.707 -.707 .707 .707 26.756 142.07)"/></g><g><path d="m422.981 408.047h30v59.868h-30z" fill="#ffb655" transform="matrix(.707 -.707 .707 .707 -181.418 437.985)"/></g><g><path d="m366.459 452.17h30v59.867h-30z" fill="#ffb655"/></g><g><path d="m452.17 366.459h59.867v30h-59.867z" fill="#ffb655"/></g><g><path d="m44.16 422.981h59.867v30h-59.867z" fill="#ffe477" transform="matrix(.707 -.707 .707 .707 -287.998 180.674)"/></g><g><path d="m115.615 452.17h30v59.867h-30z" fill="#ffe477"/></g><g><path d="m.037 366.459h59.867v30h-59.867z" fill="#ffe477"/></g></g></svg>