<?xml version="1.0" encoding="UTF-8" standalone="no"?>
<svg
   xmlns:dc="http://purl.org/dc/elements/1.1/"
   xmlns:cc="http://creativecommons.org/ns#"
   xmlns:rdf="http://www.w3.org/1999/02/22-rdf-syntax-ns#"
   xmlns:svg="http://www.w3.org/2000/svg"
   xmlns="http://www.w3.org/2000/svg"
   xmlns:sodipodi="http://sodipodi.sourceforge.net/DTD/sodipodi-0.dtd"
   xmlns:inkscape="http://www.inkscape.org/namespaces/inkscape"
   version="1.1"
   id="Capa_1"
   x="0px"
   y="0px"
   viewBox="0 0 512 512"
   style="enable-background:new 0 0 512 512;"
   xml:space="preserve"
   sodipodi:docname="paper-plane-green.svg"
   inkscape:version="1.0.2 (e86c870879, 2021-01-15, custom)"><metadata
   id="metadata41"><rdf:RDF><cc:Work
       rdf:about=""><dc:format>image/svg+xml</dc:format><dc:type
         rdf:resource="http://purl.org/dc/dcmitype/StillImage" /><dc:title></dc:title></cc:Work></rdf:RDF></metadata><defs
   id="defs39" /><sodipodi:namedview
   pagecolor="#ffffff"
   bordercolor="#666666"
   borderopacity="1"
   objecttolerance="10"
   gridtolerance="10"
   guidetolerance="10"
   inkscape:pageopacity="0"
   inkscape:pageshadow="2"
   inkscape:window-width="1920"
   inkscape:window-height="1028"
   id="namedview37"
   showgrid="false"
   inkscape:zoom="1"
   inkscape:cx="3.1745827"
   inkscape:cy="170.01828"
   inkscape:window-x="0"
   inkscape:window-y="28"
   inkscape:window-maximized="1"
   inkscape:current-layer="Capa_1" />

<path
   style="fill:#1fbf66;fill-opacity:1"
   d="M507.607,4.395L198.522,313.477l92.182,190.068c2.514,5.184,7.764,8.454,13.493,8.454  c0.178,0,0.357-0.003,0.536-0.01c5.936-0.211,11.188-3.904,13.394-9.419L510.928,20.573C513.156,15.002,511.85,8.638,507.607,4.395  L507.607,4.395z"
   id="path4" />
<g
   id="g6">
</g>
<g
   id="g8">
</g>
<g
   id="g10">
</g>
<g
   id="g12">
</g>
<g
   id="g14">
</g>
<g
   id="g16">
</g>
<g
   id="g18">
</g>
<g
   id="g20">
</g>
<g
   id="g22">
</g>
<g
   id="g24">
</g>
<g
   id="g26">
</g>
<g
   id="g28">
</g>
<g
   id="g30">
</g>
<g
   id="g32">
</g>
<g
   id="g34">
</g>
<path
   style="fill:#51e360;stroke-width:1.44757;stroke-dasharray:5.79028, 11.58060000000000045;paint-order:fill markers stroke;fill-opacity:1"
   d="M 103.06494,266.97066 C 49.34472,240.902 6.8600839,219.90039 5.4066919,218.69486 -2.4767384,212.15588 -0.92436779,199.58892 8.356721,194.81339 9.6614892,194.14204 119.3259,150.14338 252.05543,97.038615 469.27182,10.130837 493.74719,0.48298057 497.03896,0.46941929 c 3.60017,-0.0148318 8.60255,1.83902541 9.68399,3.58884241 0.28121,0.4550055 -60.50203,61.7201693 -153.72058,154.9393783 -84.80214,84.80272 -154.33556,154.17063 -154.51871,154.1509 -0.18316,-0.0197 -43.12158,-20.79978 -95.41872,-46.17788 z"
   id="path866" /><path
   style="fill:#54e360;stroke-width:1.44757;stroke-dasharray:5.79028, 11.58060000000000045;paint-order:fill markers stroke;fill-opacity:1"
   d="M 156.25974,292.49866 C 29.821227,231.25826 6.602887,219.68979 3.8602276,216.56607 -0.77386107,211.28814 -0.31641633,202.99684 4.8893169,197.91358 7.9861753,194.88958 -7.6900631,201.26531 254.33766,96.459683 498.92028,-1.3682599 494.73626,0.26368672 499.19085,0.95635436 c 2.80231,0.43574534 7.1572,2.34449774 7.1572,3.13700534 0,1.3727607 -306.96973,308.4595703 -308.28201,308.3996003 -0.31918,-0.0146 -19.13201,-9.01203 -41.8063,-19.9943 z"
   id="path868" /></svg>
