<svg id="Capa_1" enable-background="new 0 0 512.097 512.097" height="512" viewBox="0 0 512.097 512.097" width="512" xmlns="http://www.w3.org/2000/svg"><g><path d="m497.164 28.03-13.08-13.08c-19.931-19.932-52.199-19.935-72.133 0-339.584 339.585-319.441 319.02-320.983 321.748l-88.916 152.856c-3.423 5.884-2.454 13.335 2.359 18.149 4.828 4.828 12.282 5.773 18.148 2.359 3.463-2.014 152.733-88.832 153.458-89.29 2.205-1.39-21.076 21.613 321.146-320.609 19.888-19.887 19.888-52.246.001-72.133zm-145.146 89.279 42.787 42.787-216.022 216.022c-5.844-8.703-15.155-15.021-25.95-16.837-1.779-10.573-7.936-19.973-16.837-25.95zm-238.015 239.453c6.691-.28 11.41 6.786 8.503 12.82-2.767 5.739-1.606 12.599 2.893 17.108 4.5 4.511 11.358 5.686 17.103 2.933 6.122-2.936 13.108 1.816 12.855 8.485l-98.853 57.503zm361.948-277.812-59.934 59.934-42.787-42.787 59.934-59.934c8.207-8.208 21.498-8.209 29.707 0l13.08 13.08c8.19 8.19 8.19 21.517 0 29.707z"/></g></svg>