<svg id="Capa_1" enable-background="new 0 0 511.995 511.995" height="512" viewBox="0 0 511.995 511.995" width="512" xmlns="http://www.w3.org/2000/svg"><path d="m511.967 124.728-.034-.992c-.449-13.023-6.408-25.325-16.35-33.751-9.942-8.425-23.056-12.281-35.977-10.592h-.001l-88.263 11.573c-18.022 2.363-35.314 9.27-50.006 19.973l-27.833 20.276c17.886 2.387 32.47 15.017 37.271 32.936 5.346 19.949-3.08 40.291-20.965 50.618l-87.013 50.236c-6.834 3.945-14.614 6.029-22.5 6.029-4.026 0-8.036-.541-11.919-1.607l-61.44-16.873-59.11 43.061-42.763.659c-11.138.172-20.773 7.455-23.976 18.123s.826 22.055 10.026 28.333l71.21 48.601c2.543 1.735 5.496 2.61 8.456 2.61 2.583 0 5.173-.667 7.499-2.01l390.55-225.484c14.863-8.581 23.729-24.566 23.138-41.719z"/><path d="m93.18 212.173 103.144 28.326c3.867 1.062 7.999.531 11.472-1.474l87.012-50.237c13.29-7.673 7.846-27.99-7.5-27.99h-152.205c-2.633 0-5.22.693-7.5 2.01l-37.95 21.911c-11.535 6.659-9.316 23.927 3.527 27.454z"/><path d="m293.124 89.438c3.064 0 6.155-.936 8.82-2.877 7.261-5.29 15.113-9.879 23.339-13.639 12.295-5.619 25.282-9.354 38.599-11.1 8.214-1.077 14-8.609 12.923-16.823s-8.613-13.989-16.822-12.923c-16.284 2.135-32.154 6.697-47.17 13.56-10.051 4.595-19.65 10.205-28.533 16.676-6.696 4.879-8.169 14.261-3.291 20.957 2.935 4.032 7.503 6.169 12.135 6.169z"/><path d="m321.148 332.15-207.674 119.902c-7.174 4.142-9.632 13.315-5.49 20.49 2.778 4.813 7.82 7.503 13.004 7.503 2.544 0 5.124-.648 7.486-2.013l207.674-119.901c7.174-4.142 9.632-13.315 5.49-20.49-4.141-7.175-13.316-9.635-20.49-5.491z"/><path d="m51.065 424.19-43.56 25.15c-7.174 4.143-9.632 13.316-5.49 20.49 2.778 4.813 7.82 7.503 13.004 7.503 2.544 0 5.124-.648 7.486-2.013l43.559-25.149c7.174-4.143 9.632-13.316 5.49-20.49-4.141-7.174-13.316-9.634-20.489-5.491z"/></svg>