<?xml version="1.0" encoding="iso-8859-1"?>
<!-- Generator: Adobe Illustrator 19.0.0, SVG Export Plug-In . SVG Version: 6.00 Build 0)  -->
<svg version="1.1" id="Capa_1" xmlns="http://www.w3.org/2000/svg" xmlns:xlink="http://www.w3.org/1999/xlink" x="0px" y="0px"
	 viewBox="0 0 512 512" style="enable-background:new 0 0 512 512;" xml:space="preserve">
<path style="fill:#504C54;" d="M419.299,498.577L252.053,331.332c-3.278-3.278-4.856-7.889-4.275-12.489
	c0.582-4.6,3.259-8.672,7.25-11.031c21.705-12.826,39.957-31.079,52.785-52.784c2.358-3.992,6.431-6.668,11.031-7.249
	c4.594-0.582,9.21,0.996,12.488,4.275l167.245,167.245c17.898,17.897,17.898,46.863,0,64.761l-14.517,14.517
	C466.162,516.473,437.196,516.476,419.299,498.577z"/>
<path style="fill:#3F373D;" d="M498.577,419.298L331.332,252.053c-3.278-3.279-7.895-4.857-12.488-4.275
	c-4.601,0.581-8.673,3.258-11.031,7.249c-6.414,10.853-14.184,20.842-23.064,29.721l206.569,206.569l7.259-7.258
	C516.475,466.161,516.474,437.195,498.577,419.298z"/>
<circle style="fill:#59C9FF;" cx="179.23" cy="179.23" r="160"/>
<path style="fill:#4BA9EF;" d="M339.227,179.23c0-88.364-71.633-159.997-159.997-159.997c-44.182,0-84.181,17.908-113.135,46.862
	l226.27,226.269C321.319,263.411,339.227,223.412,339.227,179.23z"/>
<path style="fill:#6D737F;" d="M179.231,358.461C80.403,358.461,0,278.058,0,179.23S80.403,0,179.231,0s179.23,80.402,179.23,179.23
	c0,32.082-8.583,63.569-24.82,91.058c-15.396,26.052-37.302,47.957-63.349,63.35C242.799,349.878,211.311,358.461,179.231,358.461z
	 M179.231,29.999C96.945,29.999,30,96.944,30,179.23s66.945,149.231,149.231,149.231c26.717,0,52.929-7.141,75.8-20.651
	c21.702-12.825,39.954-31.077,52.782-52.783c13.508-22.868,20.648-49.079,20.648-75.798
	C328.461,96.944,261.516,29.999,179.231,29.999z"/>
<path style="fill:#5E5F69;" d="M179.231,29.999c82.285,0,149.23,66.945,149.23,149.231c0,26.719-7.141,52.93-20.648,75.798
	c-6.414,10.853-14.184,20.842-23.064,29.721l21.211,21.211c10.657-10.657,19.982-22.646,27.68-35.672
	c16.237-27.489,24.82-58.976,24.82-91.058C358.46,80.402,278.059,0,179.231,0C129.817,0,85.009,20.101,52.555,52.555l21.203,21.203
	C100.78,46.736,138.088,29.999,179.231,29.999z"/>
<g>
</g>
<g>
</g>
<g>
</g>
<g>
</g>
<g>
</g>
<g>
</g>
<g>
</g>
<g>
</g>
<g>
</g>
<g>
</g>
<g>
</g>
<g>
</g>
<g>
</g>
<g>
</g>
<g>
</g>
</svg>
