<svg id="Capa_1" enable-background="new 0 0 512 512" height="512" viewBox="0 0 512 512" width="512" xmlns="http://www.w3.org/2000/svg"><g><g><path d="m411.269 473.025h-310.833c-11.598 0-21-9.402-21-21v-390.279c0-11.598 9.402-21 21-21h27.472l125.945 17.254 129.944-17.254h27.472c11.598 0 21 9.402 21 21v390.279c0 11.598-9.402 21-21 21z" fill="#c6865c"/></g><g><path d="m411.181 40.746h-9.805v380.298c0 11.647-9.442 21.088-21.088 21.088h-300.852v9.805c0 11.647 9.442 21.088 21.088 21.088h310.657c11.647 0 21.088-9.442 21.088-21.088v-390.103c0-11.646-9.442-21.088-21.088-21.088z" fill="#b16e3d"/></g><g><path d="m383.797 404.028h-255.89c-2.761 0-5-2.239-5-5v-353.366c0-2.761 2.239-5 5-5h255.89c2.761 0 5 2.239 5 5v353.366c0 2.761-2.238 5-5 5z" fill="#f9f6f9"/></g><g><path d="m383.776 40.662h-21.01v332.314c0 2.773-2.248 5.021-5.021 5.021h-234.838v21.01c0 2.773 2.248 5.021 5.021 5.021h255.848c2.773 0 5.021-2.248 5.021-5.021v-353.324c0-2.773-2.248-5.021-5.021-5.021z" fill="#dddaec"/></g><g><path d="m255.852 107.044c-4.883 0-9.73-1.208-14.018-3.492-2.869-1.529-6.517-1.449-9.755.213-4.239 2.176-9.004 3.315-13.805 3.278-16.359-.104-29.668-13.735-29.668-30.384v-20.443c0-4.16 3.372-7.532 7.532-7.532s7.532 3.372 7.532 7.532v20.444c0 8.396 6.595 15.269 14.701 15.321 2.378.018 4.709-.529 6.832-1.617 7.626-3.914 16.492-3.953 23.715-.105 2.146 1.143 4.479 1.723 6.935 1.723s4.79-.58 6.935-1.723c7.22-3.848 16.087-3.808 23.715.105 2.122 1.089 4.398 1.648 6.83 1.617 8.107-.051 14.702-6.925 14.702-15.321v-20.934c0-4.16 3.372-7.532 7.532-7.532s7.532 3.372 7.532 7.532v20.934c0 16.649-13.309 30.28-29.668 30.384-4.778.039-9.563-1.103-13.804-3.278-3.238-1.662-6.885-1.742-9.756-.214-4.289 2.284-9.136 3.492-14.019 3.492z" fill="#6b61b1"/></g><g><circle cx="166.284" cy="312.944" fill="#b3e59f" r="61.633"/></g><g><circle cx="84.288" cy="175.86" fill="#b3e59f" r="61.633"/></g><g><path d="m389.029 358.847h-118.024c-9.343 0-16.916-7.574-16.916-16.916v-60.092c0-9.343 7.574-16.916 16.916-16.916h118.024c9.343 0 16.916 7.574 16.916 16.916v60.092c.001 9.343-7.573 16.916-16.916 16.916z" fill="#dddaec"/></g><g><path d="m366.959 302.937h-73.884c-4.16 0-7.532-3.372-7.532-7.532s3.372-7.532 7.532-7.532h73.884c4.16 0 7.532 3.372 7.532 7.532s-3.372 7.532-7.532 7.532z" fill="#d0cee7"/></g><g><path d="m317.925 336.005h-24.849c-4.16 0-7.532-3.372-7.532-7.532s3.372-7.532 7.532-7.532h24.849c4.16 0 7.532 3.372 7.532 7.532s-3.372 7.532-7.532 7.532z" fill="#d0cee7"/></g><g><circle cx="249.683" cy="450.367" fill="#b3e59f" r="61.633"/></g><g><path d="m194.394 258.1c4.33 8.431 6.789 17.98 6.789 28.11 0 34.039-27.594 61.633-61.633 61.633-10.13 0-19.679-2.459-28.11-6.789 10.22 19.899 30.934 33.523 54.844 33.523 34.039 0 61.633-27.594 61.633-61.633 0-23.909-13.623-44.623-33.523-54.844z" fill="#95d6a4"/></g><g><path d="m112.398 121.016c4.33 8.431 6.789 17.98 6.789 28.11 0 34.039-27.594 61.633-61.633 61.633-10.13 0-19.679-2.459-28.11-6.789 10.22 19.899 30.934 33.523 54.844 33.523 34.039 0 61.633-27.594 61.633-61.633 0-23.91-13.623-44.624-33.523-54.844z" fill="#95d6a4"/></g><g><path d="m277.794 395.523c4.33 8.431 6.789 17.98 6.789 28.11 0 34.039-27.594 61.633-61.633 61.633-10.13 0-19.679-2.459-28.11-6.789 10.22 19.899 30.934 33.523 54.843 33.523 34.039 0 61.633-27.594 61.633-61.633.001-23.91-13.623-44.624-33.522-54.844z" fill="#95d6a4"/></g><g><path d="m472.429 494.262h-118.024c-9.343 0-16.916-7.574-16.916-16.916v-60.092c0-9.343 7.574-16.916 16.916-16.916h118.024c9.343 0 16.916 7.574 16.916 16.916v60.092c0 9.342-7.574 16.916-16.916 16.916z" fill="#dddaec"/></g><g><path d="m450.358 438.352h-73.883c-4.16 0-7.532-3.372-7.532-7.532s3.372-7.532 7.532-7.532h73.883c4.16 0 7.532 3.372 7.532 7.532s-3.372 7.532-7.532 7.532z" fill="#d0cee7"/></g><g><path d="m433.346 471.42h-56.87c-4.16 0-7.532-3.372-7.532-7.532 0-4.159 3.372-7.532 7.532-7.532h56.87c4.16 0 7.532 3.372 7.532 7.532-.001 4.16-3.372 7.532-7.532 7.532z" fill="#d0cee7"/></g><g><path d="m307.033 222.822h-118.024c-9.343 0-16.916-7.574-16.916-16.916v-60.092c0-9.343 7.574-16.916 16.916-16.916h118.024c9.343 0 16.916 7.574 16.916 16.916v60.092c.001 9.342-7.573 16.916-16.916 16.916z" fill="#dddaec"/></g><g fill="#d0cee7"><path d="m389.426 264.943c.003.133.02.262.02.396v69.444c0 4.178-3.387 7.564-7.564 7.564h-127.377c-.134 0-.263-.017-.396-.02.213 9.158 7.687 16.52 16.896 16.52h118.024c9.343 0 16.916-7.574 16.916-16.916v-60.092c.001-9.209-7.362-16.684-16.519-16.896z"/><path d="m472.825 400.357c.003.133.02.262.02.396v69.444c0 4.178-3.387 7.564-7.564 7.564h-127.376c-.134 0-.263-.017-.396-.02.213 9.158 7.688 16.52 16.896 16.52h118.024c9.343 0 16.916-7.574 16.916-16.916v-60.092c0-9.208-7.362-16.683-16.52-16.896z"/><path d="m307.43 128.918c.003.133.02.262.02.396v69.444c0 4.178-3.387 7.564-7.564 7.564h-127.377c-.134 0-.263-.017-.396-.02.213 9.158 7.687 16.52 16.896 16.52h118.024c9.343 0 16.916-7.574 16.916-16.916v-60.092c.001-9.209-7.362-16.684-16.519-16.896z"/></g><g><path d="m284.962 166.912h-73.882c-4.16 0-7.532-3.372-7.532-7.532s3.372-7.532 7.532-7.532h73.883c4.16 0 7.532 3.372 7.532 7.532s-3.373 7.532-7.533 7.532z" fill="#d0cee7"/></g><g><path d="m284.962 199.98h-73.882c-4.16 0-7.532-3.372-7.532-7.532s3.372-7.532 7.532-7.532h73.883c4.16 0 7.532 3.372 7.532 7.532s-3.373 7.532-7.533 7.532z" fill="#d0cee7"/></g><g><path d="m281.18 44.077c-4.16 0-7.532-3.372-7.532-7.532v-3.686c0-9.813-7.984-17.796-17.796-17.796-9.813 0-17.796 7.983-17.796 17.796v3.686c0 4.16-3.372 7.532-7.532 7.532s-7.532-3.372-7.532-7.532v-3.686c.001-18.119 14.741-32.859 32.86-32.859s32.859 14.74 32.859 32.859v3.686c.001 4.16-3.371 7.532-7.531 7.532z" fill="#6b61b1"/></g><g><path d="m330.323 31.461h-148.941c-4.418 0-8 3.582-8 8v19.963c0 4.418 3.582 8 8 8h148.941c4.418 0 8-3.582 8-8v-19.963c0-4.418-3.582-8-8-8z" fill="#e28086"/></g><g><path d="m330.289 31.461h-6.74v13.156c0 4.437-3.597 8.034-8.034 8.034h-142.133v6.74c0 4.437 3.597 8.034 8.034 8.034h148.874c4.437 0 8.034-3.597 8.034-8.034v-19.896c-.001-4.437-3.598-8.034-8.035-8.034z" fill="#dd636e"/></g><g><g><path d="m163.006 351.012c-11.761 0-12.66-.3-13.659-.634-2.468-.822-4.315-2.695-5.067-5.138-1.271-4.13.635-6.624 4.43-11.594 3.043-3.984 8.706-11.4 18.199-24.963 2.635-3.765 4.402-7.238 5.129-10.074l.173-1.349c-.209-4.125-3.63-7.416-7.806-7.416-3.728 0-6.953 2.647-7.67 6.293-.802 4.082-4.759 6.741-8.842 5.939-4.082-.802-6.741-4.76-5.939-8.842 2.1-10.693 11.542-18.453 22.45-18.453 12.616 0 22.88 10.264 22.88 22.88 0 .319-.02.638-.061.955l-.297 2.32c-.032.251-.076.5-.134.745-1.118 4.823-3.655 10.085-7.543 15.639-5.752 8.219-10.131 14.231-13.389 18.61 5.012-.015 10.833-.063 16.34-.132 4.173-.036 7.574 3.277 7.626 7.436s-3.277 7.573-7.436 7.626c-8.549.107-14.794.152-19.384.152zm-10.158-15.213s0 0 0 0z" fill="#6b61b1"/></g></g><g><g><path d="m84.045 216.395c-4.16 0-7.532-3.372-7.532-7.532v-52.45h-5.289c-4.16 0-7.532-3.372-7.532-7.532s3.372-7.532 7.532-7.532h12.821c4.16 0 7.532 3.372 7.532 7.532v59.981c-.001 4.161-3.373 7.533-7.532 7.533z" fill="#6b61b1"/></g></g><g><g><path d="m249.218 458.848c-4.16 0-7.532-3.372-7.532-7.532s3.372-7.532 7.532-7.532c4.31 0 7.816-3.506 7.816-7.816s-3.506-7.816-7.816-7.816c-3.728 0-6.953 2.647-7.67 6.293-.802 4.081-4.761 6.736-8.842 5.938-4.082-.802-6.74-4.761-5.938-8.842 2.101-10.692 11.542-18.453 22.45-18.453 12.616 0 22.88 10.264 22.88 22.88s-10.264 22.88-22.88 22.88z" fill="#6b61b1"/></g><g><path d="m249.218 489.544c-11.351 0-21.092-8.468-22.659-19.698-.146-1.049-.22-2.119-.22-3.182 0-4.16 3.372-7.532 7.532-7.532s7.532 3.372 7.532 7.532c0 .369.025.739.076 1.101.534 3.828 3.862 6.716 7.74 6.716 4.31 0 7.816-3.506 7.816-7.816s-3.506-7.816-7.816-7.816c-4.16 0-7.532-3.372-7.532-7.532s3.372-7.532 7.532-7.532c12.616 0 22.88 10.264 22.88 22.88-.001 12.615-10.265 22.879-22.881 22.879z" fill="#6b61b1"/></g></g></g></svg>