<?xml version="1.0" encoding="UTF-8" standalone="no"?>
<svg
   xmlns:dc="http://purl.org/dc/elements/1.1/"
   xmlns:cc="http://creativecommons.org/ns#"
   xmlns:rdf="http://www.w3.org/1999/02/22-rdf-syntax-ns#"
   xmlns:svg="http://www.w3.org/2000/svg"
   xmlns="http://www.w3.org/2000/svg"
   xmlns:sodipodi="http://sodipodi.sourceforge.net/DTD/sodipodi-0.dtd"
   xmlns:inkscape="http://www.inkscape.org/namespaces/inkscape"
   inkscape:version="1.0 (4035a4fb49, 2020-05-01)"
   sodipodi:docname="trip-request-accepted.svg"
   id="svg492"
   version="1.1"
   width="512pt"
   viewBox="0 -24 512 511"
   height="512pt">
  <metadata
     id="metadata498">
    <rdf:RDF>
      <cc:Work
         rdf:about="">
        <dc:format>image/svg+xml</dc:format>
        <dc:type
           rdf:resource="http://purl.org/dc/dcmitype/StillImage" />
        <dc:title></dc:title>
      </cc:Work>
    </rdf:RDF>
  </metadata>
  <defs
     id="defs496" />
  <sodipodi:namedview
     inkscape:current-layer="svg492"
     inkscape:window-maximized="1"
     inkscape:window-y="28"
     inkscape:window-x="0"
     inkscape:cy="341.33333"
     inkscape:cx="341.33333"
     inkscape:zoom="1.1279297"
     showgrid="false"
     id="namedview494"
     inkscape:window-height="1026"
     inkscape:window-width="1920"
     inkscape:pageshadow="2"
     inkscape:pageopacity="0"
     guidetolerance="10"
     gridtolerance="10"
     objecttolerance="10"
     borderopacity="1"
     bordercolor="#666666"
     pagecolor="#ffffff" />
  <g
     transform="translate(1.1470375,-23.641788)"
     id="g586">
    <path
       d="m 303.52734,512 c -3.83984,0 -7.67968,-1.46484 -10.60547,-4.39453 -5.85937,-5.85547 -5.85937,-15.35547 0,-21.21094 l 43.21485,-43.21875 c 5.85937,-5.85937 15.35547,-5.85937 21.21484,0 5.85938,5.85547 5.85938,15.35156 0,21.21094 l -43.21875,43.21875 C 311.20312,510.53516 307.36719,512 303.52734,512 Z m 0,0"
       fill="#beebfa"
       id="path548" />
    <path
       d="m 418.91016,448.94141 c -5.125,0 -10.01954,-2.63672 -12.79297,-7.17188 L 276.71484,230.34766 c -2.14453,-3.50782 -2.75781,-7.74219 -1.6914,-11.71094 1.0625,-3.97266 3.70703,-7.33203 7.32031,-9.29688 l 129.97656,-70.70703 c 4.65235,-2.52734 10.29688,-2.42187 14.84766,0.29297 4.55078,2.71094 7.33203,7.61719 7.32031,12.91406 l -0.57812,282.13282 c -0.0117,6.71093 -4.48438,12.59765 -10.94532,14.41015 -1.34375,0.37891 -2.70703,0.5586 -4.05468,0.5586 z m 0,0"
       fill="#001a48"
       id="path550" />
    <path
       d="m 223.04297,486.41797 c -3.83985,0 -7.67969,-1.46485 -10.60547,-4.39453 l -71.41797,-71.41797 c -2.90234,-2.89844 -4.48828,-6.86328 -4.39062,-10.96094 0.0977,-4.10547 1.87109,-7.98437 4.90625,-10.74219 l 62.22656,-56.57031 c 3.93359,-3.57812 9.47265,-4.80078 14.55078,-3.22265 5.07812,1.58203 8.9375,5.73437 10.14453,10.91796 l 25.93359,111.2461 c 1.17579,5.05078 -0.33984,10.34765 -4.0039,14.01172 l -16.73828,16.73828 c -2.92969,2.92969 -6.76563,4.39453 -10.60547,4.39453 z m 0,0"
       fill="#001a48"
       id="path552" />
    <path
       d="m 116.26563,379.64453 c -3.96875,0 -7.78516,-1.57422 -10.60157,-4.39062 L 30.003906,299.58984 c -5.859375,-5.85547 -5.859375,-15.35547 0,-21.21093 l 16.738282,-16.73829 c 3.695312,-3.69531 9.046874,-5.19921 14.125,-3.97656 l 114.511722,27.65625 c 5.07812,1.22656 9.15234,5.00391 10.7539,9.97266 1.60547,4.97265 0.50781,10.41797 -2.89453,14.3789 l -55.58984,64.7461 c -2.71875,3.16797 -6.63672,5.05859 -10.8125,5.21875 -0.1875,0.004 -0.37891,0.008 -0.57031,0.008 z m 0,0"
       fill="#1751a9"
       id="path554" />
    <path
       d="m 289.51172,237.51562 c -2.73828,0 -5.45313,-0.75 -7.83203,-2.20312 L 70.253906,105.91016 C 64.53125,102.40625 61.828125,95.523438 63.644531,89.0625 65.457031,82.601562 71.34375,78.128906 78.054688,78.117188 L 360.18359,77.535156 h 0.0312 c 5.28516,0 10.1836,2.78125 12.88672,7.324219 2.71094,4.550781 2.82031,10.191406 0.29297,14.84375 L 302.6875,229.68359 c -1.96484,3.61328 -5.32422,6.25782 -9.29688,7.32422 -1.27734,0.33985 -2.58203,0.50781 -3.8789,0.50781 z m 0,0"
       fill="#1751a9"
       id="path556" />
    <path
       d="m 118.32813,437.50391 c -11.41016,0 -22.554692,-4.26172 -31.050786,-12.75391 -8.488282,-8.48828 -13.160156,-19.77344 -13.160156,-31.77344 0,-11.82812 4.539062,-22.95703 12.789062,-31.39844 22.5625,-25.64843 45.35547,-51.90625 69.48437,-79.69531 C 234.64062,191.73828 315.55469,98.53125 393.80078,20.285156 406.88281,7.203125 424.27344,0 442.77344,0 c 18.49609,0 35.89062,7.203125 48.96875,20.285156 27.0039,27 27.0039,70.9375 0,97.937504 -107.42969,107.42968 -231.9375,213.63281 -341.78906,307.33203 -9.35157,7.97656 -20.61329,11.94922 -31.625,11.94922 z m 0,0"
       fill="#62e3f8"
       id="path558" />
    <path
       d="m 313.79297,416.87891 c -3.83985,0 -7.67969,-1.46485 -10.60547,-4.39454 -5.85938,-5.85546 -5.85938,-15.35156 0,-21.21093 l 13.89844,-13.90235 c 5.85937,-5.85547 15.35937,-5.85547 21.21484,0 5.85938,5.85938 5.85547,15.35547 0,21.21485 l -13.90234,13.89843 c -2.92969,2.92969 -6.76953,4.39454 -10.60547,4.39454 z m 0,0"
       fill="#beebfa"
       id="path560" />
    <path
       d="m 15,223.28516 c -3.839844,0 -7.679688,-1.46485 -10.605469,-4.39063 -5.859375,-5.85937 -5.859375,-15.35547 0,-21.21484 l 43.339844,-43.33985 c 5.855469,-5.85547 15.351563,-5.85547 21.210937,0 5.859376,5.85938 5.859376,15.35547 0,21.21485 L 25.605469,218.89453 C 22.675781,221.82031 18.839844,223.28516 15,223.28516 Z m 0,0"
       fill="#e1f6fd"
       id="path562" />
    <path
       d="m 110.11328,213.02344 c -3.83594,0 -7.67578,-1.46485 -10.605468,-4.39063 -5.855468,-5.85937 -5.855468,-15.35547 0,-21.21484 l 14.027348,-14.02735 c 5.85547,-5.85546 15.35546,-5.85546 21.21093,0 5.85938,5.85938 5.85938,15.35547 0,21.21485 l -14.02343,14.02734 c -2.92969,2.92578 -6.76953,4.39063 -10.60938,4.39063 z m 0,0"
       fill="#e1f6fd"
       id="path564" />
    <path
       d="m 87.003906,424.46094 c 0.09375,0.0976 0.179688,0.19531 0.273438,0.28906 8.496094,8.49219 19.640626,12.75391 31.050786,12.75391 11.01171,0 22.27343,-3.97266 31.62499,-11.94922 C 259.80469,331.85547 384.3125,225.65234 491.74219,118.22266 517.96484,92 518.71484,49.808594 494.00781,22.664062 Z m 0,0"
       fill="#00c0f1"
       id="path566" />
  </g>
  <g
     transform="matrix(0.60210405,0,0,0.52518893,203.73162,172.93532)"
     id="g916">
    <path
       style="fill:#c2fb3b"
       d="M 505.182,113.795 439.346,47.961 c -9.089,-9.09 -23.827,-9.089 -32.917,0 L 256,198.392 171.406,282.986 105.567,217.147 c -4.365,-4.365 -10.285,-6.817 -16.459,-6.817 -6.173,0 -12.094,2.452 -16.458,6.818 l -65.832,65.84 c -9.09,9.09 -9.09,23.827 0,32.917 l 148.124,148.133 c 4.363,4.365 10.285,6.817 16.458,6.817 6.174,0 12.094,-2.453 16.458,-6.817 l 68.141,-68.141 249.184,-249.184 c 4.365,-4.365 6.818,-10.285 6.818,-16.458 -0.002,-6.174 -2.454,-12.095 -6.819,-16.46 z"
       id="path858" />
    <path
       style="fill:#9cdd05"
       d="m 154.942,464.039 c 4.363,4.365 10.285,6.818 16.458,6.818 6.174,0 12.094,-2.453 16.458,-6.818 l 68.141,-68.141 V 198.394 l -84.594,84.594 -65.839,-65.839 c -4.365,-4.365 -10.285,-6.817 -16.458,-6.817 -6.173,0 -12.094,2.452 -16.458,6.818 L 6.818,282.988 c -9.09,9.09 -9.09,23.827 0,32.917 z"
       id="path860" />
    <g
       id="g862">
</g>
    <g
       id="g864">
</g>
    <g
       id="g866">
</g>
    <g
       id="g868">
</g>
    <g
       id="g870">
</g>
    <g
       id="g872">
</g>
    <g
       id="g874">
</g>
    <g
       id="g876">
</g>
    <g
       id="g878">
</g>
    <g
       id="g880">
</g>
    <g
       id="g882">
</g>
    <g
       id="g884">
</g>
    <g
       id="g886">
</g>
    <g
       id="g888">
</g>
    <g
       id="g890">
</g>
  </g>
</svg>
